PublicSans-Thin.ufo
<glyph name="exclam" format="2">
  <advance width="440"/>
  <unicode hex="0021"/>
  <guideline x="140" y="98" angle="90"/>
  <guideline x="212" y="105" angle="90"/>
  <outline>
    <contour>
      <point x="280" y="154" type="line"/>
      <point x="160" y="154" type="line"/>
      <point x="160" y="0" type="line"/>
      <point x="280" y="0" type="line"/>
    </contour>
    <contour>
      <point x="272" y="1446" type="line"/>
      <point x="170" y="1446" type="line"/>
      <point x="188" y="288" type="line"/>
      <point x="252" y="288" type="line"/>
    </contour>
  </outline>
</glyph>
<glyph name="numbersign" format="2">
  <advance width="1180"/>
  <unicode hex="0023"/>
  <outline>
    <contour>
      <point x="726" y="-2" type="line"/>
      <point x="948" y="1438" type="line"/>
      <point x="874" y="1448" type="line"/>
      <point x="652" y="10" type="line"/>
    </contour>
    <contour>
      <point x="90" y="488" type="line"/>
      <point x="1026" y="488" type="line"/>
      <point x="1026" y="562" type="line"/>
      <point x="90" y="562" type="line"/>
    </contour>
    <contour>
      <point x="330" y="-2" type="line"/>
      <point x="552" y="1438" type="line"/>
      <point x="478" y="1448" type="line"/>
      <point x="256" y="10" type="line"/>
    </contour>
    <contour>
      <point x="154" y="898" type="line"/>
      <point x="1090" y="898" type="line"/>
      <point x="1090" y="972" type="line"/>
      <point x="154" y="972" type="line"/>
    </contour>
  </outline>
</glyph>
<glyph name="dollar" format="2">
  <advance width="1272"/>
  <unicode hex="0024"/>
  <outline>
    <contour>
      <point x="648" y="-20" type="curve" smooth="yes"/>
      <point x="930" y="-20"/>
      <point x="1132" y="142"/>
      <point x="1132" y="354" type="curve" smooth="yes"/>
      <point x="1132" y="512"/>
      <point x="1048" y="654"/>
      <point x="822" y="728" type="curve" smooth="yes"/>
      <point x="574" y="808" type="line" smooth="yes"/>
      <point x="348" y="882"/>
      <point x="272" y="942"/>
      <point x="272" y="1066" type="curve" smooth="yes"/>
      <point x="272" y="1286"/>
      <point x="486" y="1382"/>
      <point x="658" y="1382" type="curve" smooth="yes"/>
      <point x="854" y="1382"/>
      <point x="984" y="1280"/>
      <point x="1024" y="1064" type="curve"/>
      <point x="1104" y="1080" type="line"/>
      <point x="1084" y="1280"/>
      <point x="930" y="1464"/>
      <point x="662" y="1464" type="curve" smooth="yes"/>
      <point x="370" y="1464"/>
      <point x="186" y="1292"/>
      <point x="186" y="1064" type="curve" smooth="yes"/>
      <point x="186" y="892"/>
      <point x="312" y="796"/>
      <point x="520" y="732" type="curve" smooth="yes"/>
      <point x="782" y="652" type="line" smooth="yes"/>
      <point x="966" y="596"/>
      <point x="1046" y="498"/>
      <point x="1046" y="350" type="curve" smooth="yes"/>
      <point x="1046" y="172"/>
      <point x="840" y="64"/>
      <point x="648" y="64" type="curve" smooth="yes"/>
      <point x="436" y="64"/>
      <point x="276" y="156"/>
      <point x="224" y="352" type="curve"/>
      <point x="140" y="334" type="line"/>
      <point x="184" y="110"/>
      <point x="384" y="-20"/>
    </contour>
    <contour>
      <point x="600" y="-228" type="line"/>
      <point x="690" y="-228" type="line"/>
      <point x="690" y="30" type="line"/>
      <point x="600" y="30" type="line"/>
    </contour>
    <contour>
      <point x="618" y="1414" type="line"/>
      <point x="708" y="1414" type="line"/>
      <point x="708" y="1672" type="line"/>
      <point x="618" y="1672" type="line"/>
    </contour>
  </outline>
</glyph>
<glyph name="ampersand" format="2">
  <advance width="1266"/>
  <unicode hex="0026"/>
  <outline>
    <contour>
      <point x="486" y="-10" type="curve" smooth="yes"/>
      <point x="642" y="-10"/>
      <point x="786" y="52"/>
      <point x="922" y="180" type="curve"/>
      <point x="1080" y="0" type="line"/>
      <point x="1176" y="0" type="line"/>
      <point x="974" y="238" type="line"/>
      <point x="1078" y="366"/>
      <point x="1144" y="502"/>
      <point x="1150" y="736" type="curve"/>
      <point x="1084" y="736" type="line"/>
      <point x="1078" y="496"/>
      <point x="976" y="340"/>
      <point x="928" y="292" type="curve"/>
      <point x="520" y="768" type="line"/>
      <point x="856" y="936"/>
      <point x="884" y="1092"/>
      <point x="884" y="1166" type="curve" smooth="yes"/>
      <point x="884" y="1354"/>
      <point x="714" y="1468"/>
      <point x="534" y="1468" type="curve" smooth="yes"/>
      <point x="346" y="1468"/>
      <point x="216" y="1336"/>
      <point x="216" y="1170" type="curve" smooth="yes"/>
      <point x="216" y="1042"/>
      <point x="280" y="922"/>
      <point x="402" y="796" type="curve"/>
      <point x="184" y="680"/>
      <point x="80" y="544"/>
      <point x="80" y="364" type="curve" smooth="yes"/>
      <point x="80" y="140"/>
      <point x="238" y="-10"/>
    </contour>
    <contour>
      <point x="494" y="64" type="curve" smooth="yes"/>
      <point x="306" y="64"/>
      <point x="162" y="182"/>
      <point x="162" y="356" type="curve" smooth="yes"/>
      <point x="162" y="516"/>
      <point x="276" y="644"/>
      <point x="448" y="738" type="curve"/>
      <point x="878" y="236" type="line"/>
      <point x="776" y="136"/>
      <point x="640" y="64"/>
    </contour>
    <contour>
      <point x="476" y="828" type="curve"/>
      <point x="446" y="862" type="line" smooth="yes"/>
      <point x="406" y="906"/>
      <point x="298" y="1040"/>
      <point x="298" y="1172" type="curve" smooth="yes"/>
      <point x="298" y="1286"/>
      <point x="378" y="1392"/>
      <point x="534" y="1392" type="curve" smooth="yes"/>
      <point x="662" y="1392"/>
      <point x="802" y="1336"/>
      <point x="802" y="1170" type="curve" smooth="yes"/>
      <point x="802" y="1072"/>
      <point x="748" y="980"/>
    </contour>
  </outline>
</glyph>
<glyph name="quotesingle" format="2">
  <advance width="470"/>
  <unicode hex="0027"/>
  <outline>
    <contour>
      <point x="200" y="1072" type="line"/>
      <point x="266" y="1072" type="line"/>
      <point x="310" y="1446" type="line"/>
      <point x="160" y="1446" type="line"/>
    </contour>
  </outline>
</glyph>
<glyph name="parenleft" format="2">
  <advance width="544"/>
  <unicode hex="0028"/>
  <outline>
    <contour>
      <point x="422" y="-208" type="curve"/>
      <point x="470" y="-208" type="line"/>
      <point x="330" y="88"/>
      <point x="256" y="370"/>
      <point x="256" y="668" type="curve" smooth="yes"/>
      <point x="256" y="982"/>
      <point x="360" y="1302"/>
      <point x="494" y="1560" type="curve"/>
      <point x="446" y="1560" type="line"/>
      <point x="280" y="1314"/>
      <point x="160" y="998"/>
      <point x="160" y="670" type="curve" smooth="yes"/>
      <point x="160" y="332"/>
      <point x="260" y="72"/>
    </contour>
  </outline>
</glyph>
<glyph name="parenright" format="2">
  <advance width="564"/>
  <unicode hex="0029"/>
  <outline>
    <contour>
      <point x="78" y="-208" type="curve"/>
      <point x="126" y="-208" type="line"/>
      <point x="288" y="72"/>
      <point x="388" y="332"/>
      <point x="388" y="670" type="curve" smooth="yes"/>
      <point x="388" y="998"/>
      <point x="268" y="1314"/>
      <point x="102" y="1560" type="curve"/>
      <point x="54" y="1560" type="line"/>
      <point x="188" y="1302"/>
      <point x="292" y="982"/>
      <point x="292" y="668" type="curve" smooth="yes"/>
      <point x="292" y="370"/>
      <point x="218" y="88"/>
    </contour>
  </outline>
</glyph>
<glyph name="asterisk" format="2">
  <advance width="630"/>
  <unicode hex="002A"/>
  <outline>
    <contour>
      <point x="174" y="880" type="line"/>
      <point x="328" y="1120" type="line"/>
      <point x="474" y="888" type="line"/>
      <point x="538" y="936" type="line"/>
      <point x="372" y="1146" type="line"/>
      <point x="600" y="1226" type="line"/>
      <point x="580" y="1288" type="line"/>
      <point x="354" y="1194" type="line"/>
      <point x="364" y="1446" type="line"/>
      <point x="282" y="1446" type="line"/>
      <point x="296" y="1194" type="line"/>
      <point x="72" y="1276" type="line"/>
      <point x="50" y="1212" type="line"/>
      <point x="282" y="1144" type="line"/>
      <point x="110" y="922" type="line"/>
    </contour>
  </outline>
</glyph>
<glyph name="plus" format="2">
  <advance width="1042"/>
  <unicode hex="002B"/>
  <outline>
    <contour>
      <point x="486" y="336" type="line"/>
      <point x="560" y="336" type="line"/>
      <point x="558" y="1118" type="line"/>
      <point x="484" y="1118" type="line"/>
    </contour>
    <contour>
      <point x="130" y="688" type="line"/>
      <point x="912" y="690" type="line"/>
      <point x="912" y="764" type="line"/>
      <point x="130" y="762" type="line"/>
    </contour>
  </outline>
</glyph>
<glyph name="comma" format="2">
  <advance width="412"/>
  <unicode hex="002C"/>
  <outline>
    <contour>
      <point x="80" y="-222" type="line"/>
      <point x="144" y="-222" type="line"/>
      <point x="282" y="24" type="line"/>
      <point x="282" y="160" type="line"/>
      <point x="116" y="160" type="line"/>
      <point x="116" y="0" type="line"/>
      <point x="188" y="0" type="line"/>
    </contour>
  </outline>
</glyph>
<glyph name="hyphen" format="2">
  <advance width="724"/>
  <unicode hex="002D"/>
  <outline>
    <contour>
      <point x="127" y="478" type="line"/>
      <point x="597" y="480" type="line"/>
      <point x="597" y="558" type="line"/>
      <point x="127" y="556" type="line"/>
    </contour>
  </outline>
</glyph>
<glyph name="period" format="2">
  <advance width="361"/>
  <unicode hex="002E"/>
  <outline>
    <contour>
      <point x="120" y="0" type="line"/>
      <point x="241" y="0" type="line"/>
      <point x="241" y="154" type="line"/>
      <point x="120" y="154" type="line"/>
    </contour>
  </outline>
</glyph>
<glyph name="slash" format="2">
  <advance width="640"/>
  <unicode hex="002F"/>
  <outline>
    <contour>
      <point x="30" y="-118" type="line"/>
      <point x="114" y="-118" type="line"/>
      <point x="610" y="1446" type="line"/>
      <point x="526" y="1446" type="line"/>
    </contour>
  </outline>
</glyph>
<glyph name="zero" format="2">
  <advance width="1158"/>
  <unicode hex="0030"/>
  <outline>
    <contour>
      <point x="577" y="-22" type="curve" smooth="yes"/>
      <point x="861" y="-22"/>
      <point x="1053" y="218"/>
      <point x="1053" y="720" type="curve" smooth="yes"/>
      <point x="1053" y="1224"/>
      <point x="861" y="1466"/>
      <point x="579" y="1466" type="curve" smooth="yes"/>
      <point x="297" y="1466"/>
      <point x="105" y="1222"/>
      <point x="105" y="716" type="curve" smooth="yes"/>
      <point x="105" y="216"/>
      <point x="293" y="-22"/>
    </contour>
    <contour>
      <point x="581" y="60" type="curve" smooth="yes"/>
      <point x="341" y="60"/>
      <point x="195" y="260"/>
      <point x="195" y="720" type="curve" smooth="yes"/>
      <point x="195" y="1184"/>
      <point x="341" y="1384"/>
      <point x="579" y="1384" type="curve" smooth="yes"/>
      <point x="817" y="1384"/>
      <point x="959" y="1186"/>
      <point x="959" y="720" type="curve" smooth="yes"/>
      <point x="959" y="258"/>
      <point x="821" y="60"/>
    </contour>
  </outline>
</glyph>
<glyph name="one" format="2">
  <advance width="771"/>
  <unicode hex="0031"/>
  <outline>
    <contour>
      <point x="400" y="0" type="line"/>
      <point x="486" y="0" type="line"/>
      <point x="486" y="1446" type="line"/>
      <point x="416" y="1446" type="line"/>
      <point x="416" y="1336"/>
      <point x="370" y="1296"/>
      <point x="100" y="1296" type="curve"/>
      <point x="100" y="1218" type="line"/>
      <point x="400" y="1218" type="line"/>
    </contour>
  </outline>
</glyph>
<glyph name="two" format="2">
  <advance width="1115"/>
  <unicode hex="0032"/>
  <outline>
    <contour>
      <point x="136" y="0" type="line"/>
      <point x="1010" y="0" type="line"/>
      <point x="1010" y="82" type="line"/>
      <point x="222" y="82" type="line"/>
      <point x="222" y="126" type="line" smooth="yes"/>
      <point x="222" y="596"/>
      <point x="993" y="554"/>
      <point x="993" y="1080" type="curve" smooth="yes"/>
      <point x="993" y="1312"/>
      <point x="823" y="1466"/>
      <point x="567" y="1466" type="curve" smooth="yes"/>
      <point x="272" y="1466"/>
      <point x="107" y="1272"/>
      <point x="100" y="1048" type="curve"/>
      <point x="188" y="1048" type="line"/>
      <point x="195" y="1236"/>
      <point x="327" y="1382"/>
      <point x="560" y="1382" type="curve" smooth="yes"/>
      <point x="772" y="1382"/>
      <point x="909" y="1262"/>
      <point x="909" y="1082" type="curve" smooth="yes"/>
      <point x="909" y="616"/>
      <point x="136" y="650"/>
      <point x="136" y="126" type="curve" smooth="yes"/>
      <point x="136" y="82" type="line"/>
    </contour>
  </outline>
</glyph>
<glyph name="three" format="2">
  <advance width="1191"/>
  <unicode hex="0033"/>
  <outline>
    <contour>
      <point x="574" y="-22" type="curve" smooth="yes"/>
      <point x="884" y="-26"/>
      <point x="1086" y="144"/>
      <point x="1086" y="388" type="curve" smooth="yes"/>
      <point x="1086" y="568"/>
      <point x="974" y="708"/>
      <point x="754" y="768" type="curve"/>
      <point x="941" y="834"/>
      <point x="1042" y="964"/>
      <point x="1042" y="1108" type="curve" smooth="yes"/>
      <point x="1042" y="1322"/>
      <point x="859" y="1466"/>
      <point x="582" y="1466" type="curve" smooth="yes"/>
      <point x="342" y="1466"/>
      <point x="134" y="1298"/>
      <point x="134" y="1048" type="curve"/>
      <point x="222" y="1048" type="line"/>
      <point x="222" y="1272"/>
      <point x="414" y="1384"/>
      <point x="586" y="1384" type="curve" smooth="yes"/>
      <point x="834" y="1384"/>
      <point x="954" y="1244"/>
      <point x="954" y="1108" type="curve" smooth="yes"/>
      <point x="954" y="950"/>
      <point x="773" y="802"/>
      <point x="548" y="802" type="curve" smooth="yes"/>
      <point x="426" y="802" type="line"/>
      <point x="426" y="720" type="line"/>
      <point x="548" y="720" type="line" smooth="yes"/>
      <point x="794" y="720"/>
      <point x="998" y="608"/>
      <point x="998" y="382" type="curve" smooth="yes"/>
      <point x="998" y="190"/>
      <point x="832" y="60"/>
      <point x="584" y="60" type="curve" smooth="yes"/>
      <point x="366" y="60"/>
      <point x="220" y="190"/>
      <point x="194" y="384" type="curve"/>
      <point x="105" y="384" type="line"/>
      <point x="118" y="142"/>
      <point x="324" y="-18"/>
    </contour>
  </outline>
</glyph>
<glyph name="four" format="2">
  <advance width="1201"/>
  <unicode hex="0034"/>
  <outline>
    <contour>
      <point x="796" y="0" type="line"/>
      <point x="878" y="0" type="line"/>
      <point x="878" y="418" type="line"/>
      <point x="1134" y="418" type="line"/>
      <point x="1134" y="500" type="line"/>
      <point x="878" y="500" type="line"/>
      <point x="878" y="1446" type="line"/>
      <point x="788" y="1446" type="line"/>
      <point x="100" y="516" type="line"/>
      <point x="100" y="418" type="line"/>
      <point x="796" y="418" type="line"/>
    </contour>
    <contour>
      <point x="184" y="500" type="line"/>
      <point x="788" y="1312" type="line"/>
      <point x="788" y="500" type="line"/>
    </contour>
  </outline>
</glyph>
<glyph name="five" format="2">
  <advance width="1212"/>
  <unicode hex="0035"/>
  <outline>
    <contour>
      <point x="619" y="-22" type="curve" smooth="yes"/>
      <point x="911" y="-22"/>
      <point x="1107" y="178"/>
      <point x="1107" y="474" type="curve" smooth="yes"/>
      <point x="1107" y="786"/>
      <point x="875" y="942"/>
      <point x="642" y="942" type="curve" smooth="yes"/>
      <point x="491" y="942"/>
      <point x="353" y="898"/>
      <point x="268" y="780" type="curve"/>
      <point x="313" y="1366" type="line"/>
      <point x="1027" y="1366" type="line"/>
      <point x="1027" y="1446" type="line"/>
      <point x="229" y="1446" type="line"/>
      <point x="165" y="676" type="line"/>
      <point x="264" y="676" type="line" smooth="yes"/>
      <point x="264" y="676"/>
      <point x="264" y="676"/>
      <point x="264" y="676" type="curve" smooth="yes"/>
      <point x="384" y="840"/>
      <point x="495" y="864"/>
      <point x="642" y="864" type="curve" smooth="yes"/>
      <point x="837" y="864"/>
      <point x="1019" y="718"/>
      <point x="1019" y="472" type="curve" smooth="yes"/>
      <point x="1019" y="208"/>
      <point x="861" y="56"/>
      <point x="623" y="56" type="curve" smooth="yes"/>
      <point x="415" y="56"/>
      <point x="258" y="186"/>
      <point x="197" y="380" type="curve"/>
      <point x="105" y="380" type="line"/>
      <point x="163" y="140"/>
      <point x="369" y="-22"/>
    </contour>
  </outline>
</glyph>
<glyph name="six" format="2">
  <advance width="1170"/>
  <unicode hex="0036"/>
  <outline>
    <contour>
      <point x="609" y="-22" type="curve" smooth="yes"/>
      <point x="899" y="-22"/>
      <point x="1065" y="176"/>
      <point x="1065" y="472" type="curve" smooth="yes"/>
      <point x="1065" y="772"/>
      <point x="879" y="944"/>
      <point x="602" y="944" type="curve" smooth="yes"/>
      <point x="397" y="944"/>
      <point x="229" y="804"/>
      <point x="187" y="606" type="curve"/>
      <point x="167" y="1136"/>
      <point x="325" y="1388"/>
      <point x="629" y="1388" type="curve" smooth="yes"/>
      <point x="807" y="1388"/>
      <point x="934" y="1282"/>
      <point x="976" y="1130" type="curve"/>
      <point x="1057" y="1130" type="line"/>
      <point x="1009" y="1342"/>
      <point x="837" y="1466"/>
      <point x="629" y="1466" type="curve" smooth="yes"/>
      <point x="277" y="1466"/>
      <point x="105" y="1160"/>
      <point x="105" y="706" type="curve" smooth="yes"/>
      <point x="105" y="240"/>
      <point x="307" y="-22"/>
    </contour>
    <contour>
      <point x="615" y="60" type="curve" smooth="yes"/>
      <point x="381" y="60"/>
      <point x="227" y="256"/>
      <point x="231" y="506" type="curve"/>
      <point x="231" y="710"/>
      <point x="415" y="862"/>
      <point x="611" y="862" type="curve" smooth="yes"/>
      <point x="863" y="862"/>
      <point x="976" y="704"/>
      <point x="976" y="468" type="curve" smooth="yes"/>
      <point x="976" y="224"/>
      <point x="831" y="60"/>
    </contour>
  </outline>
</glyph>
<glyph name="seven" format="2">
  <advance width="1150"/>
  <unicode hex="0037"/>
  <outline>
    <contour>
      <point x="358" y="0" type="curve"/>
      <point x="446" y="0" type="line"/>
      <point x="502" y="274"/>
      <point x="764" y="946"/>
      <point x="1050" y="1366" type="curve"/>
      <point x="1050" y="1446" type="line"/>
      <point x="100" y="1446" type="line"/>
      <point x="100" y="1366" type="line"/>
      <point x="948" y="1366" type="line"/>
      <point x="632" y="872"/>
      <point x="424" y="294"/>
    </contour>
  </outline>
</glyph>
<glyph name="eight" format="2">
  <advance width="1249"/>
  <unicode hex="0038"/>
  <outline>
    <contour>
      <point x="623" y="-22" type="curve" smooth="yes"/>
      <point x="941" y="-22"/>
      <point x="1144" y="140"/>
      <point x="1144" y="382" type="curve" smooth="yes"/>
      <point x="1144" y="552"/>
      <point x="993" y="726"/>
      <point x="835" y="754" type="curve"/>
      <point x="983" y="810"/>
      <point x="1077" y="918"/>
      <point x="1077" y="1084" type="curve" smooth="yes"/>
      <point x="1077" y="1326"/>
      <point x="882" y="1466"/>
      <point x="623" y="1466" type="curve" smooth="yes"/>
      <point x="367" y="1466"/>
      <point x="169" y="1326"/>
      <point x="169" y="1084" type="curve" smooth="yes"/>
      <point x="169" y="918"/>
      <point x="266" y="810"/>
      <point x="413" y="754" type="curve"/>
      <point x="255" y="726"/>
      <point x="105" y="552"/>
      <point x="105" y="382" type="curve" smooth="yes"/>
      <point x="105" y="140"/>
      <point x="308" y="-22"/>
    </contour>
    <contour>
      <point x="623" y="56" type="curve" smooth="yes"/>
      <point x="365" y="56"/>
      <point x="193" y="182"/>
      <point x="193" y="376" type="curve" smooth="yes"/>
      <point x="193" y="568"/>
      <point x="365" y="708"/>
      <point x="623" y="708" type="curve" smooth="yes"/>
      <point x="884" y="708"/>
      <point x="1056" y="568"/>
      <point x="1056" y="376" type="curve" smooth="yes"/>
      <point x="1056" y="182"/>
      <point x="884" y="56"/>
    </contour>
    <contour>
      <point x="623" y="798" type="curve" smooth="yes"/>
      <point x="405" y="798"/>
      <point x="258" y="904"/>
      <point x="258" y="1088" type="curve" smooth="yes"/>
      <point x="258" y="1270"/>
      <point x="405" y="1386"/>
      <point x="623" y="1386" type="curve" smooth="yes"/>
      <point x="842" y="1386"/>
      <point x="989" y="1272"/>
      <point x="989" y="1088" type="curve" smooth="yes"/>
      <point x="989" y="904"/>
      <point x="844" y="798"/>
    </contour>
  </outline>
</glyph>
<glyph name="nine" format="2">
  <advance width="1180"/>
  <unicode hex="0039"/>
  <outline>
    <contour>
      <point x="543" y="-22" type="curve" smooth="yes"/>
      <point x="895" y="-22"/>
      <point x="1075" y="282"/>
      <point x="1075" y="736" type="curve" smooth="yes"/>
      <point x="1075" y="1202"/>
      <point x="875" y="1466"/>
      <point x="573" y="1466" type="curve" smooth="yes"/>
      <point x="283" y="1466"/>
      <point x="119" y="1266"/>
      <point x="119" y="970" type="curve" smooth="yes"/>
      <point x="119" y="670"/>
      <point x="303" y="498"/>
      <point x="581" y="498" type="curve" smooth="yes"/>
      <point x="785" y="498"/>
      <point x="953" y="638"/>
      <point x="995" y="836" type="curve"/>
      <point x="1015" y="306"/>
      <point x="847" y="56"/>
      <point x="543" y="56" type="curve" smooth="yes"/>
      <point x="365" y="56"/>
      <point x="229" y="158"/>
      <point x="187" y="310" type="curve"/>
      <point x="105" y="310" type="line"/>
      <point x="153" y="98"/>
      <point x="335" y="-22"/>
    </contour>
    <contour>
      <point x="571" y="580" type="curve" smooth="yes"/>
      <point x="319" y="580"/>
      <point x="207" y="738"/>
      <point x="207" y="974" type="curve" smooth="yes"/>
      <point x="207" y="1218"/>
      <point x="352" y="1384"/>
      <point x="567" y="1384" type="curve" smooth="yes"/>
      <point x="801" y="1384"/>
      <point x="955" y="1186"/>
      <point x="951" y="936" type="curve"/>
      <point x="951" y="732"/>
      <point x="768" y="580"/>
    </contour>
  </outline>
</glyph>
<glyph name="colon" format="2">
  <advance width="362"/>
  <unicode hex="003A"/>
  <outline>
    <contour>
      <point x="242" y="976" type="line"/>
      <point x="120" y="976" type="line"/>
      <point x="120" y="820" type="line"/>
      <point x="242" y="820" type="line"/>
    </contour>
    <contour>
      <point x="242" y="160" type="line"/>
      <point x="120" y="160" type="line"/>
      <point x="120" y="6" type="line"/>
      <point x="242" y="6" type="line"/>
    </contour>
  </outline>
</glyph>
<glyph name="semicolon" format="2">
  <advance width="404"/>
  <unicode hex="003B"/>
  <outline>
    <contour>
      <point x="120" y="-262" type="line"/>
      <point x="162" y="-262" type="line"/>
      <point x="284" y="18" type="line"/>
      <point x="284" y="154" type="line"/>
      <point x="162" y="154" type="line"/>
      <point x="162" y="0" type="line"/>
      <point x="218" y="0" type="line"/>
    </contour>
    <contour>
      <point x="152" y="820" type="line"/>
      <point x="274" y="820" type="line"/>
      <point x="274" y="976" type="line"/>
      <point x="152" y="976" type="line"/>
    </contour>
  </outline>
</glyph>
<glyph name="less" format="2">
  <advance width="1028"/>
  <unicode hex="003C"/>
  <outline>
    <contour>
      <point x="896" y="348" type="line"/>
      <point x="896" y="438" type="line"/>
      <point x="250" y="698" type="line"/>
      <point x="898" y="956" type="line"/>
      <point x="898" y="1054" type="line"/>
      <point x="130" y="744" type="line"/>
      <point x="130" y="650" type="line"/>
    </contour>
  </outline>
</glyph>
<glyph name="equal" format="2">
  <advance width="1042"/>
  <unicode hex="003D"/>
  <outline>
    <contour>
      <point x="130" y="884" type="line"/>
      <point x="912" y="886" type="line"/>
      <point x="912" y="960" type="line"/>
      <point x="130" y="958" type="line"/>
    </contour>
    <contour>
      <point x="130" y="454" type="line"/>
      <point x="912" y="456" type="line"/>
      <point x="912" y="530" type="line"/>
      <point x="130" y="528" type="line"/>
    </contour>
  </outline>
</glyph>
<glyph name="greater" format="2">
  <advance width="1026"/>
  <unicode hex="003E"/>
  <outline>
    <contour>
      <point x="132" y="348" type="line"/>
      <point x="896" y="650" type="line"/>
      <point x="896" y="744" type="line"/>
      <point x="130" y="1054" type="line"/>
      <point x="130" y="956" type="line"/>
      <point x="778" y="698" type="line"/>
      <point x="132" y="438" type="line"/>
    </contour>
  </outline>
</glyph>
<glyph name="question" format="2">
  <advance width="1014"/>
  <unicode hex="003F"/>
  <outline>
    <contour>
      <point x="430" y="292" type="curve"/>
      <point x="512" y="292" type="line"/>
      <point x="512" y="656"/>
      <point x="924" y="760"/>
      <point x="924" y="1112" type="curve" smooth="yes"/>
      <point x="924" y="1328"/>
      <point x="764" y="1466"/>
      <point x="512" y="1466" type="curve" smooth="yes"/>
      <point x="326" y="1466"/>
      <point x="154" y="1368"/>
      <point x="70" y="1216" type="curve"/>
      <point x="152" y="1178" type="line"/>
      <point x="196" y="1288"/>
      <point x="360" y="1384"/>
      <point x="512" y="1384" type="curve" smooth="yes"/>
      <point x="708" y="1384"/>
      <point x="834" y="1280"/>
      <point x="834" y="1112" type="curve" smooth="yes"/>
      <point x="834" y="788"/>
      <point x="430" y="682"/>
    </contour>
    <contour>
      <point x="412" y="0" type="line"/>
      <point x="532" y="0" type="line"/>
      <point x="532" y="154" type="line"/>
      <point x="412" y="154" type="line"/>
    </contour>
  </outline>
</glyph>
<glyph name="at" format="2">
  <advance width="1670"/>
  <unicode hex="0040"/>
  <outline>
    <contour>
      <point x="858" y="-220" type="curve" smooth="yes"/>
      <point x="1022" y="-220"/>
      <point x="1173" y="-166"/>
      <point x="1303" y="-70" type="curve"/>
      <point x="1250" y="-2" type="line"/>
      <point x="1146" y="-74"/>
      <point x="1060" y="-134"/>
      <point x="883" y="-134" type="curve" smooth="yes"/>
      <point x="429" y="-134"/>
      <point x="204" y="168"/>
      <point x="204" y="504" type="curve" smooth="yes"/>
      <point x="204" y="886"/>
      <point x="467" y="1206"/>
      <point x="881" y="1206" type="curve" smooth="yes"/>
      <point x="1150" y="1206"/>
      <point x="1463" y="1046"/>
      <point x="1463" y="652" type="curve" smooth="yes"/>
      <point x="1463" y="406"/>
      <point x="1341" y="242"/>
      <point x="1190" y="242" type="curve" smooth="yes"/>
      <point x="1110" y="242"/>
      <point x="1078" y="286"/>
      <point x="1100" y="418" type="curve" smooth="yes"/>
      <point x="1177" y="876" type="line"/>
      <point x="1095" y="876" type="line"/>
      <point x="1072" y="792" type="line" smooth="yes"/>
      <point x="1070" y="782"/>
      <point x="1062" y="782"/>
      <point x="1060" y="786" type="curve" smooth="yes"/>
      <point x="1016" y="872"/>
      <point x="932" y="926"/>
      <point x="826" y="926" type="curve" smooth="yes"/>
      <point x="616" y="926"/>
      <point x="461" y="728"/>
      <point x="461" y="474" type="curve" smooth="yes"/>
      <point x="461" y="266"/>
      <point x="587" y="130"/>
      <point x="722" y="130" type="curve" smooth="yes"/>
      <point x="858" y="130"/>
      <point x="942" y="192"/>
      <point x="1000" y="274" type="curve" smooth="yes"/>
      <point x="1013" y="288"/>
      <point x="1018" y="288"/>
      <point x="1022" y="270" type="curve" smooth="yes"/>
      <point x="1040" y="184"/>
      <point x="1095" y="158"/>
      <point x="1188" y="158" type="curve" smooth="yes"/>
      <point x="1396" y="158"/>
      <point x="1560" y="364"/>
      <point x="1560" y="664" type="curve" smooth="yes"/>
      <point x="1560" y="1100"/>
      <point x="1211" y="1288"/>
      <point x="883" y="1288" type="curve" smooth="yes"/>
      <point x="427" y="1288"/>
      <point x="110" y="930"/>
      <point x="110" y="508" type="curve" smooth="yes"/>
      <point x="110" y="108"/>
      <point x="389" y="-220"/>
    </contour>
    <contour>
      <point x="732" y="216" type="curve" smooth="yes"/>
      <point x="624" y="216"/>
      <point x="558" y="312"/>
      <point x="558" y="476" type="curve" smooth="yes"/>
      <point x="558" y="676"/>
      <point x="664" y="840"/>
      <point x="830" y="840" type="curve" smooth="yes"/>
      <point x="942" y="840"/>
      <point x="1058" y="742"/>
      <point x="1024" y="518" type="curve" smooth="yes"/>
      <point x="996" y="352"/>
      <point x="872" y="216"/>
    </contour>
  </outline>
</glyph>
<glyph name="A" format="2">
  <advance width="1388"/>
  <unicode hex="0041"/>
  <anchor x="694" y="0" name="bottom"/>
  <anchor x="1274" y="24" name="ogonek"/>
  <anchor x="694" y="1446" name="top"/>
  <outline>
    <contour>
      <point x="110" y="0" type="line"/>
      <point x="194" y="0" type="line"/>
      <point x="361" y="456" type="line"/>
      <point x="1025" y="456" type="line"/>
      <point x="1192" y="0" type="line"/>
      <point x="1278" y="0" type="line"/>
      <point x="750" y="1446" type="line"/>
      <point x="639" y="1446" type="line"/>
    </contour>
    <contour>
      <point x="392" y="542" type="line"/>
      <point x="693" y="1365" type="line"/>
      <point x="994" y="542" type="line"/>
    </contour>
  </outline>
</glyph>
<glyph name="B" format="2">
  <advance width="1312"/>
  <unicode hex="0042"/>
  <outline>
    <contour>
      <point x="220" y="0" type="line"/>
      <point x="632" y="0" type="line"/>
      <point x="974" y="0"/>
      <point x="1174" y="128"/>
      <point x="1174" y="386" type="curve"/>
      <point x="1174" y="578"/>
      <point x="1066" y="698"/>
      <point x="852" y="734" type="curve"/>
      <point x="1060" y="794"/>
      <point x="1138" y="908"/>
      <point x="1138" y="1072" type="curve" smooth="yes"/>
      <point x="1138" y="1314"/>
      <point x="950" y="1446"/>
      <point x="626" y="1446" type="curve" smooth="yes"/>
      <point x="220" y="1446" type="line"/>
    </contour>
    <contour>
      <point x="298" y="82" type="line"/>
      <point x="298" y="690" type="line"/>
      <point x="650" y="690" type="line" smooth="yes"/>
      <point x="894" y="690"/>
      <point x="1096" y="608"/>
      <point x="1096" y="374" type="curve" smooth="yes"/>
      <point x="1096" y="162"/>
      <point x="930" y="82"/>
      <point x="622" y="82" type="curve"/>
    </contour>
    <contour>
      <point x="298" y="772" type="line"/>
      <point x="298" y="1366" type="line"/>
      <point x="618" y="1366" type="line" smooth="yes"/>
      <point x="882" y="1366"/>
      <point x="1060" y="1274"/>
      <point x="1060" y="1062" type="curve" smooth="yes"/>
      <point x="1060" y="824"/>
      <point x="830" y="772"/>
      <point x="650" y="772" type="curve" smooth="yes"/>
    </contour>
  </outline>
</glyph>
<glyph name="C" format="2">
  <advance width="1318"/>
  <unicode hex="0043"/>
  <anchor x="700" y="0" name="bottom"/>
  <anchor x="686" y="1446" name="top"/>
  <outline>
    <contour>
      <point x="694" y="-20" type="curve" smooth="yes"/>
      <point x="979" y="-20"/>
      <point x="1173" y="191"/>
      <point x="1198" y="411" type="curve"/>
      <point x="1110" y="411" type="line"/>
      <point x="1072" y="223"/>
      <point x="934" y="62"/>
      <point x="694" y="62" type="curve" smooth="yes"/>
      <point x="369" y="62"/>
      <point x="208" y="276"/>
      <point x="208" y="720" type="curve" smooth="yes"/>
      <point x="208" y="1164"/>
      <point x="369" y="1384"/>
      <point x="694" y="1384" type="curve" smooth="yes"/>
      <point x="934" y="1384"/>
      <point x="1072" y="1222"/>
      <point x="1110" y="1034" type="curve"/>
      <point x="1198" y="1034" type="line"/>
      <point x="1174" y="1256"/>
      <point x="979" y="1466"/>
      <point x="694" y="1466" type="curve" smooth="yes"/>
      <point x="319" y="1466"/>
      <point x="120" y="1208"/>
      <point x="120" y="720" type="curve" smooth="yes"/>
      <point x="120" y="232"/>
      <point x="319" y="-20"/>
    </contour>
  </outline>
</glyph>
<glyph name="D" format="2">
  <advance width="1334"/>
  <unicode hex="0044"/>
  <anchor x="714" y="0" name="bottom"/>
  <anchor x="662" y="724" name="center"/>
  <anchor x="650" y="1446" name="top"/>
  <outline>
    <contour>
      <point x="220" y="0" type="line"/>
      <point x="432" y="0" type="line" smooth="yes"/>
      <point x="964" y="0"/>
      <point x="1214" y="224"/>
      <point x="1214" y="734" type="curve" smooth="yes"/>
      <point x="1214" y="1216"/>
      <point x="996" y="1442"/>
      <point x="460" y="1444" type="curve" smooth="yes"/>
      <point x="340" y="1444"/>
      <point x="224" y="1446"/>
      <point x="220" y="1446" type="curve"/>
    </contour>
    <contour>
      <point x="306" y="82" type="line"/>
      <point x="306" y="1364" type="line"/>
      <point x="438" y="1364" type="line" smooth="yes"/>
      <point x="880" y="1364"/>
      <point x="1130" y="1224"/>
      <point x="1130" y="726" type="curve" smooth="yes"/>
      <point x="1130" y="254"/>
      <point x="894" y="82"/>
      <point x="426" y="82" type="curve" smooth="yes"/>
    </contour>
  </outline>
</glyph>
<glyph name="E" format="2">
  <advance width="1213"/>
  <unicode hex="0045"/>
  <anchor x="694" y="0" name="bottom"/>
  <anchor x="1068" y="20" name="ogonek"/>
  <anchor x="640" y="1446" name="top"/>
  <outline>
    <contour>
      <point x="220" y="0" type="line"/>
      <point x="1078" y="0" type="line"/>
      <point x="1078" y="82" type="line"/>
      <point x="298" y="84" type="line"/>
      <point x="298" y="690" type="line"/>
      <point x="998" y="690" type="line"/>
      <point x="998" y="772" type="line"/>
      <point x="298" y="772" type="line"/>
      <point x="298" y="1366" type="line"/>
      <point x="1050" y="1366" type="line"/>
      <point x="1050" y="1446" type="line"/>
      <point x="220" y="1446" type="line"/>
    </contour>
  </outline>
</glyph>
<glyph name="F" format="2">
  <advance width="1148"/>
  <unicode hex="0046"/>
  <outline>
    <contour>
      <point x="220" y="0" type="line"/>
      <point x="306" y="0" type="line"/>
      <point x="306" y="692" type="line"/>
      <point x="986" y="692" type="line"/>
      <point x="986" y="774" type="line"/>
      <point x="306" y="774" type="line"/>
      <point x="306" y="1366" type="line"/>
      <point x="1038" y="1366" type="line"/>
      <point x="1038" y="1446" type="line"/>
      <point x="220" y="1446" type="line"/>
    </contour>
  </outline>
</glyph>
<glyph name="G" format="2">
  <advance width="1414"/>
  <unicode hex="0047"/>
  <anchor x="696" y="0" name="bottom"/>
  <anchor x="698" y="1446" name="top"/>
  <outline>
    <contour>
      <point x="697" y="-20" type="curve" smooth="yes"/>
      <point x="920" y="-20"/>
      <point x="1068" y="100"/>
      <point x="1146" y="252" type="curve"/>
      <point x="1146" y="0" type="line"/>
      <point x="1224" y="0" type="line"/>
      <point x="1224" y="736" type="line"/>
      <point x="742" y="736" type="line"/>
      <point x="742" y="666" type="line"/>
      <point x="1146" y="666" type="line"/>
      <point x="1146" y="498" type="line" smooth="yes"/>
      <point x="1146" y="314"/>
      <point x="1006" y="58"/>
      <point x="697" y="58" type="curve" smooth="yes"/>
      <point x="392" y="58"/>
      <point x="202" y="276"/>
      <point x="202" y="720" type="curve" smooth="yes"/>
      <point x="202" y="1164"/>
      <point x="392" y="1384"/>
      <point x="697" y="1384" type="curve" smooth="yes"/>
      <point x="906" y="1384"/>
      <point x="1076" y="1216"/>
      <point x="1106" y="1034" type="curve"/>
      <point x="1194" y="1034" type="line"/>
      <point x="1172" y="1262"/>
      <point x="938" y="1466"/>
      <point x="697" y="1466" type="curve" smooth="yes"/>
      <point x="332" y="1466"/>
      <point x="120" y="1202"/>
      <point x="120" y="720" type="curve" smooth="yes"/>
      <point x="120" y="234"/>
      <point x="332" y="-20"/>
    </contour>
  </outline>
</glyph>
<glyph name="H" format="2">
  <advance width="1524"/>
  <unicode hex="0048"/>
  <anchor x="785" y="0" name="bottom"/>
  <anchor x="757" y="1458" name="top"/>
  <outline>
    <contour>
      <point x="1226" y="712" type="line"/>
      <point x="1226" y="0" type="line"/>
      <point x="1304" y="0" type="line"/>
      <point x="1304" y="1446" type="line"/>
      <point x="1226" y="1446" type="line"/>
      <point x="1226" y="794" type="line"/>
      <point x="298" y="794" type="line"/>
      <point x="298" y="1446" type="line"/>
      <point x="220" y="1446" type="line"/>
      <point x="220" y="0" type="line"/>
      <point x="298" y="0" type="line"/>
      <point x="298" y="712" type="line"/>
    </contour>
  </outline>
</glyph>
<glyph name="I" format="2">
  <advance width="518"/>
  <unicode hex="0049"/>
  <anchor x="262" y="0" name="bottom"/>
  <anchor x="288" y="20" name="ogonek"/>
  <anchor x="260" y="1446" name="top"/>
  <outline>
    <contour>
      <point x="220" y="0" type="line"/>
      <point x="298" y="0" type="line"/>
      <point x="298" y="1446" type="line"/>
      <point x="220" y="1446" type="line"/>
    </contour>
  </outline>
</glyph>
<glyph name="J" format="2">
  <advance width="750"/>
  <unicode hex="004A"/>
  <anchor x="534" y="1446" name="top"/>
  <outline>
    <contour>
      <point x="330" y="-20" type="curve" smooth="yes"/>
      <point x="518" y="-20"/>
      <point x="574" y="96"/>
      <point x="574" y="280" type="curve" smooth="yes"/>
      <point x="574" y="1446" type="line"/>
      <point x="496" y="1446" type="line"/>
      <point x="496" y="308" type="line" smooth="yes"/>
      <point x="496" y="126"/>
      <point x="452" y="62"/>
      <point x="326" y="62" type="curve" smooth="yes"/>
      <point x="224" y="62"/>
      <point x="174" y="104"/>
      <point x="130" y="124" type="curve"/>
      <point x="110" y="38" type="line"/>
      <point x="124" y="26"/>
      <point x="216" y="-20"/>
    </contour>
  </outline>
</glyph>
<glyph name="K" format="2">
  <advance width="1295"/>
  <unicode hex="004B"/>
  <anchor x="664" y="0" name="bottom"/>
  <anchor x="698" y="1446" name="top"/>
  <outline>
    <contour>
      <point x="220" y="0" type="line"/>
      <point x="302" y="0" type="line"/>
      <point x="302" y="497" type="line"/>
      <point x="590" y="812" type="line"/>
      <point x="1108" y="0" type="line"/>
      <point x="1207" y="0" type="line"/>
      <point x="649" y="869" type="line"/>
      <point x="1178" y="1446" type="line"/>
      <point x="1070" y="1446" type="line"/>
      <point x="302" y="612" type="line"/>
      <point x="302" y="1446" type="line"/>
      <point x="220" y="1446" type="line"/>
    </contour>
  </outline>
</glyph>
<glyph name="L" format="2">
  <advance width="1154"/>
  <unicode hex="004C"/>
  <anchor x="620" y="0" name="bottom"/>
  <anchor x="630" y="1446" name="caron"/>
  <anchor x="266" y="1446" name="top"/>
  <outline>
    <contour>
      <point x="220" y="0" type="line"/>
      <point x="1044" y="0" type="line"/>
      <point x="1044" y="86" type="line"/>
      <point x="306" y="86" type="line"/>
      <point x="306" y="1446" type="line"/>
      <point x="222" y="1446" type="line"/>
    </contour>
  </outline>
</glyph>
<glyph name="M" format="2">
  <advance width="1706"/>
  <unicode hex="004D"/>
  <outline>
    <contour>
      <point x="220" y="0" type="line"/>
      <point x="306" y="0" type="line"/>
      <point x="306" y="1216" type="line"/>
      <point x="792" y="0" type="line"/>
      <point x="908" y="0" type="line"/>
      <point x="1400" y="1232" type="line"/>
      <point x="1400" y="0" type="line"/>
      <point x="1486" y="0" type="line"/>
      <point x="1486" y="1446" type="line"/>
      <point x="1400" y="1446" type="line"/>
      <point x="850" y="88" type="line"/>
      <point x="308" y="1446" type="line"/>
      <point x="220" y="1446" type="line"/>
    </contour>
  </outline>
</glyph>
<glyph name="N" format="2">
  <advance width="1452"/>
  <unicode hex="004E"/>
  <anchor x="678" y="0" name="bottom"/>
  <anchor x="726" y="1446" name="top"/>
  <outline>
    <contour>
      <point x="220" y="0" type="line"/>
      <point x="298" y="0" type="line"/>
      <point x="298" y="1286" type="line"/>
      <point x="1164" y="0" type="line"/>
      <point x="1232" y="0" type="line"/>
      <point x="1232" y="1446" type="line"/>
      <point x="1154" y="1446" type="line"/>
      <point x="1154" y="156" type="line"/>
      <point x="284" y="1446" type="line"/>
      <point x="220" y="1446" type="line"/>
    </contour>
  </outline>
</glyph>
<glyph name="O" format="2">
  <advance width="1414"/>
  <unicode hex="004F"/>
  <guideline x="-455" y="400" angle="90"/>
  <guideline x="388" y="593" angle="90"/>
  <anchor x="712" y="0" name="bottom"/>
  <anchor x="1088" y="1212" name="horn"/>
  <anchor x="848" y="18" name="ogonek"/>
  <anchor x="712" y="1446" name="top"/>
  <outline>
    <contour>
      <point x="710" y="-20" type="curve" smooth="yes"/>
      <point x="1074" y="-20"/>
      <point x="1294" y="239"/>
      <point x="1294" y="720" type="curve" smooth="yes"/>
      <point x="1294" y="1207"/>
      <point x="1074" y="1466"/>
      <point x="710" y="1466" type="curve" smooth="yes"/>
      <point x="345" y="1466"/>
      <point x="120" y="1205"/>
      <point x="120" y="720" type="curve" smooth="yes"/>
      <point x="120" y="237"/>
      <point x="345" y="-20"/>
    </contour>
    <contour>
      <point x="710" y="62" type="curve" smooth="yes"/>
      <point x="390" y="62"/>
      <point x="208" y="276"/>
      <point x="208" y="720" type="curve" smooth="yes"/>
      <point x="208" y="1164"/>
      <point x="390" y="1384"/>
      <point x="710" y="1384" type="curve" smooth="yes"/>
      <point x="1030" y="1384"/>
      <point x="1206" y="1167"/>
      <point x="1206" y="720" type="curve" smooth="yes"/>
      <point x="1206" y="277"/>
      <point x="1034" y="62"/>
    </contour>
  </outline>
</glyph>
<glyph name="P" format="2">
  <advance width="1241"/>
  <unicode hex="0050"/>
  <outline>
    <contour>
      <point x="220" y="0" type="line"/>
      <point x="306" y="0" type="line"/>
      <point x="306" y="554" type="line"/>
      <point x="678" y="554" type="line" smooth="yes"/>
      <point x="974" y="554"/>
      <point x="1186" y="716"/>
      <point x="1186" y="1006" type="curve" smooth="yes"/>
      <point x="1186" y="1296"/>
      <point x="970" y="1446"/>
      <point x="666" y="1446" type="curve" smooth="yes"/>
      <point x="220" y="1446" type="line"/>
    </contour>
    <contour>
      <point x="306" y="640" type="line"/>
      <point x="306" y="1362" type="line"/>
      <point x="664" y="1362" type="line" smooth="yes"/>
      <point x="928" y="1362"/>
      <point x="1098" y="1252"/>
      <point x="1098" y="1012" type="curve" smooth="yes"/>
      <point x="1098" y="772"/>
      <point x="928" y="640"/>
      <point x="678" y="640" type="curve" smooth="yes"/>
    </contour>
  </outline>
</glyph>
<glyph name="Q" format="2">
  <advance width="1444"/>
  <unicode hex="0051"/>
  <outline>
    <contour>
      <point x="1276" y="-238" type="curve"/>
      <point x="1276" y="-158" type="line"/>
      <point x="1148" y="-152"/>
      <point x="1036" y="-100"/>
      <point x="971" y="36" type="curve"/>
      <point x="1204" y="158"/>
      <point x="1294" y="388"/>
      <point x="1294" y="720" type="curve" smooth="yes"/>
      <point x="1294" y="1210"/>
      <point x="1074" y="1466"/>
      <point x="708" y="1466" type="curve" smooth="yes"/>
      <point x="342" y="1466"/>
      <point x="120" y="1210"/>
      <point x="120" y="720" type="curve" smooth="yes"/>
      <point x="120" y="226"/>
      <point x="350" y="-20"/>
      <point x="708" y="-20" type="curve" smooth="yes"/>
      <point x="764" y="-20"/>
      <point x="820" y="-12"/>
      <point x="884" y="2" type="curve"/>
      <point x="986" y="-196"/>
      <point x="1181" y="-238"/>
    </contour>
    <contour>
      <point x="708" y="62" type="curve" smooth="yes"/>
      <point x="389" y="62"/>
      <point x="208" y="274"/>
      <point x="208" y="716" type="curve" smooth="yes"/>
      <point x="208" y="1154"/>
      <point x="382" y="1384"/>
      <point x="708" y="1384" type="curve" smooth="yes"/>
      <point x="1034" y="1384"/>
      <point x="1208" y="1154"/>
      <point x="1208" y="720" type="curve" smooth="yes"/>
      <point x="1208" y="274"/>
      <point x="1028" y="62"/>
    </contour>
  </outline>
</glyph>
<glyph name="R" format="2">
  <advance width="1314"/>
  <unicode hex="0052"/>
  <anchor x="652" y="0" name="bottom"/>
  <anchor x="638" y="1446" name="top"/>
  <outline>
    <contour>
      <point x="220" y="0" type="line"/>
      <point x="298" y="0" type="line"/>
      <point x="298" y="688" type="line"/>
      <point x="784" y="688" type="line"/>
      <point x="1076" y="0" type="line"/>
      <point x="1166" y="0" type="line"/>
      <point x="866" y="706" type="line"/>
      <point x="1006" y="742"/>
      <point x="1174" y="846"/>
      <point x="1174" y="1088" type="curve" smooth="yes"/>
      <point x="1174" y="1326"/>
      <point x="1010" y="1446"/>
      <point x="730" y="1446" type="curve" smooth="yes"/>
      <point x="220" y="1446" type="line"/>
    </contour>
    <contour>
      <point x="298" y="770" type="line"/>
      <point x="298" y="1366" type="line"/>
      <point x="728" y="1366" type="line" smooth="yes"/>
      <point x="964" y="1366"/>
      <point x="1090" y="1280"/>
      <point x="1090" y="1074" type="curve" smooth="yes"/>
      <point x="1090" y="856"/>
      <point x="940" y="770"/>
      <point x="662" y="770" type="curve" smooth="yes"/>
    </contour>
  </outline>
</glyph>
<glyph name="S" format="2">
  <advance width="1296"/>
  <unicode hex="0053"/>
  <anchor x="625" y="0" name="bottom"/>
  <anchor x="638" y="1446" name="top"/>
  <outline>
    <contour>
      <point x="657" y="-20" type="curve" smooth="yes"/>
      <point x="966" y="-20"/>
      <point x="1152" y="150"/>
      <point x="1152" y="369" type="curve" smooth="yes"/>
      <point x="1152" y="514"/>
      <point x="1082" y="655"/>
      <point x="849" y="722" type="curve" smooth="yes"/>
      <point x="519" y="817" type="line" smooth="yes"/>
      <point x="357" y="864"/>
      <point x="261" y="936"/>
      <point x="261" y="1086" type="curve" smooth="yes"/>
      <point x="261" y="1254"/>
      <point x="398" y="1386"/>
      <point x="638" y="1386" type="curve" smooth="yes"/>
      <point x="829" y="1386"/>
      <point x="1014" y="1307"/>
      <point x="1037" y="1064" type="curve"/>
      <point x="1125" y="1064" type="line"/>
      <point x="1126" y="1258"/>
      <point x="962" y="1464"/>
      <point x="641" y="1464" type="curve" smooth="yes"/>
      <point x="375" y="1464"/>
      <point x="177" y="1306"/>
      <point x="177" y="1086" type="curve" smooth="yes"/>
      <point x="177" y="876"/>
      <point x="311" y="789"/>
      <point x="486" y="738" type="curve" smooth="yes"/>
      <point x="810" y="644" type="line" smooth="yes"/>
      <point x="998" y="589"/>
      <point x="1068" y="500"/>
      <point x="1068" y="369" type="curve" smooth="yes"/>
      <point x="1068" y="180"/>
      <point x="889" y="58"/>
      <point x="657" y="58" type="curve" smooth="yes"/>
      <point x="450" y="58"/>
      <point x="263" y="158"/>
      <point x="220" y="354" type="curve"/>
      <point x="132" y="354" type="line"/>
      <point x="175" y="112"/>
      <point x="386" y="-20"/>
    </contour>
  </outline>
</glyph>
<glyph name="T" format="2">
  <advance width="1141"/>
  <unicode hex="0054"/>
  <anchor x="593" y="4" name="bottom"/>
  <anchor x="593" y="1446" name="top"/>
  <outline>
    <contour>
      <point x="551" y="0" type="line"/>
      <point x="630" y="0" type="line"/>
      <point x="630" y="1366" type="line"/>
      <point x="1086" y="1366" type="line"/>
      <point x="1086" y="1446" type="line"/>
      <point x="55" y="1446" type="line"/>
      <point x="55" y="1366" type="line"/>
      <point x="551" y="1366" type="line"/>
    </contour>
  </outline>
</glyph>
<glyph name="V" format="2">
  <advance width="1282"/>
  <unicode hex="0056"/>
  <outline>
    <contour>
      <point x="583" y="0" type="line"/>
      <point x="699" y="0" type="line"/>
      <point x="1227" y="1446" type="line"/>
      <point x="1141" y="1446" type="line"/>
      <point x="641" y="81" type="line"/>
      <point x="141" y="1446" type="line"/>
      <point x="55" y="1446" type="line"/>
    </contour>
  </outline>
</glyph>
<glyph name="W" format="2">
  <advance width="1877"/>
  <unicode hex="0057"/>
  <anchor x="936" y="1446" name="top"/>
  <outline>
    <contour>
      <point x="461" y="0" type="line"/>
      <point x="564" y="0" type="line"/>
      <point x="934" y="1296" type="line"/>
      <point x="1297" y="0" type="line"/>
      <point x="1406" y="0" type="line"/>
      <point x="1822" y="1446" type="line"/>
      <point x="1736" y="1446" type="line"/>
      <point x="1352" y="98" type="line"/>
      <point x="975" y="1446" type="line"/>
      <point x="896" y="1446" type="line"/>
      <point x="513" y="98" type="line"/>
      <point x="142" y="1446" type="line"/>
      <point x="55" y="1446" type="line"/>
    </contour>
  </outline>
</glyph>
<glyph name="X" format="2">
  <advance width="1319"/>
  <unicode hex="0058"/>
  <guideline x="166" y="405" angle="90"/>
  <guideline x="616" y="345" angle="90"/>
  <guideline x="-31" y="1446" angle="0"/>
  <guideline x="131" y="29" angle="0"/>
  <guideline x="192" y="421" angle="0"/>
  <guideline x="286" y="619" angle="0"/>
  <guideline x="206" y="0" angle="236.0258"/>
  <guideline x="1115" y="0" angle="124.2389"/>
  <guideline x="361" y="371" angle="236.0258"/>
  <outline>
    <contour>
      <point x="1209" y="0" type="line"/>
      <point x="704" y="742" type="line"/>
      <point x="1181" y="1446" type="line"/>
      <point x="1085" y="1446" type="line"/>
      <point x="657" y="811" type="line"/>
      <point x="226" y="1446" type="line"/>
      <point x="131" y="1446" type="line"/>
      <point x="610" y="742" type="line"/>
      <point x="110" y="0" type="line"/>
      <point x="205" y="0" type="line"/>
      <point x="657" y="671" type="line"/>
      <point x="1114" y="0" type="line"/>
    </contour>
  </outline>
</glyph>
<glyph name="Y" format="2">
  <advance width="1094"/>
  <unicode hex="0059"/>
  <guideline x="236" y="335" angle="239.8907"/>
  <guideline x="201" y="328" angle="300.4397"/>
  <anchor x="552" y="0" name="bottom"/>
  <anchor x="548" y="1450" name="top"/>
  <outline>
    <contour>
      <point x="1066" y="1446" type="line"/>
      <point x="980" y="1446" type="line"/>
      <point x="552" y="702" type="line"/>
      <point x="116" y="1446" type="line"/>
      <point x="28" y="1446" type="line"/>
      <point x="513" y="624" type="line"/>
      <point x="513" y="0" type="line"/>
      <point x="590" y="0" type="line"/>
      <point x="590" y="622" type="line"/>
    </contour>
  </outline>
</glyph>
<glyph name="Z" format="2">
  <advance width="1208"/>
  <unicode hex="005A"/>
  <anchor x="647" y="0" name="bottom"/>
  <anchor x="633" y="1446" name="top"/>
  <outline>
    <contour>
      <point x="147" y="0" type="line"/>
      <point x="1098" y="0" type="line"/>
      <point x="1098" y="78" type="line"/>
      <point x="245" y="78" type="line"/>
      <point x="1098" y="1386" type="line"/>
      <point x="1098" y="1446" type="line"/>
      <point x="165" y="1446" type="line"/>
      <point x="165" y="1368" type="line"/>
      <point x="997" y="1368" type="line"/>
      <point x="147" y="62" type="line"/>
    </contour>
  </outline>
</glyph>
<glyph name="bracketleft" format="2">
  <advance width="538"/>
  <unicode hex="005B"/>
  <outline>
    <contour>
      <point x="212" y="-322" type="line"/>
      <point x="496" y="-322" type="line"/>
      <point x="496" y="-250" type="line"/>
      <point x="294" y="-250" type="line"/>
      <point x="296" y="1374" type="line"/>
      <point x="498" y="1374" type="line"/>
      <point x="498" y="1446" type="line"/>
      <point x="210" y="1446" type="line"/>
    </contour>
  </outline>
</glyph>
<glyph name="backslash" format="2">
  <advance width="640"/>
  <unicode hex="005C"/>
  <outline>
    <contour>
      <point x="524" y="-118" type="line"/>
      <point x="610" y="-118" type="line"/>
      <point x="114" y="1446" type="line"/>
      <point x="30" y="1446" type="line"/>
    </contour>
  </outline>
</glyph>
<glyph name="bracketright" format="2">
  <advance width="538"/>
  <unicode hex="005D"/>
  <outline>
    <contour>
      <point x="42" y="-322" type="line"/>
      <point x="326" y="-322" type="line"/>
      <point x="328" y="1446" type="line"/>
      <point x="40" y="1446" type="line"/>
      <point x="40" y="1374" type="line"/>
      <point x="242" y="1374" type="line"/>
      <point x="244" y="-250" type="line"/>
      <point x="42" y="-250" type="line"/>
    </contour>
  </outline>
</glyph>
<glyph name="asciicircum" format="2">
  <advance width="924"/>
  <unicode hex="005E"/>
  <outline>
    <contour>
      <point x="718" y="268" type="line"/>
      <point x="814" y="268" type="line"/>
      <point x="526" y="982" type="line" smooth="yes"/>
      <point x="488" y="1080"/>
      <point x="428" y="1072"/>
      <point x="394" y="982" type="curve" smooth="yes"/>
      <point x="110" y="272" type="line"/>
      <point x="200" y="272" type="line"/>
      <point x="460" y="926" type="line"/>
    </contour>
  </outline>
</glyph>
<glyph name="underscore" format="2">
  <advance width="964"/>
  <unicode hex="005F"/>
  <outline>
    <contour>
      <point x="130" y="-198" type="line"/>
      <point x="834" y="-196" type="line"/>
      <point x="834" y="-118" type="line"/>
      <point x="130" y="-120" type="line"/>
    </contour>
  </outline>
</glyph>
<glyph name="a" format="2">
  <advance width="1079"/>
  <unicode hex="0061"/>
  <anchor x="548" y="0" name="bottom"/>
  <anchor x="907" y="28" name="ogonek"/>
  <anchor x="549" y="1034" name="top"/>
  <outline>
    <contour>
      <point x="453" y="-20" type="curve" smooth="yes"/>
      <point x="605" y="-20"/>
      <point x="754" y="38"/>
      <point x="844" y="210" type="curve"/>
      <point x="847" y="0" type="line"/>
      <point x="919" y="0" type="line"/>
      <point x="919" y="716" type="line" smooth="yes"/>
      <point x="919" y="946"/>
      <point x="771" y="1054"/>
      <point x="550" y="1054" type="curve" smooth="yes"/>
      <point x="307" y="1054"/>
      <point x="185" y="936"/>
      <point x="174" y="758" type="curve"/>
      <point x="258" y="758" type="line"/>
      <point x="280" y="908"/>
      <point x="393" y="978"/>
      <point x="546" y="978" type="curve" smooth="yes"/>
      <point x="747" y="978"/>
      <point x="842" y="872"/>
      <point x="842" y="714" type="curve" smooth="yes"/>
      <point x="842" y="614" type="line"/>
      <point x="603" y="606" type="line" smooth="yes"/>
      <point x="260" y="594"/>
      <point x="121" y="496"/>
      <point x="121" y="264" type="curve" smooth="yes"/>
      <point x="121" y="88"/>
      <point x="249" y="-20"/>
    </contour>
    <contour>
      <point x="466" y="54" type="curve" smooth="yes"/>
      <point x="307" y="54"/>
      <point x="203" y="134"/>
      <point x="203" y="270" type="curve" smooth="yes"/>
      <point x="203" y="450"/>
      <point x="311" y="526"/>
      <point x="641" y="532" type="curve" smooth="yes"/>
      <point x="842" y="536" type="line"/>
      <point x="842" y="334" type="line" smooth="yes"/>
      <point x="842" y="194"/>
      <point x="638" y="54"/>
    </contour>
  </outline>
</glyph>
<glyph name="b" format="2">
  <advance width="1170"/>
  <unicode hex="0062"/>
  <anchor x="619" y="0" name="bottom"/>
  <outline>
    <contour>
      <point x="627" y="-20" type="curve" smooth="yes"/>
      <point x="921" y="-20"/>
      <point x="1060" y="196"/>
      <point x="1060" y="520" type="curve" smooth="yes"/>
      <point x="1060" y="883"/>
      <point x="887" y="1054"/>
      <point x="627" y="1054" type="curve" smooth="yes"/>
      <point x="380" y="1054"/>
      <point x="278" y="893"/>
      <point x="260" y="846" type="curve"/>
      <point x="260" y="1486" type="line"/>
      <point x="180" y="1486" type="line"/>
      <point x="180" y="0" type="line"/>
      <point x="252" y="0" type="line"/>
      <point x="258" y="212" type="line"/>
      <point x="273" y="164"/>
      <point x="346" y="-20"/>
    </contour>
    <contour>
      <point x="625" y="54" type="curve" smooth="yes"/>
      <point x="354" y="54"/>
      <point x="260" y="200"/>
      <point x="260" y="533" type="curve" smooth="yes"/>
      <point x="264" y="805"/>
      <point x="354" y="978"/>
      <point x="619" y="978" type="curve" smooth="yes"/>
      <point x="860" y="978"/>
      <point x="974" y="800"/>
      <point x="974" y="533" type="curve" smooth="yes"/>
      <point x="974" y="207"/>
      <point x="834" y="54"/>
    </contour>
  </outline>
</glyph>
<glyph name="c" format="2">
  <advance width="1079"/>
  <unicode hex="0063"/>
  <anchor x="564" y="0" name="bottom"/>
  <anchor x="565" y="1034" name="top"/>
  <outline>
    <contour>
      <point x="562" y="-20" type="curve" smooth="yes"/>
      <point x="748" y="-20"/>
      <point x="917" y="75"/>
      <point x="958" y="276" type="curve"/>
      <point x="873" y="276" type="line"/>
      <point x="849" y="140"/>
      <point x="726" y="54"/>
      <point x="562" y="54" type="curve" smooth="yes"/>
      <point x="313" y="54"/>
      <point x="193" y="239"/>
      <point x="193" y="514" type="curve" smooth="yes"/>
      <point x="193" y="830"/>
      <point x="345" y="978"/>
      <point x="562" y="978" type="curve" smooth="yes"/>
      <point x="726" y="978"/>
      <point x="849" y="892"/>
      <point x="873" y="756" type="curve"/>
      <point x="958" y="756" type="line"/>
      <point x="917" y="957"/>
      <point x="748" y="1054"/>
      <point x="562" y="1054" type="curve" smooth="yes"/>
      <point x="255" y="1054"/>
      <point x="110" y="837"/>
      <point x="110" y="514" type="curve" smooth="yes"/>
      <point x="110" y="150"/>
      <point x="291" y="-20"/>
    </contour>
  </outline>
</glyph>
<glyph name="d" format="2">
  <advance width="1170"/>
  <unicode hex="0064"/>
  <anchor x="545" y="0" name="bottom"/>
  <anchor x="990" y="1486" name="caron"/>
  <anchor x="598" y="516" name="center"/>
  <outline>
    <contour>
      <point x="543" y="-20" type="curve" smooth="yes"/>
      <point x="824" y="-20"/>
      <point x="897" y="164"/>
      <point x="912" y="212" type="curve"/>
      <point x="918" y="0" type="line"/>
      <point x="990" y="0" type="line"/>
      <point x="990" y="1486" type="line"/>
      <point x="910" y="1486" type="line"/>
      <point x="910" y="846" type="line"/>
      <point x="892" y="893"/>
      <point x="790" y="1054"/>
      <point x="543" y="1054" type="curve" smooth="yes"/>
      <point x="249" y="1054"/>
      <point x="110" y="840"/>
      <point x="110" y="520" type="curve" smooth="yes"/>
      <point x="110" y="153"/>
      <point x="283" y="-20"/>
    </contour>
    <contour>
      <point x="545" y="54" type="curve" smooth="yes"/>
      <point x="308" y="54"/>
      <point x="196" y="246"/>
      <point x="196" y="533" type="curve" smooth="yes"/>
      <point x="196" y="836"/>
      <point x="338" y="978"/>
      <point x="551" y="978" type="curve" smooth="yes"/>
      <point x="816" y="978"/>
      <point x="906" y="805"/>
      <point x="910" y="533" type="curve" smooth="yes"/>
      <point x="910" y="200"/>
      <point x="816" y="54"/>
    </contour>
  </outline>
</glyph>
<glyph name="e" format="2">
  <advance width="1114"/>
  <unicode hex="0065"/>
  <anchor x="567" y="0" name="bottom"/>
  <anchor x="755" y="36" name="ogonek"/>
  <anchor x="569" y="1034" name="top"/>
  <outline>
    <contour>
      <point x="581" y="-20" type="curve" smooth="yes"/>
      <point x="767" y="-20"/>
      <point x="940" y="75"/>
      <point x="981" y="276" type="curve"/>
      <point x="896" y="276" type="line"/>
      <point x="872" y="140"/>
      <point x="745" y="56"/>
      <point x="581" y="56" type="curve" smooth="yes"/>
      <point x="319" y="56"/>
      <point x="206" y="264"/>
      <point x="206" y="498" type="curve"/>
      <point x="993" y="498" type="line"/>
      <point x="993" y="554" type="line"/>
      <point x="993" y="872"/>
      <point x="836" y="1054"/>
      <point x="569" y="1054" type="curve" smooth="yes"/>
      <point x="284" y="1054"/>
      <point x="121" y="850"/>
      <point x="121" y="508" type="curve" smooth="yes"/>
      <point x="121" y="170"/>
      <point x="309" y="-20"/>
    </contour>
    <contour>
      <point x="208" y="574" type="line"/>
      <point x="206" y="768"/>
      <point x="313" y="978"/>
      <point x="567" y="978" type="curve" smooth="yes"/>
      <point x="801" y="978"/>
      <point x="910" y="804"/>
      <point x="910" y="574" type="curve"/>
    </contour>
  </outline>
</glyph>
<glyph name="f" format="2">
  <advance width="791"/>
  <unicode hex="0066"/>
  <outline>
    <contour>
      <point x="340" y="0" type="line"/>
      <point x="418" y="0" type="line"/>
      <point x="418" y="966" type="line"/>
      <point x="702" y="966" type="line"/>
      <point x="702" y="1034" type="line"/>
      <point x="418" y="1034" type="line"/>
      <point x="418" y="1222" type="line" smooth="yes"/>
      <point x="418" y="1322"/>
      <point x="444" y="1378"/>
      <point x="540" y="1378" type="curve" smooth="yes"/>
      <point x="712" y="1378" type="line"/>
      <point x="712" y="1446" type="line"/>
      <point x="560" y="1446" type="line" smooth="yes"/>
      <point x="404" y="1446"/>
      <point x="340" y="1366"/>
      <point x="340" y="1206" type="curve" smooth="yes"/>
      <point x="340" y="1034" type="line"/>
      <point x="94" y="1034" type="line"/>
      <point x="94" y="966" type="line"/>
      <point x="340" y="966" type="line"/>
    </contour>
  </outline>
</glyph>
<glyph name="g" format="2">
  <advance width="1233"/>
  <unicode hex="0067"/>
  <anchor x="592" y="1034" name="top"/>
  <outline>
    <contour>
      <point x="576" y="-342" type="curve" smooth="yes"/>
      <point x="893" y="-342"/>
      <point x="1042" y="-220"/>
      <point x="1042" y="-38" type="curve" smooth="yes"/>
      <point x="1042" y="130"/>
      <point x="922" y="216"/>
      <point x="742" y="226" type="curve" smooth="yes"/>
      <point x="644" y="232"/>
      <point x="568" y="236"/>
      <point x="508" y="240" type="curve" smooth="yes"/>
      <point x="342" y="252"/>
      <point x="294" y="268"/>
      <point x="294" y="312" type="curve" smooth="yes"/>
      <point x="294" y="356"/>
      <point x="356" y="404"/>
      <point x="562" y="408" type="curve" smooth="yes"/>
      <point x="570" y="408"/>
      <point x="576" y="408"/>
      <point x="584" y="408" type="curve" smooth="yes"/>
      <point x="852" y="408"/>
      <point x="978" y="533"/>
      <point x="978" y="720" type="curve" smooth="yes"/>
      <point x="978" y="780"/>
      <point x="960" y="842"/>
      <point x="932" y="892" type="curve"/>
      <point x="1116" y="932" type="line"/>
      <point x="1116" y="1048" type="line"/>
      <point x="1090" y="1038"/>
      <point x="918" y="964"/>
      <point x="892" y="952" type="curve"/>
      <point x="812" y="1018"/>
      <point x="726" y="1050"/>
      <point x="598" y="1050" type="curve" smooth="yes"/>
      <point x="319" y="1050"/>
      <point x="188" y="918"/>
      <point x="188" y="720" type="curve" smooth="yes"/>
      <point x="188" y="597"/>
      <point x="259" y="502"/>
      <point x="366" y="444" type="curve"/>
      <point x="266" y="414"/>
      <point x="212" y="366"/>
      <point x="212" y="310" type="curve" smooth="yes"/>
      <point x="212" y="248"/>
      <point x="260" y="226"/>
      <point x="298" y="202" type="curve"/>
      <point x="268" y="176"/>
      <point x="108" y="104"/>
      <point x="108" y="-52" type="curve" smooth="yes"/>
      <point x="108" y="-249"/>
      <point x="295" y="-342"/>
    </contour>
    <contour>
      <point x="594" y="-268" type="curve" smooth="yes"/>
      <point x="319" y="-268"/>
      <point x="190" y="-178"/>
      <point x="190" y="-44" type="curve" smooth="yes"/>
      <point x="190" y="84"/>
      <point x="334" y="172"/>
      <point x="396" y="168" type="curve" smooth="yes"/>
      <point x="740" y="146" type="line" smooth="yes"/>
      <point x="890" y="137"/>
      <point x="960" y="64"/>
      <point x="960" y="-38" type="curve" smooth="yes"/>
      <point x="960" y="-194"/>
      <point x="814" y="-268"/>
    </contour>
    <contour>
      <point x="586" y="482" type="curve" smooth="yes"/>
      <point x="380" y="482"/>
      <point x="266" y="566"/>
      <point x="266" y="724" type="curve" smooth="yes"/>
      <point x="266" y="895"/>
      <point x="394" y="976"/>
      <point x="586" y="976" type="curve" smooth="yes"/>
      <point x="774" y="976"/>
      <point x="900" y="896"/>
      <point x="900" y="724" type="curve" smooth="yes"/>
      <point x="900" y="559"/>
      <point x="774" y="482"/>
    </contour>
  </outline>
</glyph>
<glyph name="h" format="2">
  <advance width="1122"/>
  <unicode hex="0068"/>
  <anchor x="592" y="0" name="bottom"/>
  <anchor x="216" y="1446" name="top"/>
  <outline>
    <contour>
      <point x="180" y="0" type="line"/>
      <point x="258" y="0" type="line"/>
      <point x="258" y="720" type="line"/>
      <point x="258" y="896"/>
      <point x="416" y="978"/>
      <point x="599" y="978" type="curve" smooth="yes"/>
      <point x="775" y="978"/>
      <point x="884" y="888"/>
      <point x="884" y="736" type="curve" smooth="yes"/>
      <point x="884" y="0" type="line"/>
      <point x="962" y="0" type="line"/>
      <point x="962" y="766" type="line" smooth="yes"/>
      <point x="962" y="936"/>
      <point x="807" y="1054"/>
      <point x="601" y="1054" type="curve" smooth="yes"/>
      <point x="433" y="1054"/>
      <point x="306" y="978"/>
      <point x="252" y="880" type="curve"/>
      <point x="252" y="1486" type="line"/>
      <point x="180" y="1486" type="line"/>
    </contour>
  </outline>
</glyph>
<glyph name="i" format="2">
  <advance width="455"/>
  <unicode hex="0069"/>
  <anchor x="228" y="0" name="bottom"/>
  <outline>
    <contour>
      <point x="189" y="0" type="line"/>
      <point x="268" y="0" type="line"/>
      <point x="268" y="1034" type="line"/>
      <point x="189" y="1034" type="line"/>
    </contour>
    <contour>
      <point x="180" y="1324" type="line"/>
      <point x="275" y="1324" type="line"/>
      <point x="275" y="1444" type="line"/>
      <point x="180" y="1444" type="line"/>
    </contour>
  </outline>
</glyph>
<glyph name="j" format="2">
  <advance width="473"/>
  <unicode hex="006A"/>
  <outline>
    <contour>
      <point x="66" y="-332" type="curve" smooth="yes"/>
      <point x="243" y="-332"/>
      <point x="285" y="-260"/>
      <point x="285" y="-100" type="curve" smooth="yes"/>
      <point x="285" y="1034" type="line"/>
      <point x="207" y="1034" type="line"/>
      <point x="207" y="-90" type="line" smooth="yes"/>
      <point x="207" y="-214"/>
      <point x="167" y="-258"/>
      <point x="64" y="-260" type="curve" smooth="yes"/>
      <point x="-60" y="-262" type="line"/>
      <point x="-60" y="-314" type="line" smooth="yes"/>
      <point x="-60" y="-314"/>
      <point x="-51" y="-332"/>
    </contour>
    <contour>
      <point x="197" y="1324" type="line"/>
      <point x="293" y="1324" type="line"/>
      <point x="293" y="1444" type="line"/>
      <point x="197" y="1444" type="line"/>
    </contour>
  </outline>
</glyph>
<glyph name="k" format="2">
  <advance width="1087"/>
  <unicode hex="006B"/>
  <guideline x="292" y="140" angle="121.8697"/>
  <anchor x="533" y="0" name="bottom"/>
  <outline>
    <contour>
      <point x="997" y="0" type="line"/>
      <point x="589" y="658" type="line"/>
      <point x="959" y="1034" type="line"/>
      <point x="849" y="1034" type="line"/>
      <point x="257" y="428" type="line"/>
      <point x="257" y="1486" type="line"/>
      <point x="180" y="1486" type="line"/>
      <point x="180" y="0" type="line"/>
      <point x="257" y="0" type="line"/>
      <point x="257" y="316" type="line"/>
      <point x="529" y="592" type="line"/>
      <point x="897" y="0" type="line"/>
    </contour>
  </outline>
</glyph>
<glyph name="l" format="2">
  <advance width="554"/>
  <unicode hex="006C"/>
  <anchor x="260" y="2" name="bottom"/>
  <anchor x="259" y="1446" name="caron"/>
  <anchor x="212" y="1524" name="top"/>
  <outline>
    <contour>
      <point x="372" y="-8" type="curve" smooth="yes"/>
      <point x="386" y="-8"/>
      <point x="414" y="-6"/>
      <point x="437" y="0" type="curve"/>
      <point x="437" y="58" type="line"/>
      <point x="374" y="58" type="line"/>
      <point x="317" y="58"/>
      <point x="258" y="108"/>
      <point x="258" y="242" type="curve"/>
      <point x="258" y="1486" type="line"/>
      <point x="180" y="1486" type="line"/>
      <point x="180" y="242" type="line"/>
      <point x="180" y="100"/>
      <point x="233" y="-8"/>
    </contour>
  </outline>
</glyph>
<glyph name="m" format="2">
  <advance width="1668"/>
  <unicode hex="006D"/>
  <outline>
    <contour>
      <point x="180" y="0" type="line"/>
      <point x="258" y="0" type="line"/>
      <point x="258" y="720" type="line" smooth="yes"/>
      <point x="258" y="906"/>
      <point x="418" y="978"/>
      <point x="548" y="978" type="curve" smooth="yes"/>
      <point x="664" y="978"/>
      <point x="804" y="904"/>
      <point x="804" y="752" type="curve" smooth="yes"/>
      <point x="804" y="0" type="line"/>
      <point x="882" y="0" type="line"/>
      <point x="882" y="720" type="line" smooth="yes"/>
      <point x="882" y="924"/>
      <point x="1054" y="978"/>
      <point x="1172" y="978" type="curve" smooth="yes"/>
      <point x="1307" y="978"/>
      <point x="1430" y="920"/>
      <point x="1430" y="670" type="curve" smooth="yes"/>
      <point x="1430" y="0" type="line"/>
      <point x="1508" y="0" type="line"/>
      <point x="1508" y="670" type="line" smooth="yes"/>
      <point x="1508" y="1002"/>
      <point x="1311" y="1054"/>
      <point x="1172" y="1054" type="curve" smooth="yes"/>
      <point x="1032" y="1054"/>
      <point x="918" y="990"/>
      <point x="855" y="882" type="curve"/>
      <point x="809" y="994"/>
      <point x="670" y="1054"/>
      <point x="550" y="1054" type="curve" smooth="yes"/>
      <point x="390" y="1054"/>
      <point x="302" y="972"/>
      <point x="252" y="880" type="curve"/>
      <point x="252" y="1034" type="line"/>
      <point x="180" y="1034" type="line"/>
    </contour>
  </outline>
</glyph>
<glyph name="n" format="2">
  <advance width="1122"/>
  <unicode hex="006E"/>
  <anchor x="574" y="0" name="bottom"/>
  <anchor x="592" y="1034" name="top"/>
  <outline>
    <contour>
      <point x="180" y="0" type="line"/>
      <point x="258" y="0" type="line"/>
      <point x="258" y="720" type="line" smooth="yes"/>
      <point x="258" y="896"/>
      <point x="416" y="978"/>
      <point x="599" y="978" type="curve" smooth="yes"/>
      <point x="775" y="978"/>
      <point x="884" y="880"/>
      <point x="884" y="670" type="curve" smooth="yes"/>
      <point x="884" y="0" type="line"/>
      <point x="962" y="0" type="line"/>
      <point x="962" y="670" type="line" smooth="yes"/>
      <point x="962" y="934"/>
      <point x="803" y="1054"/>
      <point x="599" y="1054" type="curve" smooth="yes"/>
      <point x="432" y="1054"/>
      <point x="306" y="978"/>
      <point x="252" y="880" type="curve"/>
      <point x="252" y="1034" type="line"/>
      <point x="180" y="1034" type="line"/>
    </contour>
  </outline>
</glyph>
<glyph name="o" format="2">
  <advance width="1110"/>
  <unicode hex="006F"/>
  <anchor x="560" y="0" name="bottom"/>
  <anchor x="848" y="856" name="horn"/>
  <anchor x="711" y="26" name="ogonek"/>
  <anchor x="556" y="1034" name="top"/>
  <outline>
    <contour>
      <point x="558" y="-20" type="curve" smooth="yes"/>
      <point x="859" y="-20"/>
      <point x="1000" y="194"/>
      <point x="1000" y="514" type="curve" smooth="yes"/>
      <point x="1000" y="881"/>
      <point x="823" y="1054"/>
      <point x="558" y="1054" type="curve" smooth="yes"/>
      <point x="253" y="1054"/>
      <point x="110" y="838"/>
      <point x="110" y="514" type="curve" smooth="yes"/>
      <point x="110" y="151"/>
      <point x="289" y="-20"/>
    </contour>
    <contour>
      <point x="558" y="54" type="curve" smooth="yes"/>
      <point x="309" y="54"/>
      <point x="192" y="238"/>
      <point x="192" y="514" type="curve" smooth="yes"/>
      <point x="192" y="830"/>
      <point x="338" y="978"/>
      <point x="558" y="978" type="curve" smooth="yes"/>
      <point x="803" y="978"/>
      <point x="919" y="792"/>
      <point x="919" y="514" type="curve" smooth="yes"/>
      <point x="919" y="201"/>
      <point x="775" y="54"/>
    </contour>
  </outline>
</glyph>
<glyph name="p" format="2">
  <advance width="1168"/>
  <unicode hex="0070"/>
  <outline>
    <contour>
      <point x="180" y="-322" type="line"/>
      <point x="260" y="-322" type="line"/>
      <point x="260" y="219" type="line"/>
      <point x="291" y="140"/>
      <point x="380" y="-20"/>
      <point x="618" y="-20" type="curve" smooth="yes"/>
      <point x="917" y="-20"/>
      <point x="1058" y="202"/>
      <point x="1058" y="536" type="curve" smooth="yes"/>
      <point x="1058" y="888"/>
      <point x="882" y="1054"/>
      <point x="618" y="1054" type="curve" smooth="yes"/>
      <point x="380" y="1054"/>
      <point x="290" y="896"/>
      <point x="260" y="822" type="curve"/>
      <point x="256" y="1034" type="line"/>
      <point x="180" y="1034" type="line"/>
    </contour>
    <contour>
      <point x="618" y="54" type="curve" smooth="yes"/>
      <point x="384" y="54"/>
      <point x="257" y="254"/>
      <point x="257" y="528" type="curve" smooth="yes"/>
      <point x="257" y="802"/>
      <point x="384" y="978"/>
      <point x="618" y="978" type="curve" smooth="yes"/>
      <point x="860" y="978"/>
      <point x="974" y="798"/>
      <point x="974" y="528" type="curve" smooth="yes"/>
      <point x="974" y="206"/>
      <point x="832" y="54"/>
    </contour>
  </outline>
</glyph>
<glyph name="q" format="2">
  <advance width="1168"/>
  <unicode hex="0071"/>
  <outline>
    <contour>
      <point x="908" y="-322" type="line"/>
      <point x="988" y="-322" type="line"/>
      <point x="988" y="1034" type="line"/>
      <point x="912" y="1034" type="line"/>
      <point x="908" y="822" type="line"/>
      <point x="878" y="896"/>
      <point x="788" y="1054"/>
      <point x="550" y="1054" type="curve" smooth="yes"/>
      <point x="251" y="1054"/>
      <point x="110" y="847"/>
      <point x="110" y="536" type="curve" smooth="yes"/>
      <point x="110" y="158"/>
      <point x="286" y="-20"/>
      <point x="550" y="-20" type="curve" smooth="yes"/>
      <point x="788" y="-20"/>
      <point x="877" y="140"/>
      <point x="908" y="219" type="curve"/>
    </contour>
    <contour>
      <point x="550" y="54" type="curve" smooth="yes"/>
      <point x="308" y="54"/>
      <point x="194" y="244"/>
      <point x="194" y="528" type="curve" smooth="yes"/>
      <point x="194" y="834"/>
      <point x="336" y="978"/>
      <point x="550" y="978" type="curve" smooth="yes"/>
      <point x="784" y="978"/>
      <point x="911" y="802"/>
      <point x="911" y="528" type="curve" smooth="yes"/>
      <point x="911" y="254"/>
      <point x="784" y="54"/>
    </contour>
  </outline>
</glyph>
<glyph name="r" format="2">
  <advance width="739"/>
  <unicode hex="0072"/>
  <anchor x="218" y="0" name="bottom"/>
  <anchor x="397" y="1034" name="top"/>
  <outline>
    <contour>
      <point x="180" y="0" type="line"/>
      <point x="258" y="0" type="line"/>
      <point x="258" y="720" type="line" smooth="yes"/>
      <point x="258" y="926"/>
      <point x="438" y="972"/>
      <point x="537" y="972" type="curve"/>
      <point x="566" y="972"/>
      <point x="621" y="967"/>
      <point x="649" y="954" type="curve"/>
      <point x="649" y="1034" type="line"/>
      <point x="623" y="1048"/>
      <point x="578" y="1054"/>
      <point x="537" y="1054" type="curve"/>
      <point x="438" y="1054"/>
      <point x="306" y="1020"/>
      <point x="252" y="880" type="curve"/>
      <point x="252" y="1034" type="line"/>
      <point x="180" y="1034" type="line"/>
    </contour>
  </outline>
</glyph>
<glyph name="s" format="2">
  <advance width="973"/>
  <unicode hex="0073"/>
  <guideline x="168" y="139" angle="0"/>
  <guideline x="296" y="252" angle="256.651"/>
  <guideline x="382" y="270" angle="180"/>
  <anchor x="483" y="0" name="bottom"/>
  <anchor x="509" y="1034" name="top"/>
  <outline>
    <contour>
      <point x="509" y="-20" type="curve" smooth="yes"/>
      <point x="754" y="-20"/>
      <point x="869" y="96"/>
      <point x="869" y="270" type="curve" smooth="yes"/>
      <point x="869" y="380"/>
      <point x="814" y="481"/>
      <point x="663" y="523" type="curve" smooth="yes"/>
      <point x="417" y="591" type="line" smooth="yes"/>
      <point x="301" y="623"/>
      <point x="233" y="670"/>
      <point x="233" y="764" type="curve" smooth="yes"/>
      <point x="233" y="910"/>
      <point x="342" y="978"/>
      <point x="505" y="978" type="curve" smooth="yes"/>
      <point x="662" y="978"/>
      <point x="746" y="899"/>
      <point x="760" y="780" type="curve"/>
      <point x="843" y="780" type="line"/>
      <point x="833" y="966"/>
      <point x="699" y="1054"/>
      <point x="505" y="1054" type="curve" smooth="yes"/>
      <point x="264" y="1054"/>
      <point x="151" y="938"/>
      <point x="151" y="764" type="curve" smooth="yes"/>
      <point x="151" y="626"/>
      <point x="245" y="555"/>
      <point x="396" y="513" type="curve" smooth="yes"/>
      <point x="642" y="445" type="line" smooth="yes"/>
      <point x="737" y="418"/>
      <point x="787" y="362"/>
      <point x="787" y="266" type="curve" smooth="yes"/>
      <point x="787" y="123"/>
      <point x="676" y="56"/>
      <point x="509" y="56" type="curve" smooth="yes"/>
      <point x="326" y="56"/>
      <point x="223" y="144"/>
      <point x="196" y="276" type="curve"/>
      <point x="113" y="276" type="line"/>
      <point x="136" y="75"/>
      <point x="292" y="-20"/>
    </contour>
  </outline>
</glyph>
<glyph name="t" format="2">
  <advance width="724"/>
  <unicode hex="0074"/>
  <anchor x="443" y="0" name="bottom"/>
  <anchor x="361" y="1486" name="caron"/>
  <anchor x="385" y="620" name="center"/>
  <outline>
    <contour>
      <point x="493" y="0" type="curve" smooth="yes"/>
      <point x="543" y="0"/>
      <point x="593" y="2"/>
      <point x="619" y="10" type="curve"/>
      <point x="619" y="78" type="line"/>
      <point x="531" y="78" type="line" smooth="yes"/>
      <point x="401" y="78"/>
      <point x="372" y="88"/>
      <point x="372" y="232" type="curve" smooth="yes"/>
      <point x="372" y="966" type="line"/>
      <point x="609" y="966" type="line"/>
      <point x="609" y="1034" type="line"/>
      <point x="372" y="1034" type="line"/>
      <point x="372" y="1324" type="line"/>
      <point x="309" y="1324" type="line"/>
      <point x="293" y="1034" type="line"/>
      <point x="125" y="1034" type="line"/>
      <point x="125" y="966" type="line"/>
      <point x="293" y="966" type="line"/>
      <point x="293" y="232" type="line" smooth="yes"/>
      <point x="293" y="66"/>
      <point x="337" y="0"/>
    </contour>
  </outline>
</glyph>
<glyph name="u" format="2">
  <advance width="1132"/>
  <unicode hex="0075"/>
  <anchor x="558" y="0" name="bottom"/>
  <anchor x="922" y="856" name="horn"/>
  <anchor x="934" y="22" name="ogonek"/>
  <anchor x="560" y="1034" name="top"/>
  <outline>
    <contour>
      <point x="560" y="-20" type="curve" smooth="yes"/>
      <point x="731" y="-22"/>
      <point x="837" y="62"/>
      <point x="874" y="190" type="curve"/>
      <point x="880" y="0" type="line"/>
      <point x="952" y="0" type="line"/>
      <point x="952" y="1034" type="line"/>
      <point x="874" y="1034" type="line"/>
      <point x="874" y="362" type="line"/>
      <point x="874" y="154"/>
      <point x="746" y="56"/>
      <point x="555" y="56" type="curve" smooth="yes"/>
      <point x="339" y="56"/>
      <point x="238" y="172"/>
      <point x="238" y="346" type="curve" smooth="yes"/>
      <point x="238" y="1034" type="line"/>
      <point x="160" y="1034" type="line"/>
      <point x="160" y="346" type="line" smooth="yes"/>
      <point x="160" y="100"/>
      <point x="320" y="-17"/>
    </contour>
  </outline>
</glyph>
<glyph name="v" format="2">
  <advance width="977"/>
  <unicode hex="0076"/>
  <guideline x="426" y="0" angle="288.998"/>
  <guideline x="552" y="0" angle="71.0017"/>
  <outline>
    <contour>
      <point x="909" y="1034" type="line"/>
      <point x="831" y="1034" type="line"/>
      <point x="501" y="88" type="line"/>
      <point x="475" y="88" type="line"/>
      <point x="152" y="1034" type="line"/>
      <point x="68" y="1034" type="line"/>
      <point x="427" y="0" type="line"/>
      <point x="553" y="0" type="line"/>
    </contour>
  </outline>
</glyph>
<glyph name="w" format="2">
  <advance width="1562"/>
  <unicode hex="0077"/>
  <anchor x="789" y="1034" name="top"/>
  <outline>
    <contour>
      <point x="1477" y="1034" type="line"/>
      <point x="1395" y="1034" type="line"/>
      <point x="1133" y="90" type="line"/>
      <point x="1108" y="90" type="line"/>
      <point x="816" y="1034" type="line"/>
      <point x="745" y="1034" type="line"/>
      <point x="469" y="86" type="line"/>
      <point x="445" y="86" type="line"/>
      <point x="169" y="1034" type="line"/>
      <point x="85" y="1034" type="line"/>
      <point x="389" y="0" type="line"/>
      <point x="524" y="0" type="line"/>
      <point x="781" y="900" type="line"/>
      <point x="1059" y="0" type="line"/>
      <point x="1190" y="0" type="line"/>
    </contour>
  </outline>
</glyph>
<glyph name="x" format="2">
  <advance width="1082"/>
  <unicode hex="0078"/>
  <outline>
    <contour>
      <point x="90" y="0" type="line"/>
      <point x="189" y="0" type="line"/>
      <point x="540" y="474" type="line"/>
      <point x="895" y="0" type="line"/>
      <point x="992" y="0" type="line"/>
      <point x="592" y="536" type="line"/>
      <point x="962" y="1034" type="line"/>
      <point x="864" y="1034" type="line"/>
      <point x="540" y="598" type="line"/>
      <point x="218" y="1034" type="line"/>
      <point x="120" y="1034" type="line"/>
      <point x="490" y="536" type="line"/>
    </contour>
  </outline>
</glyph>
<glyph name="y" format="2">
  <advance width="1014"/>
  <unicode hex="0079"/>
  <anchor x="515" y="1034" name="top"/>
  <outline>
    <contour>
      <point x="225" y="-330" type="curve" smooth="yes"/>
      <point x="349" y="-330"/>
      <point x="442" y="-280"/>
      <point x="494" y="-150" type="curve" smooth="yes"/>
      <point x="946" y="1034" type="line"/>
      <point x="870" y="1034" type="line"/>
      <point x="515" y="112" type="line"/>
      <point x="152" y="1034" type="line"/>
      <point x="68" y="1034" type="line"/>
      <point x="473" y="6" type="line"/>
      <point x="420" y="-132" type="line"/>
      <point x="391" y="-204"/>
      <point x="338" y="-260"/>
      <point x="210" y="-260" type="curve" smooth="yes"/>
      <point x="101" y="-260" type="line"/>
      <point x="101" y="-314" type="line" smooth="yes"/>
      <point x="101" y="-314"/>
      <point x="124" y="-330"/>
    </contour>
  </outline>
</glyph>
<glyph name="z" format="2">
  <advance width="930"/>
  <unicode hex="007A"/>
  <anchor x="479" y="0" name="bottom"/>
  <anchor x="479" y="1034" name="top"/>
  <outline>
    <contour>
      <point x="90" y="0" type="line"/>
      <point x="840" y="0" type="line"/>
      <point x="840" y="68" type="line"/>
      <point x="178" y="68" type="line"/>
      <point x="833" y="966" type="line"/>
      <point x="833" y="1034" type="line"/>
      <point x="114" y="1034" type="line"/>
      <point x="114" y="966" type="line"/>
      <point x="747" y="966" type="line"/>
      <point x="90" y="68" type="line"/>
    </contour>
  </outline>
</glyph>
<glyph name="braceleft" format="2">
  <advance width="542"/>
  <unicode hex="007B"/>
  <outline>
    <contour>
      <point x="448" y="-322" type="curve" smooth="yes"/>
      <point x="502" y="-322" type="line"/>
      <point x="502" y="-250" type="line"/>
      <point x="448" y="-250" type="line" smooth="yes"/>
      <point x="350" y="-250"/>
      <point x="322" y="-216"/>
      <point x="322" y="-142" type="curve" smooth="yes"/>
      <point x="322" y="316" type="line" smooth="yes"/>
      <point x="322" y="478"/>
      <point x="238" y="548"/>
      <point x="138" y="556" type="curve" smooth="yes"/>
      <point x="120" y="558"/>
      <point x="122" y="568"/>
      <point x="138" y="570" type="curve" smooth="yes"/>
      <point x="240" y="580"/>
      <point x="322" y="660"/>
      <point x="322" y="818" type="curve" smooth="yes"/>
      <point x="322" y="1272" type="line" smooth="yes"/>
      <point x="322" y="1344"/>
      <point x="356" y="1374"/>
      <point x="446" y="1374" type="curve" smooth="yes"/>
      <point x="502" y="1374" type="line"/>
      <point x="502" y="1446" type="line"/>
      <point x="446" y="1446" type="line" smooth="yes"/>
      <point x="302" y="1446"/>
      <point x="236" y="1372"/>
      <point x="236" y="1272" type="curve" smooth="yes"/>
      <point x="236" y="818" type="line" smooth="yes"/>
      <point x="236" y="700"/>
      <point x="162" y="602"/>
      <point x="10" y="600" type="curve"/>
      <point x="10" y="524" type="line"/>
      <point x="160" y="524"/>
      <point x="236" y="410"/>
      <point x="236" y="316" type="curve" smooth="yes"/>
      <point x="236" y="-142" type="line" smooth="yes"/>
      <point x="236" y="-242"/>
      <point x="294" y="-322"/>
    </contour>
  </outline>
</glyph>
<glyph name="braceright" format="2">
  <advance width="560"/>
  <unicode hex="007D"/>
  <outline>
    <contour>
      <point x="48" y="-322" type="line"/>
      <point x="102" y="-322" type="line" smooth="yes"/>
      <point x="256" y="-322"/>
      <point x="314" y="-242"/>
      <point x="314" y="-142" type="curve" smooth="yes"/>
      <point x="314" y="316" type="line" smooth="yes"/>
      <point x="314" y="410"/>
      <point x="390" y="524"/>
      <point x="540" y="524" type="curve"/>
      <point x="540" y="600" type="line"/>
      <point x="388" y="602"/>
      <point x="314" y="700"/>
      <point x="314" y="818" type="curve" smooth="yes"/>
      <point x="314" y="1272" type="line" smooth="yes"/>
      <point x="314" y="1372"/>
      <point x="248" y="1446"/>
      <point x="104" y="1446" type="curve" smooth="yes"/>
      <point x="48" y="1446" type="line"/>
      <point x="48" y="1374" type="line"/>
      <point x="104" y="1374" type="line" smooth="yes"/>
      <point x="194" y="1374"/>
      <point x="228" y="1344"/>
      <point x="228" y="1272" type="curve" smooth="yes"/>
      <point x="228" y="818" type="line" smooth="yes"/>
      <point x="228" y="660"/>
      <point x="310" y="580"/>
      <point x="412" y="570" type="curve" smooth="yes"/>
      <point x="428" y="568"/>
      <point x="430" y="558"/>
      <point x="412" y="556" type="curve" smooth="yes"/>
      <point x="312" y="548"/>
      <point x="228" y="478"/>
      <point x="228" y="316" type="curve" smooth="yes"/>
      <point x="228" y="-142" type="line" smooth="yes"/>
      <point x="228" y="-216"/>
      <point x="200" y="-250"/>
      <point x="102" y="-250" type="curve" smooth="yes"/>
      <point x="48" y="-250" type="line"/>
    </contour>
  </outline>
</glyph>
<glyph name="asciitilde" format="2">
  <advance width="1048"/>
  <unicode hex="007E"/>
  <outline>
    <contour>
      <point x="144" y="654" type="line"/>
      <point x="186" y="696"/>
      <point x="248" y="740"/>
      <point x="350" y="740" type="curve" smooth="yes"/>
      <point x="488" y="740"/>
      <point x="556" y="654"/>
      <point x="712" y="654" type="curve" smooth="yes"/>
      <point x="832" y="654"/>
      <point x="900" y="702"/>
      <point x="928" y="738" type="curve"/>
      <point x="902" y="806" type="line"/>
      <point x="866" y="768"/>
      <point x="818" y="724"/>
      <point x="714" y="724" type="curve" smooth="yes"/>
      <point x="576" y="724"/>
      <point x="484" y="812"/>
      <point x="344" y="812" type="curve" smooth="yes"/>
      <point x="234" y="812"/>
      <point x="172" y="764"/>
      <point x="120" y="718" type="curve"/>
    </contour>
  </outline>
</glyph>
<glyph name="exclamdown" format="2">
  <advance width="440"/>
  <unicode hex="00A1"/>
  <outline>
    <contour>
      <point x="170" y="-322" type="line"/>
      <point x="272" y="-322" type="line"/>
      <point x="252" y="744" type="line"/>
      <point x="188" y="744" type="line"/>
    </contour>
    <contour>
      <point x="160" y="880" type="line"/>
      <point x="280" y="880" type="line"/>
      <point x="280" y="1034" type="line"/>
      <point x="160" y="1034" type="line"/>
    </contour>
  </outline>
</glyph>
<glyph name="cent" format="2">
  <advance width="1048"/>
  <unicode hex="00A2"/>
  <anchor x="564" y="222" name="bottom"/>
  <anchor x="565" y="1256" name="top"/>
  <outline>
    <contour>
      <point x="562" y="202" type="curve" smooth="yes"/>
      <point x="748" y="202"/>
      <point x="917" y="297"/>
      <point x="958" y="498" type="curve"/>
      <point x="873" y="498" type="line"/>
      <point x="849" y="362"/>
      <point x="726" y="276"/>
      <point x="562" y="276" type="curve" smooth="yes"/>
      <point x="313" y="276"/>
      <point x="193" y="461"/>
      <point x="193" y="736" type="curve" smooth="yes"/>
      <point x="193" y="1052"/>
      <point x="345" y="1200"/>
      <point x="562" y="1200" type="curve" smooth="yes"/>
      <point x="726" y="1200"/>
      <point x="849" y="1114"/>
      <point x="873" y="978" type="curve"/>
      <point x="958" y="978" type="line"/>
      <point x="917" y="1179"/>
      <point x="748" y="1276"/>
      <point x="562" y="1276" type="curve" smooth="yes"/>
      <point x="255" y="1276"/>
      <point x="110" y="1059"/>
      <point x="110" y="736" type="curve" smooth="yes"/>
      <point x="110" y="372"/>
      <point x="291" y="202"/>
    </contour>
    <contour>
      <point x="514" y="0" type="line"/>
      <point x="594" y="0" type="line"/>
      <point x="594" y="236" type="line"/>
      <point x="514" y="236" type="line"/>
    </contour>
    <contour>
      <point x="514" y="1210" type="line"/>
      <point x="594" y="1210" type="line"/>
      <point x="594" y="1446" type="line"/>
      <point x="514" y="1446" type="line"/>
    </contour>
  </outline>
</glyph>
<glyph name="sterling" format="2">
  <advance width="1156"/>
  <unicode hex="00A3"/>
  <outline>
    <contour>
      <point x="20" y="0" type="line"/>
      <point x="686" y="0" type="line" smooth="yes"/>
      <point x="860" y="0"/>
      <point x="986" y="70"/>
      <point x="1046" y="214" type="curve"/>
      <point x="974" y="244" type="line"/>
      <point x="926" y="120"/>
      <point x="830" y="78"/>
      <point x="686" y="78" type="curve" smooth="yes"/>
      <point x="260" y="78" type="line"/>
      <point x="292" y="114"/>
      <point x="376" y="224"/>
      <point x="376" y="452" type="curve" smooth="yes"/>
      <point x="376" y="530"/>
      <point x="368" y="602"/>
      <point x="348" y="700" type="curve"/>
      <point x="690" y="700" type="line"/>
      <point x="690" y="774" type="line"/>
      <point x="338" y="774" type="line"/>
      <point x="302" y="876"/>
      <point x="278" y="1010"/>
      <point x="278" y="1106" type="curve" smooth="yes"/>
      <point x="278" y="1282"/>
      <point x="418" y="1382"/>
      <point x="588" y="1382" type="curve" smooth="yes"/>
      <point x="732" y="1382"/>
      <point x="812" y="1330"/>
      <point x="860" y="1240" type="curve"/>
      <point x="934" y="1278" type="line"/>
      <point x="896" y="1370"/>
      <point x="748" y="1466"/>
      <point x="584" y="1466" type="curve" smooth="yes"/>
      <point x="336" y="1466"/>
      <point x="130" y="1254"/>
      <point x="216" y="922" type="curve" smooth="yes"/>
      <point x="256" y="772" type="line"/>
      <point x="66" y="772" type="line"/>
      <point x="66" y="698" type="line"/>
      <point x="266" y="698" type="line"/>
      <point x="286" y="576"/>
      <point x="292" y="490"/>
      <point x="292" y="418" type="curve" smooth="yes"/>
      <point x="292" y="182"/>
      <point x="204" y="76"/>
      <point x="102" y="76" type="curve" smooth="yes"/>
      <point x="20" y="76" type="line"/>
    </contour>
  </outline>
</glyph>
<glyph name="currency" format="2">
  <advance width="1002"/>
  <unicode hex="00A4"/>
  <outline>
    <contour>
      <point x="186" y="356" type="line"/>
      <point x="282" y="456" type="line" smooth="yes"/>
      <point x="290" y="466"/>
      <point x="298" y="464"/>
      <point x="306" y="458" type="curve" smooth="yes"/>
      <point x="360" y="420"/>
      <point x="426" y="398"/>
      <point x="498" y="398" type="curve" smooth="yes"/>
      <point x="574" y="398"/>
      <point x="644" y="426"/>
      <point x="702" y="470" type="curve"/>
      <point x="816" y="358" type="line"/>
      <point x="872" y="416" type="line"/>
      <point x="768" y="514" type="line" smooth="yes"/>
      <point x="758" y="524"/>
      <point x="760" y="532"/>
      <point x="766" y="542" type="curve" smooth="yes"/>
      <point x="804" y="592"/>
      <point x="824" y="658"/>
      <point x="824" y="728" type="curve" smooth="yes"/>
      <point x="824" y="802"/>
      <point x="798" y="872"/>
      <point x="756" y="928" type="curve"/>
      <point x="870" y="1042" type="line"/>
      <point x="814" y="1100" type="line"/>
      <point x="710" y="996" type="line" smooth="yes"/>
      <point x="702" y="988"/>
      <point x="694" y="988"/>
      <point x="684" y="994" type="curve" smooth="yes"/>
      <point x="632" y="1034"/>
      <point x="566" y="1054"/>
      <point x="498" y="1054" type="curve" smooth="yes"/>
      <point x="424" y="1054"/>
      <point x="350" y="1030"/>
      <point x="296" y="986" type="curve"/>
      <point x="190" y="1096" type="line"/>
      <point x="132" y="1040" type="line"/>
      <point x="228" y="942" type="line" smooth="yes"/>
      <point x="234" y="936"/>
      <point x="236" y="928"/>
      <point x="230" y="918" type="curve" smooth="yes"/>
      <point x="192" y="866"/>
      <point x="170" y="800"/>
      <point x="170" y="728" type="curve" smooth="yes"/>
      <point x="170" y="652"/>
      <point x="192" y="582"/>
      <point x="236" y="522" type="curve"/>
      <point x="130" y="418" type="line"/>
    </contour>
    <contour>
      <point x="502" y="484" type="curve" smooth="yes"/>
      <point x="362" y="484"/>
      <point x="258" y="598"/>
      <point x="258" y="728" type="curve" smooth="yes"/>
      <point x="258" y="856"/>
      <point x="362" y="972"/>
      <point x="502" y="972" type="curve" smooth="yes"/>
      <point x="640" y="972"/>
      <point x="744" y="856"/>
      <point x="744" y="728" type="curve" smooth="yes"/>
      <point x="744" y="598"/>
      <point x="640" y="484"/>
    </contour>
  </outline>
</glyph>
<glyph name="yen" format="2">
  <advance width="1128"/>
  <unicode hex="00A5"/>
  <outline>
    <contour>
      <point x="524" y="0" type="line"/>
      <point x="614" y="0" type="line"/>
      <point x="614" y="638" type="line"/>
      <point x="1098" y="1446" type="line"/>
      <point x="1008" y="1446" type="line"/>
      <point x="568" y="702" type="line"/>
      <point x="132" y="1446" type="line"/>
      <point x="30" y="1446" type="line"/>
      <point x="524" y="606" type="line"/>
    </contour>
    <contour>
      <point x="212" y="308" type="line"/>
      <point x="926" y="310" type="line"/>
      <point x="926" y="384" type="line"/>
      <point x="212" y="382" type="line"/>
    </contour>
    <contour>
      <point x="212" y="582" type="line"/>
      <point x="926" y="584" type="line"/>
      <point x="926" y="658" type="line"/>
      <point x="212" y="656" type="line"/>
    </contour>
  </outline>
</glyph>
<glyph name="brokenbar" format="2">
  <advance width="516"/>
  <unicode hex="00A6"/>
  <outline>
    <contour>
      <point x="222" y="864" type="line"/>
      <point x="296" y="864" type="line"/>
      <point x="296" y="1652" type="line"/>
      <point x="220" y="1652" type="line"/>
    </contour>
    <contour>
      <point x="222" y="-322" type="line"/>
      <point x="296" y="-322" type="line"/>
      <point x="296" y="466" type="line"/>
      <point x="220" y="466" type="line"/>
    </contour>
  </outline>
</glyph>
<glyph name="section" format="2">
  <advance width="936"/>
  <unicode hex="00A7"/>
  <outline>
    <contour>
      <point x="492" y="-132" type="curve" smooth="yes"/>
      <point x="700" y="-132"/>
      <point x="846" y="-22"/>
      <point x="846" y="124" type="curve" smooth="yes"/>
      <point x="846" y="234"/>
      <point x="772" y="312"/>
      <point x="652" y="380" type="curve"/>
      <point x="750" y="426"/>
      <point x="846" y="494"/>
      <point x="846" y="632" type="curve" smooth="yes"/>
      <point x="846" y="756"/>
      <point x="772" y="860"/>
      <point x="576" y="942" type="curve" smooth="yes"/>
      <point x="400" y="1014" type="line" smooth="yes"/>
      <point x="238" y="1080"/>
      <point x="202" y="1150"/>
      <point x="202" y="1218" type="curve" smooth="yes"/>
      <point x="202" y="1320"/>
      <point x="302" y="1388"/>
      <point x="474" y="1388" type="curve" smooth="yes"/>
      <point x="592" y="1388"/>
      <point x="686" y="1324"/>
      <point x="752" y="1236" type="curve"/>
      <point x="818" y="1278" type="line"/>
      <point x="748" y="1378"/>
      <point x="622" y="1466"/>
      <point x="464" y="1466" type="curve" smooth="yes"/>
      <point x="258" y="1466"/>
      <point x="118" y="1358"/>
      <point x="118" y="1214" type="curve" smooth="yes"/>
      <point x="118" y="1122"/>
      <point x="152" y="1036"/>
      <point x="334" y="946" type="curve"/>
      <point x="212" y="902"/>
      <point x="118" y="812"/>
      <point x="118" y="688" type="curve" smooth="yes"/>
      <point x="118" y="578"/>
      <point x="180" y="484"/>
      <point x="340" y="422" type="curve" smooth="yes"/>
      <point x="530" y="348" type="line" smooth="yes"/>
      <point x="710" y="276"/>
      <point x="760" y="204"/>
      <point x="760" y="124" type="curve" smooth="yes"/>
      <point x="760" y="10"/>
      <point x="648" y="-54"/>
      <point x="498" y="-54" type="curve" smooth="yes"/>
      <point x="348" y="-54"/>
      <point x="220" y="24"/>
      <point x="154" y="138" type="curve"/>
      <point x="90" y="98" type="line"/>
      <point x="164" y="-44"/>
      <point x="330" y="-132"/>
    </contour>
    <contour>
      <point x="534" y="432" type="curve"/>
      <point x="396" y="492" type="line" smooth="yes"/>
      <point x="238" y="558"/>
      <point x="202" y="610"/>
      <point x="202" y="694" type="curve" smooth="yes"/>
      <point x="202" y="794"/>
      <point x="316" y="892"/>
      <point x="442" y="902" type="curve"/>
      <point x="570" y="852" type="line" smooth="yes"/>
      <point x="728" y="788"/>
      <point x="758" y="720"/>
      <point x="758" y="620" type="curve" smooth="yes"/>
      <point x="758" y="514"/>
      <point x="650" y="424"/>
    </contour>
  </outline>
</glyph>
<glyph name="copyright" format="2">
  <advance width="1606"/>
  <unicode hex="00A9"/>
  <outline>
    <contour>
      <point x="804" y="-20" type="curve" smooth="yes"/>
      <point x="1212" y="-20"/>
      <point x="1546" y="310"/>
      <point x="1546" y="724" type="curve" smooth="yes"/>
      <point x="1546" y="1132"/>
      <point x="1212" y="1466"/>
      <point x="804" y="1466" type="curve" smooth="yes"/>
      <point x="392" y="1466"/>
      <point x="60" y="1132"/>
      <point x="60" y="724" type="curve" smooth="yes"/>
      <point x="60" y="310"/>
      <point x="392" y="-20"/>
    </contour>
    <contour>
      <point x="808" y="310" type="curve" smooth="yes"/>
      <point x="940" y="310"/>
      <point x="1050" y="388"/>
      <point x="1126" y="512" type="curve"/>
      <point x="1064" y="550" type="line"/>
      <point x="1012" y="452"/>
      <point x="920" y="386"/>
      <point x="812" y="386" type="curve" smooth="yes"/>
      <point x="646" y="386"/>
      <point x="526" y="526"/>
      <point x="526" y="732" type="curve" smooth="yes"/>
      <point x="526" y="934"/>
      <point x="646" y="1074"/>
      <point x="814" y="1074" type="curve" smooth="yes"/>
      <point x="904" y="1074"/>
      <point x="984" y="1024"/>
      <point x="1048" y="922" type="curve"/>
      <point x="1120" y="964" type="line"/>
      <point x="1044" y="1070"/>
      <point x="948" y="1150"/>
      <point x="808" y="1150" type="curve" smooth="yes"/>
      <point x="592" y="1150"/>
      <point x="440" y="976"/>
      <point x="440" y="728" type="curve" smooth="yes"/>
      <point x="440" y="478"/>
      <point x="588" y="310"/>
    </contour>
    <contour>
      <point x="804" y="66" type="curve" smooth="yes"/>
      <point x="450" y="66"/>
      <point x="148" y="324"/>
      <point x="148" y="724" type="curve" smooth="yes"/>
      <point x="148" y="1118"/>
      <point x="450" y="1382"/>
      <point x="804" y="1382" type="curve" smooth="yes"/>
      <point x="1148" y="1382"/>
      <point x="1458" y="1118"/>
      <point x="1458" y="724" type="curve" smooth="yes"/>
      <point x="1458" y="324"/>
      <point x="1148" y="66"/>
    </contour>
  </outline>
</glyph>
<glyph name="ordfeminine" format="2">
  <advance width="823"/>
  <unicode hex="00AA"/>
  <outline>
    <contour>
      <point x="340" y="790" type="curve" smooth="yes"/>
      <point x="431" y="790"/>
      <point x="499" y="824"/>
      <point x="571" y="902" type="curve"/>
      <point x="588" y="802" type="line"/>
      <point x="663" y="802" type="line"/>
      <point x="651" y="886" type="line"/>
      <point x="645" y="936"/>
      <point x="643" y="976"/>
      <point x="643" y="1016" type="curve" smooth="yes"/>
      <point x="643" y="1054"/>
      <point x="643" y="1132"/>
      <point x="643" y="1236" type="curve" smooth="yes"/>
      <point x="643" y="1374"/>
      <point x="555" y="1460"/>
      <point x="401" y="1460" type="curve" smooth="yes"/>
      <point x="279" y="1460"/>
      <point x="183" y="1406"/>
      <point x="138" y="1314" type="curve"/>
      <point x="199" y="1288" type="line"/>
      <point x="254" y="1370"/>
      <point x="309" y="1394"/>
      <point x="393" y="1394" type="curve" smooth="yes"/>
      <point x="510" y="1394"/>
      <point x="573" y="1346"/>
      <point x="573" y="1244" type="curve" smooth="yes"/>
      <point x="573" y="1194" type="line"/>
      <point x="431" y="1180" type="line" smooth="yes"/>
      <point x="227" y="1160"/>
      <point x="121" y="1092"/>
      <point x="121" y="968" type="curve" smooth="yes"/>
      <point x="121" y="856"/>
      <point x="203" y="790"/>
    </contour>
    <contour>
      <point x="355" y="852" type="curve" smooth="yes"/>
      <point x="262" y="852"/>
      <point x="197" y="898"/>
      <point x="197" y="970" type="curve" smooth="yes"/>
      <point x="197" y="1054"/>
      <point x="277" y="1108"/>
      <point x="455" y="1122" type="curve" smooth="yes"/>
      <point x="573" y="1132" type="line"/>
      <point x="573" y="1016" type="line" smooth="yes"/>
      <point x="573" y="980"/>
      <point x="552" y="948"/>
      <point x="513" y="914" type="curve" smooth="yes"/>
      <point x="468" y="872"/>
      <point x="417" y="852"/>
    </contour>
  </outline>
</glyph>
<glyph name="guillemetleft" format="2">
  <advance width="820"/>
  <unicode hex="00AB"/>
  <outline>
    <contour>
      <point x="672" y="152" type="line"/>
      <point x="726" y="152" type="line"/>
      <point x="490" y="502" type="line"/>
      <point x="730" y="868" type="line"/>
      <point x="674" y="868" type="line"/>
      <point x="386" y="502" type="line"/>
    </contour>
    <contour>
      <point x="346" y="152" type="line"/>
      <point x="400" y="152" type="line"/>
      <point x="164" y="502" type="line"/>
      <point x="404" y="868" type="line"/>
      <point x="348" y="868" type="line"/>
      <point x="60" y="502" type="line"/>
    </contour>
  </outline>
</glyph>
<glyph name="softhyphen" format="2">
  <advance width="724"/>
  <unicode hex="00AD"/>
  <outline>
    <contour>
      <point x="127" y="478" type="line"/>
      <point x="597" y="480" type="line"/>
      <point x="597" y="558" type="line"/>
      <point x="127" y="556" type="line"/>
    </contour>
  </outline>
</glyph>
<glyph name="registered" format="2">
  <advance width="1050"/>
  <unicode hex="00AE"/>
  <outline>
    <contour>
      <point x="526" y="536" type="curve" smooth="yes"/>
      <point x="782" y="536"/>
      <point x="990" y="742"/>
      <point x="990" y="1000" type="curve" smooth="yes"/>
      <point x="990" y="1258"/>
      <point x="782" y="1466"/>
      <point x="526" y="1466" type="curve" smooth="yes"/>
      <point x="266" y="1466"/>
      <point x="60" y="1258"/>
      <point x="60" y="1000" type="curve" smooth="yes"/>
      <point x="60" y="742"/>
      <point x="266" y="536"/>
    </contour>
    <contour>
      <point x="526" y="604" type="curve" smooth="yes"/>
      <point x="292" y="604"/>
      <point x="130" y="758"/>
      <point x="130" y="1000" type="curve" smooth="yes"/>
      <point x="130" y="1240"/>
      <point x="292" y="1398"/>
      <point x="526" y="1398" type="curve" smooth="yes"/>
      <point x="756" y="1398"/>
      <point x="920" y="1240"/>
      <point x="920" y="1000" type="curve" smooth="yes"/>
      <point x="920" y="758"/>
      <point x="756" y="604"/>
    </contour>
    <contour>
      <point x="356" y="766" type="line"/>
      <point x="414" y="766" type="line"/>
      <point x="414" y="988" type="line"/>
      <point x="542" y="988" type="line"/>
      <point x="626" y="766" type="line"/>
      <point x="688" y="766" type="line"/>
      <point x="600" y="992" type="line"/>
      <point x="646" y="1008"/>
      <point x="700" y="1038"/>
      <point x="700" y="1116" type="curve" smooth="yes"/>
      <point x="700" y="1190"/>
      <point x="648" y="1228"/>
      <point x="556" y="1228" type="curve" smooth="yes"/>
      <point x="356" y="1228" type="line"/>
    </contour>
    <contour>
      <point x="414" y="1044" type="line"/>
      <point x="414" y="1174" type="line"/>
      <point x="536" y="1174" type="line" smooth="yes"/>
      <point x="622" y="1174"/>
      <point x="640" y="1142"/>
      <point x="640" y="1108" type="curve" smooth="yes"/>
      <point x="640" y="1056"/>
      <point x="594" y="1044"/>
      <point x="542" y="1044" type="curve" smooth="yes"/>
    </contour>
  </outline>
</glyph>
<glyph name="degree" format="2">
  <advance width="904"/>
  <unicode hex="00B0"/>
  <outline>
    <contour>
      <point x="452" y="1088" type="curve" smooth="yes"/>
      <point x="620" y="1088"/>
      <point x="744" y="1210"/>
      <point x="744" y="1380" type="curve" smooth="yes"/>
      <point x="744" y="1552"/>
      <point x="620" y="1674"/>
      <point x="452" y="1674" type="curve" smooth="yes"/>
      <point x="282" y="1674"/>
      <point x="160" y="1552"/>
      <point x="160" y="1380" type="curve" smooth="yes"/>
      <point x="160" y="1210"/>
      <point x="282" y="1088"/>
    </contour>
    <contour>
      <point x="450" y="1158" type="curve" smooth="yes"/>
      <point x="320" y="1158"/>
      <point x="240" y="1248"/>
      <point x="238" y="1378" type="curve" smooth="yes"/>
      <point x="236" y="1508"/>
      <point x="320" y="1598"/>
      <point x="448" y="1598" type="curve" smooth="yes"/>
      <point x="580" y="1598"/>
      <point x="660" y="1508"/>
      <point x="660" y="1378" type="curve" smooth="yes"/>
      <point x="660" y="1248"/>
      <point x="580" y="1158"/>
    </contour>
  </outline>
</glyph>
<glyph name="plusminus" format="2">
  <advance width="1042"/>
  <unicode hex="00B1"/>
  <outline>
    <contour>
      <point x="130" y="162" type="line"/>
      <point x="912" y="164" type="line"/>
      <point x="912" y="238" type="line"/>
      <point x="130" y="236" type="line"/>
    </contour>
    <contour>
      <point x="558" y="899" type="line"/>
      <point x="558" y="1254" type="line"/>
      <point x="484" y="1254" type="line"/>
      <point x="485" y="899" type="line"/>
      <point x="130" y="898" type="line"/>
      <point x="130" y="824" type="line"/>
      <point x="485" y="825" type="line"/>
      <point x="486" y="472" type="line"/>
      <point x="558" y="472" type="line"/>
      <point x="558" y="825" type="line"/>
      <point x="912" y="826" type="line"/>
      <point x="912" y="900" type="line"/>
    </contour>
  </outline>
</glyph>
<glyph name="micro" format="2">
  <advance width="1134"/>
  <unicode hex="00B5"/>
  <outline>
    <contour>
      <point x="160" y="-330" type="line"/>
      <point x="240" y="-330" type="line"/>
      <point x="240" y="74" type="line"/>
      <point x="310" y="4"/>
      <point x="392" y="-20"/>
      <point x="492" y="-20" type="curve" smooth="yes"/>
      <point x="618" y="-20"/>
      <point x="714" y="30"/>
      <point x="880" y="164" type="curve"/>
      <point x="880" y="0" type="line"/>
      <point x="954" y="0" type="line"/>
      <point x="954" y="1060" type="line"/>
      <point x="874" y="1060" type="line"/>
      <point x="874" y="268" type="line"/>
      <point x="744" y="138"/>
      <point x="618" y="56"/>
      <point x="488" y="56" type="curve" smooth="yes"/>
      <point x="352" y="56"/>
      <point x="240" y="158"/>
      <point x="240" y="274" type="curve" smooth="yes"/>
      <point x="240" y="1060" type="line"/>
      <point x="160" y="1060" type="line"/>
    </contour>
  </outline>
</glyph>
<glyph name="paragraph" format="2">
  <advance width="1039"/>
  <unicode hex="00B6"/>
  <outline>
    <contour>
      <point x="540" y="-166" type="line"/>
      <point x="608" y="-166" type="line"/>
      <point x="608" y="1384" type="line"/>
      <point x="694" y="1384" type="line"/>
      <point x="694" y="-166" type="line"/>
      <point x="761" y="-166" type="line"/>
      <point x="761" y="1384" type="line"/>
      <point x="879" y="1384" type="line"/>
      <point x="879" y="1446" type="line"/>
      <point x="562" y="1446" type="line" smooth="yes"/>
      <point x="257" y="1446"/>
      <point x="110" y="1220"/>
      <point x="110" y="1002" type="curve" smooth="yes"/>
      <point x="110" y="796"/>
      <point x="259" y="592"/>
      <point x="540" y="592" type="curve"/>
    </contour>
  </outline>
</glyph>
<glyph name="periodcentered" format="2">
  <advance width="400"/>
  <unicode hex="00B7"/>
  <outline>
    <contour>
      <point x="120" y="652" type="line"/>
      <point x="280" y="652" type="line"/>
      <point x="280" y="806" type="line"/>
      <point x="120" y="806" type="line"/>
    </contour>
  </outline>
</glyph>
<glyph name="ordmasculine" format="2">
  <advance width="818"/>
  <unicode hex="00BA"/>
  <outline>
    <contour>
      <point x="408" y="794" type="curve" smooth="yes"/>
      <point x="602" y="794"/>
      <point x="708" y="932"/>
      <point x="708" y="1126" type="curve" smooth="yes"/>
      <point x="708" y="1328"/>
      <point x="595" y="1464"/>
      <point x="408" y="1464" type="curve" smooth="yes"/>
      <point x="224" y="1464"/>
      <point x="110" y="1328"/>
      <point x="110" y="1126" type="curve" smooth="yes"/>
      <point x="110" y="932"/>
      <point x="215" y="794"/>
    </contour>
    <contour>
      <point x="408" y="858" type="curve" smooth="yes"/>
      <point x="264" y="858"/>
      <point x="190" y="966"/>
      <point x="190" y="1132" type="curve" smooth="yes"/>
      <point x="190" y="1288"/>
      <point x="264" y="1396"/>
      <point x="408" y="1396" type="curve" smooth="yes"/>
      <point x="553" y="1396"/>
      <point x="629" y="1288"/>
      <point x="629" y="1132" type="curve" smooth="yes"/>
      <point x="629" y="966"/>
      <point x="553" y="858"/>
    </contour>
  </outline>
</glyph>
<glyph name="guillemetright" format="2">
  <advance width="893"/>
  <unicode hex="00BB"/>
  <outline>
    <contour>
      <point x="455" y="152" type="line"/>
      <point x="507" y="152" type="line"/>
      <point x="793" y="502" type="line"/>
      <point x="505" y="868" type="line"/>
      <point x="451" y="868" type="line"/>
      <point x="691" y="502" type="line"/>
    </contour>
    <contour>
      <point x="129" y="152" type="line"/>
      <point x="182" y="152" type="line"/>
      <point x="467" y="502" type="line"/>
      <point x="179" y="868" type="line"/>
      <point x="125" y="868" type="line"/>
      <point x="365" y="502" type="line"/>
    </contour>
  </outline>
</glyph>
<glyph name="questiondown" format="2">
  <advance width="984"/>
  <unicode hex="00BF"/>
  <outline>
    <contour>
      <point x="472" y="-342" type="curve" smooth="yes"/>
      <point x="660" y="-342"/>
      <point x="830" y="-244"/>
      <point x="914" y="-92" type="curve"/>
      <point x="832" y="-52" type="line"/>
      <point x="788" y="-164"/>
      <point x="624" y="-260"/>
      <point x="472" y="-260" type="curve" smooth="yes"/>
      <point x="276" y="-260"/>
      <point x="150" y="-154"/>
      <point x="150" y="14" type="curve" smooth="yes"/>
      <point x="150" y="318"/>
      <point x="554" y="330"/>
      <point x="554" y="742" type="curve"/>
      <point x="472" y="742" type="line"/>
      <point x="472" y="358"/>
      <point x="60" y="348"/>
      <point x="60" y="14" type="curve" smooth="yes"/>
      <point x="60" y="-202"/>
      <point x="220" y="-342"/>
    </contour>
    <contour>
      <point x="452" y="880" type="line"/>
      <point x="574" y="880" type="line"/>
      <point x="574" y="1034" type="line"/>
      <point x="452" y="1034" type="line"/>
    </contour>
  </outline>
</glyph>
<glyph name="AE" format="2">
  <advance width="1817"/>
  <unicode hex="00C6"/>
  <anchor x="1234" y="1446" name="top"/>
  <outline>
    <contour>
      <point x="0" y="0" type="line"/>
      <point x="84" y="0" type="line"/>
      <point x="350" y="464" type="line"/>
      <point x="872" y="464" type="line"/>
      <point x="872" y="0" type="line"/>
      <point x="1682" y="0" type="line"/>
      <point x="1682" y="78" type="line"/>
      <point x="960" y="78" type="line"/>
      <point x="960" y="692" type="line"/>
      <point x="1602" y="692" type="line"/>
      <point x="1602" y="770" type="line"/>
      <point x="960" y="770" type="line"/>
      <point x="960" y="1368" type="line"/>
      <point x="1654" y="1368" type="line"/>
      <point x="1654" y="1446" type="line"/>
      <point x="826" y="1446" type="line"/>
    </contour>
    <contour>
      <point x="388" y="542" type="line"/>
      <point x="872" y="1370" type="line"/>
      <point x="872" y="542" type="line"/>
    </contour>
  </outline>
</glyph>
<glyph name="Ccedilla" format="2">
  <advance width="1318"/>
  <unicode hex="00C7"/>
  <anchor x="700" y="0" name="_bottom"/>
  <anchor x="700" y="0" name="bottom"/>
  <anchor x="686" y="1446" name="top"/>
  <outline>
    <contour>
      <point x="648" y="-398" type="curve" smooth="yes"/>
      <point x="754" y="-398"/>
      <point x="842" y="-350"/>
      <point x="842" y="-252" type="curve" smooth="yes"/>
      <point x="842" y="-190"/>
      <point x="808" y="-124"/>
      <point x="686" y="-114" type="curve"/>
      <point x="736" y="10" type="line"/>
      <point x="670" y="10" type="line"/>
      <point x="598" y="-154" type="line" smooth="yes"/>
      <point x="596" y="-158"/>
      <point x="596" y="-162"/>
      <point x="606" y="-162" type="curve" smooth="yes"/>
      <point x="708" y="-166"/>
      <point x="756" y="-194"/>
      <point x="756" y="-256" type="curve" smooth="yes"/>
      <point x="756" y="-310"/>
      <point x="722" y="-340"/>
      <point x="640" y="-340" type="curve" smooth="yes"/>
      <point x="580" y="-340"/>
      <point x="548" y="-322"/>
      <point x="520" y="-296" type="curve"/>
      <point x="498" y="-352" type="line"/>
      <point x="540" y="-382"/>
      <point x="588" y="-398"/>
    </contour>
    <component base="C"/>
  </outline>
</glyph>
<glyph name="Eth" format="2">
  <advance width="1330"/>
  <unicode hex="00D0"/>
  <anchor x="710" y="0" name="bottom"/>
  <anchor x="658" y="724" name="center"/>
  <anchor x="646" y="1446" name="top"/>
  <outline>
    <contour>
      <point x="70" y="688" type="line"/>
      <point x="668" y="688" type="line"/>
      <point x="668" y="769" type="line"/>
      <point x="70" y="769" type="line"/>
    </contour>
    <component base="D" xOffset="-4"/>
  </outline>
</glyph>
<glyph name="multiply" format="2">
  <advance width="1006"/>
  <unicode hex="00D7"/>
  <outline>
    <contour>
      <point x="186" y="354" type="line"/>
      <point x="874" y="1048" type="line"/>
      <point x="820" y="1100" type="line"/>
      <point x="132" y="408" type="line"/>
    </contour>
    <contour>
      <point x="822" y="354" type="line"/>
      <point x="876" y="408" type="line"/>
      <point x="184" y="1096" type="line"/>
      <point x="130" y="1044" type="line"/>
    </contour>
  </outline>
</glyph>
<glyph name="Oslash" format="2">
  <advance width="1450"/>
  <unicode hex="00D8"/>
  <anchor x="726" y="1446" name="top"/>
  <outline>
    <contour>
      <point x="140" y="-26" type="line"/>
      <point x="302" y="158" type="line"/>
      <point x="400" y="40"/>
      <point x="544" y="-20"/>
      <point x="724" y="-20" type="curve" smooth="yes"/>
      <point x="1090" y="-20"/>
      <point x="1312" y="238"/>
      <point x="1312" y="720" type="curve" smooth="yes"/>
      <point x="1312" y="920"/>
      <point x="1274" y="1082"/>
      <point x="1204" y="1204" type="curve"/>
      <point x="1380" y="1408" type="line"/>
      <point x="1308" y="1470" type="line"/>
      <point x="1148" y="1286" type="line"/>
      <point x="1046" y="1404"/>
      <point x="904" y="1466"/>
      <point x="726" y="1466" type="curve" smooth="yes"/>
      <point x="360" y="1466"/>
      <point x="138" y="1204"/>
      <point x="138" y="716" type="curve" smooth="yes"/>
      <point x="138" y="518"/>
      <point x="174" y="358"/>
      <point x="244" y="240" type="curve"/>
      <point x="70" y="38" type="line"/>
    </contour>
    <contour>
      <point x="728" y="64" type="curve" smooth="yes"/>
      <point x="566" y="64"/>
      <point x="444" y="118"/>
      <point x="360" y="228" type="curve"/>
      <point x="1140" y="1132" type="line"/>
      <point x="1188" y="1026"/>
      <point x="1212" y="890"/>
      <point x="1212" y="720" type="curve" smooth="yes"/>
      <point x="1212" y="276"/>
      <point x="1050" y="64"/>
    </contour>
    <contour>
      <point x="308" y="314" type="line"/>
      <point x="260" y="418"/>
      <point x="236" y="552"/>
      <point x="236" y="720" type="curve" smooth="yes"/>
      <point x="236" y="1164"/>
      <point x="404" y="1382"/>
      <point x="726" y="1382" type="curve" smooth="yes"/>
      <point x="886" y="1382"/>
      <point x="1006" y="1328"/>
      <point x="1088" y="1218" type="curve"/>
    </contour>
  </outline>
</glyph>
<glyph name="Thorn" format="2">
  <advance width="1241"/>
  <unicode hex="00DE"/>
  <outline>
    <contour>
      <point x="220" y="0" type="line"/>
      <point x="306" y="0" type="line"/>
      <point x="306" y="354" type="line"/>
      <point x="678" y="354" type="line" smooth="yes"/>
      <point x="972" y="354"/>
      <point x="1186" y="466"/>
      <point x="1186" y="760" type="curve" smooth="yes"/>
      <point x="1186" y="1018"/>
      <point x="972" y="1130"/>
      <point x="666" y="1130" type="curve" smooth="yes"/>
      <point x="306" y="1130" type="line"/>
      <point x="306" y="1446" type="line"/>
      <point x="220" y="1446" type="line"/>
    </contour>
    <contour>
      <point x="306" y="436" type="line"/>
      <point x="306" y="1048" type="line"/>
      <point x="664" y="1048" type="line" smooth="yes"/>
      <point x="928" y="1048"/>
      <point x="1104" y="976"/>
      <point x="1104" y="760" type="curve" smooth="yes"/>
      <point x="1104" y="522"/>
      <point x="928" y="436"/>
      <point x="678" y="436" type="curve" smooth="yes"/>
    </contour>
  </outline>
</glyph>
<glyph name="germandbls" format="2">
  <advance width="1103"/>
  <unicode hex="00DF"/>
  <outline>
    <contour>
      <point x="636" y="-20" type="curve" smooth="yes"/>
      <point x="832" y="-20"/>
      <point x="1002" y="94"/>
      <point x="1002" y="308" type="curve" smooth="yes"/>
      <point x="1002" y="558"/>
      <point x="773" y="618"/>
      <point x="649" y="658" type="curve" smooth="yes"/>
      <point x="534" y="694"/>
      <point x="496" y="710"/>
      <point x="496" y="776" type="curve" smooth="yes"/>
      <point x="496" y="844"/>
      <point x="538" y="866"/>
      <point x="656" y="930" type="curve" smooth="yes"/>
      <point x="762" y="986"/>
      <point x="876" y="1030"/>
      <point x="876" y="1188" type="curve" smooth="yes"/>
      <point x="876" y="1306"/>
      <point x="809" y="1446"/>
      <point x="580" y="1446" type="curve" smooth="yes"/>
      <point x="344" y="1446"/>
      <point x="180" y="1292"/>
      <point x="180" y="1034" type="curve"/>
      <point x="182" y="0" type="line"/>
      <point x="260" y="0" type="line"/>
      <point x="260" y="1044" type="line" smooth="yes"/>
      <point x="260" y="1268"/>
      <point x="388" y="1372"/>
      <point x="563" y="1372" type="curve" smooth="yes"/>
      <point x="710" y="1372"/>
      <point x="794" y="1304"/>
      <point x="794" y="1194" type="curve" smooth="yes"/>
      <point x="794" y="1074"/>
      <point x="698" y="1038"/>
      <point x="613" y="994" type="curve" smooth="yes"/>
      <point x="473" y="924"/>
      <point x="414" y="872"/>
      <point x="414" y="774" type="curve" smooth="yes"/>
      <point x="414" y="636"/>
      <point x="532" y="608"/>
      <point x="626" y="580" type="curve" smooth="yes"/>
      <point x="771" y="534"/>
      <point x="920" y="482"/>
      <point x="920" y="302" type="curve" smooth="yes"/>
      <point x="920" y="146"/>
      <point x="806" y="54"/>
      <point x="622" y="54" type="curve" smooth="yes"/>
      <point x="525" y="54"/>
      <point x="468" y="80"/>
      <point x="401" y="118" type="curve"/>
      <point x="357" y="52" type="line"/>
      <point x="428" y="6"/>
      <point x="548" y="-20"/>
    </contour>
  </outline>
</glyph>
<glyph name="ae" format="2">
  <advance width="1829"/>
  <unicode hex="00E6"/>
  <anchor x="548" y="0" name="bottom"/>
  <anchor x="907" y="28" name="ogonek"/>
  <anchor x="903" y="1034" name="top"/>
  <outline>
    <contour>
      <point x="453" y="-20" type="curve" smooth="yes"/>
      <point x="640" y="-20"/>
      <point x="839" y="86"/>
      <point x="882" y="250" type="curve"/>
      <point x="953" y="75"/>
      <point x="1104" y="-20"/>
      <point x="1296" y="-20" type="curve" smooth="yes"/>
      <point x="1482" y="-20"/>
      <point x="1655" y="75"/>
      <point x="1696" y="276" type="curve"/>
      <point x="1611" y="276" type="line"/>
      <point x="1587" y="140"/>
      <point x="1460" y="56"/>
      <point x="1296" y="56" type="curve" smooth="yes"/>
      <point x="1034" y="56"/>
      <point x="921" y="264"/>
      <point x="921" y="498" type="curve"/>
      <point x="1708" y="498" type="line"/>
      <point x="1708" y="554" type="line" smooth="yes"/>
      <point x="1708" y="872"/>
      <point x="1551" y="1054"/>
      <point x="1284" y="1054" type="curve" smooth="yes"/>
      <point x="1106" y="1054"/>
      <point x="975" y="974"/>
      <point x="902" y="830" type="curve"/>
      <point x="857" y="971"/>
      <point x="726" y="1054"/>
      <point x="550" y="1054" type="curve" smooth="yes"/>
      <point x="309" y="1054"/>
      <point x="183" y="904"/>
      <point x="174" y="758" type="curve"/>
      <point x="258" y="758" type="line"/>
      <point x="279" y="900"/>
      <point x="395" y="978"/>
      <point x="546" y="978" type="curve" smooth="yes"/>
      <point x="721" y="978"/>
      <point x="842" y="880"/>
      <point x="842" y="714" type="curve" smooth="yes"/>
      <point x="842" y="614" type="line"/>
      <point x="603" y="606" type="line" smooth="yes"/>
      <point x="260" y="595"/>
      <point x="121" y="496"/>
      <point x="121" y="264" type="curve" smooth="yes"/>
      <point x="121" y="88"/>
      <point x="249" y="-20"/>
    </contour>
    <contour>
      <point x="466" y="54" type="curve" smooth="yes"/>
      <point x="307" y="54"/>
      <point x="203" y="134"/>
      <point x="203" y="270" type="curve" smooth="yes"/>
      <point x="203" y="450"/>
      <point x="311" y="525"/>
      <point x="641" y="532" type="curve" smooth="yes"/>
      <point x="836" y="536" type="line"/>
      <point x="837" y="383" type="line" smooth="yes"/>
      <point x="837" y="243"/>
      <point x="696" y="54"/>
    </contour>
    <contour>
      <point x="923" y="574" type="line"/>
      <point x="921" y="768"/>
      <point x="1028" y="978"/>
      <point x="1282" y="978" type="curve" smooth="yes"/>
      <point x="1516" y="978"/>
      <point x="1625" y="804"/>
      <point x="1625" y="574" type="curve"/>
    </contour>
  </outline>
</glyph>
<glyph name="ccedilla" format="2">
  <advance width="1079"/>
  <unicode hex="00E7"/>
  <anchor x="564" y="0" name="_bottom"/>
  <anchor x="564" y="0" name="bottom"/>
  <anchor x="565" y="1034" name="top"/>
  <outline>
    <contour>
      <point x="512" y="-398" type="curve" smooth="yes"/>
      <point x="618" y="-398"/>
      <point x="706" y="-350"/>
      <point x="706" y="-252" type="curve" smooth="yes"/>
      <point x="706" y="-190"/>
      <point x="672" y="-124"/>
      <point x="550" y="-114" type="curve"/>
      <point x="600" y="10" type="line"/>
      <point x="534" y="10" type="line"/>
      <point x="462" y="-154" type="line" smooth="yes"/>
      <point x="460" y="-158"/>
      <point x="460" y="-162"/>
      <point x="470" y="-162" type="curve" smooth="yes"/>
      <point x="572" y="-166"/>
      <point x="620" y="-194"/>
      <point x="620" y="-256" type="curve" smooth="yes"/>
      <point x="620" y="-310"/>
      <point x="586" y="-340"/>
      <point x="504" y="-340" type="curve" smooth="yes"/>
      <point x="444" y="-340"/>
      <point x="412" y="-322"/>
      <point x="384" y="-296" type="curve"/>
      <point x="362" y="-352" type="line"/>
      <point x="404" y="-382"/>
      <point x="452" y="-398"/>
    </contour>
    <component base="c"/>
  </outline>
</glyph>
<glyph name="eth" format="2">
  <advance width="1112"/>
  <unicode hex="00F0"/>
  <outline>
    <contour>
      <point x="559" y="-20" type="curve" smooth="yes"/>
      <point x="872" y="-20"/>
      <point x="1002" y="217"/>
      <point x="1002" y="514" type="curve" smooth="yes"/>
      <point x="1002" y="985"/>
      <point x="770" y="1291"/>
      <point x="524" y="1480" type="curve"/>
      <point x="417" y="1480" type="line"/>
      <point x="560" y="1376"/>
      <point x="782" y="1172"/>
      <point x="865" y="877" type="curve"/>
      <point x="965" y="762" type="line"/>
      <point x="920" y="923"/>
      <point x="790" y="1054"/>
      <point x="563" y="1054" type="curve" smooth="yes"/>
      <point x="257" y="1054"/>
      <point x="110" y="830"/>
      <point x="110" y="514" type="curve" smooth="yes"/>
      <point x="110" y="214"/>
      <point x="238" y="-20"/>
    </contour>
    <contour>
      <point x="559" y="54" type="curve" smooth="yes"/>
      <point x="287" y="54"/>
      <point x="192" y="268"/>
      <point x="192" y="514" type="curve" smooth="yes"/>
      <point x="192" y="792"/>
      <point x="314" y="978"/>
      <point x="563" y="978" type="curve" smooth="yes"/>
      <point x="789" y="978"/>
      <point x="920" y="818"/>
      <point x="920" y="514" type="curve" smooth="yes"/>
      <point x="920" y="253"/>
      <point x="813" y="54"/>
    </contour>
    <contour>
      <point x="388" y="1175" type="line"/>
      <point x="944" y="1348" type="line"/>
      <point x="926" y="1414" type="line"/>
      <point x="367" y="1240" type="line"/>
    </contour>
  </outline>
</glyph>
<glyph name="divide" format="2">
  <advance width="1042"/>
  <unicode hex="00F7"/>
  <outline>
    <contour>
      <point x="130" y="688" type="line"/>
      <point x="912" y="690" type="line"/>
      <point x="912" y="764" type="line"/>
      <point x="130" y="762" type="line"/>
    </contour>
    <contour>
      <point x="442" y="340" type="line"/>
      <point x="602" y="340" type="line"/>
      <point x="602" y="494" type="line"/>
      <point x="442" y="494" type="line"/>
    </contour>
    <contour>
      <point x="442" y="960" type="line"/>
      <point x="602" y="960" type="line"/>
      <point x="602" y="1114" type="line"/>
      <point x="442" y="1114" type="line"/>
    </contour>
  </outline>
</glyph>
<glyph name="oslash" format="2">
  <advance width="1120"/>
  <unicode hex="00F8"/>
  <anchor x="562" y="1034" name="top"/>
  <anchor x="550" y="0" name="bottom"/>
  <anchor x="838" y="856" name="horn"/>
  <anchor x="701" y="26" name="ogonek"/>
  <outline>
    <contour>
      <point x="84" y="-8" type="line"/>
      <point x="1090" y="982" type="line"/>
      <point x="1036" y="1038" type="line"/>
      <point x="30" y="48" type="line"/>
    </contour>
    <component base="o" xOffset="-10"/>
  </outline>
</glyph>
<glyph name="thorn" format="2">
  <advance width="1150"/>
  <unicode hex="00FE"/>
  <outline>
    <contour>
      <point x="180" y="-322" type="line"/>
      <point x="258" y="-322" type="line"/>
      <point x="258" y="64" type="line" smooth="yes"/>
      <point x="258" y="90"/>
      <point x="264" y="96"/>
      <point x="284" y="78" type="curve" smooth="yes"/>
      <point x="342" y="32"/>
      <point x="437" y="-20"/>
      <point x="571" y="-20" type="curve" smooth="yes"/>
      <point x="857" y="-20"/>
      <point x="1040" y="204"/>
      <point x="1040" y="536" type="curve" smooth="yes"/>
      <point x="1040" y="882"/>
      <point x="844" y="1054"/>
      <point x="594" y="1054" type="curve" smooth="yes"/>
      <point x="376" y="1054"/>
      <point x="286" y="918"/>
      <point x="254" y="880" type="curve"/>
      <point x="254" y="1446" type="line"/>
      <point x="180" y="1446" type="line"/>
    </contour>
    <contour>
      <point x="569" y="54" type="curve" smooth="yes"/>
      <point x="450" y="54"/>
      <point x="351" y="112"/>
      <point x="258" y="202" type="curve"/>
      <point x="258" y="710" type="line" smooth="yes"/>
      <point x="258" y="826"/>
      <point x="390" y="978"/>
      <point x="584" y="978" type="curve" smooth="yes"/>
      <point x="779" y="978"/>
      <point x="958" y="838"/>
      <point x="958" y="528" type="curve" smooth="yes"/>
      <point x="958" y="232"/>
      <point x="794" y="54"/>
    </contour>
  </outline>
</glyph>
<glyph name="dcroat" format="2">
  <advance width="1190"/>
  <unicode hex="0111"/>
  <anchor x="545" y="0" name="bottom"/>
  <anchor x="990" y="1486" name="caron"/>
  <anchor x="598" y="516" name="center"/>
  <outline>
    <contour>
      <point x="568" y="1222" type="line"/>
      <point x="1130" y="1222" type="line"/>
      <point x="1130" y="1290" type="line"/>
      <point x="568" y="1290" type="line"/>
    </contour>
    <component base="d"/>
  </outline>
</glyph>
<glyph name="eogonek" format="2">
  <advance width="1114"/>
  <unicode hex="0119"/>
  <anchor x="567" y="0" name="bottom"/>
  <anchor x="755" y="36" name="ogonek"/>
  <anchor x="569" y="1034" name="top"/>
  <outline>
    <contour>
      <point x="661" y="-316" type="curve" smooth="yes"/>
      <point x="729" y="-316"/>
      <point x="793" y="-298"/>
      <point x="823" y="-282" type="curve"/>
      <point x="823" y="-220" type="line"/>
      <point x="805" y="-230"/>
      <point x="747" y="-250"/>
      <point x="681" y="-250" type="curve" smooth="yes"/>
      <point x="601" y="-250"/>
      <point x="569" y="-222"/>
      <point x="569" y="-168" type="curve" smooth="yes"/>
      <point x="569" y="-95"/>
      <point x="626" y="-45"/>
      <point x="749" y="9" type="curve" smooth="yes"/>
      <point x="863" y="59"/>
      <point x="953" y="138"/>
      <point x="981" y="276" type="curve"/>
      <point x="896" y="276" type="line"/>
      <point x="872" y="140"/>
      <point x="745" y="56"/>
      <point x="581" y="56" type="curve" smooth="yes"/>
      <point x="319" y="56"/>
      <point x="206" y="264"/>
      <point x="206" y="498" type="curve"/>
      <point x="993" y="498" type="line"/>
      <point x="993" y="554" type="line" smooth="yes"/>
      <point x="993" y="872"/>
      <point x="836" y="1054"/>
      <point x="569" y="1054" type="curve" smooth="yes"/>
      <point x="284" y="1054"/>
      <point x="121" y="850"/>
      <point x="121" y="508" type="curve" smooth="yes"/>
      <point x="121" y="175"/>
      <point x="304" y="-15"/>
      <point x="570" y="-20" type="curve"/>
      <point x="506" y="-59"/>
      <point x="483" y="-107"/>
      <point x="483" y="-164" type="curve" smooth="yes"/>
      <point x="483" y="-252"/>
      <point x="537" y="-316"/>
    </contour>
    <contour>
      <point x="208" y="574" type="line"/>
      <point x="206" y="768"/>
      <point x="313" y="978"/>
      <point x="567" y="978" type="curve" smooth="yes"/>
      <point x="801" y="978"/>
      <point x="910" y="804"/>
      <point x="910" y="574" type="curve"/>
    </contour>
  </outline>
</glyph>
<glyph name="Hbar" format="2">
  <advance width="1518"/>
  <unicode hex="0126"/>
  <anchor x="787" y="0" name="bottom"/>
  <anchor x="759" y="1458" name="top"/>
  <outline>
    <contour>
      <point x="20" y="1128" type="line"/>
      <point x="1498" y="1128" type="line"/>
      <point x="1498" y="1206" type="line"/>
      <point x="20" y="1206" type="line"/>
    </contour>
    <component base="H" xOffset="2"/>
  </outline>
</glyph>
<glyph name="idotless" format="2">
  <advance width="438"/>
  <unicode hex="0131"/>
  <anchor x="243" y="26" name="ogonek"/>
  <anchor x="218" y="1034" name="top"/>
  <outline>
    <contour>
      <point x="180" y="0" type="line"/>
      <point x="258" y="0" type="line"/>
      <point x="258" y="1034" type="line"/>
      <point x="180" y="1034" type="line"/>
    </contour>
  </outline>
</glyph>
<glyph name="kgreenlandic" format="2">
  <advance width="1087"/>
  <unicode hex="0138"/>
  <outline>
    <contour>
      <point x="997" y="0" type="line"/>
      <point x="589" y="658" type="line"/>
      <point x="959" y="1034" type="line"/>
      <point x="849" y="1034" type="line"/>
      <point x="257" y="428" type="line"/>
      <point x="257" y="1034" type="line"/>
      <point x="180" y="1034" type="line"/>
      <point x="180" y="0" type="line"/>
      <point x="257" y="0" type="line"/>
      <point x="257" y="316" type="line"/>
      <point x="529" y="592" type="line"/>
      <point x="897" y="0" type="line"/>
    </contour>
  </outline>
</glyph>
<glyph name="Lslash" format="2">
  <advance width="1144"/>
  <unicode hex="0141"/>
  <anchor x="610" y="0" name="bottom"/>
  <anchor x="620" y="1446" name="caron"/>
  <anchor x="256" y="1446" name="top"/>
  <outline>
    <contour>
      <point x="30" y="634" type="line"/>
      <point x="604" y="784" type="line"/>
      <point x="604" y="856" type="line"/>
      <point x="30" y="710" type="line"/>
    </contour>
    <component base="L" xOffset="-10"/>
  </outline>
</glyph>
<glyph name="lslash" format="2">
  <advance width="669"/>
  <unicode hex="0142"/>
  <anchor x="338" y="2" name="bottom"/>
  <anchor x="337" y="1446" name="caron"/>
  <anchor x="290" y="1524" name="top"/>
  <outline>
    <contour>
      <point x="532" y="862" type="line"/>
      <point x="70" y="430" type="line"/>
      <point x="70" y="340" type="line"/>
      <point x="532" y="776" type="line"/>
    </contour>
    <component base="l" xOffset="78"/>
  </outline>
</glyph>
<glyph name="Eng" format="2">
  <advance width="1452"/>
  <unicode hex="014A"/>
  <anchor x="678" y="0" name="bottom"/>
  <anchor x="726" y="1446" name="top"/>
  <outline>
    <contour>
      <point x="988" y="-480" type="curve" smooth="yes"/>
      <point x="1176" y="-480"/>
      <point x="1232" y="-364"/>
      <point x="1232" y="-180" type="curve" smooth="yes"/>
      <point x="1232" y="1446" type="line"/>
      <point x="1154" y="1446" type="line"/>
      <point x="1154" y="156" type="line"/>
      <point x="284" y="1446" type="line"/>
      <point x="220" y="1446" type="line"/>
      <point x="220" y="0" type="line"/>
      <point x="298" y="0" type="line"/>
      <point x="298" y="1286" type="line"/>
      <point x="1156" y="12" type="line"/>
      <point x="1156" y="-152" type="line" smooth="yes"/>
      <point x="1156" y="-334"/>
      <point x="1110" y="-398"/>
      <point x="984" y="-398" type="curve" smooth="yes"/>
      <point x="882" y="-398"/>
      <point x="832" y="-356"/>
      <point x="788" y="-336" type="curve"/>
      <point x="768" y="-422" type="line"/>
      <point x="782" y="-434"/>
      <point x="874" y="-480"/>
    </contour>
  </outline>
</glyph>
<glyph name="eng" format="2">
  <advance width="1142"/>
  <unicode hex="014B"/>
  <outline>
    <contour>
      <point x="740" y="-332" type="curve" smooth="yes"/>
      <point x="895" y="-332"/>
      <point x="962" y="-240"/>
      <point x="962" y="-80" type="curve" smooth="yes"/>
      <point x="962" y="766" type="line" smooth="yes"/>
      <point x="962" y="936"/>
      <point x="846" y="1054"/>
      <point x="645" y="1054" type="curve" smooth="yes"/>
      <point x="517" y="1054"/>
      <point x="428" y="1018"/>
      <point x="252" y="878" type="curve"/>
      <point x="252" y="1034" type="line"/>
      <point x="180" y="1034" type="line"/>
      <point x="180" y="0" type="line"/>
      <point x="258" y="0" type="line"/>
      <point x="258" y="796" type="line"/>
      <point x="384" y="908"/>
      <point x="512" y="980"/>
      <point x="636" y="980" type="curve" smooth="yes"/>
      <point x="819" y="980"/>
      <point x="884" y="876"/>
      <point x="884" y="724" type="curve" smooth="yes"/>
      <point x="884" y="-90" type="line" smooth="yes"/>
      <point x="884" y="-214"/>
      <point x="842" y="-262"/>
      <point x="737" y="-264" type="curve" smooth="yes"/>
      <point x="628" y="-266" type="line"/>
      <point x="628" y="-314" type="line" smooth="yes"/>
      <point x="628" y="-330"/>
      <point x="640" y="-332"/>
    </contour>
  </outline>
</glyph>
<glyph name="Tcedilla" format="2">
  <advance width="1141"/>
  <unicode hex="0162"/>
  <anchor x="593" y="4" name="_bottom"/>
  <anchor x="593" y="4" name="bottom"/>
  <anchor x="593" y="1446" name="top"/>
  <outline>
    <contour>
      <point x="541" y="-394" type="curve" smooth="yes"/>
      <point x="647" y="-394"/>
      <point x="735" y="-346"/>
      <point x="735" y="-248" type="curve" smooth="yes"/>
      <point x="735" y="-186"/>
      <point x="701" y="-120"/>
      <point x="579" y="-110" type="curve"/>
      <point x="629" y="14" type="line"/>
      <point x="563" y="14" type="line"/>
      <point x="491" y="-150" type="line" smooth="yes"/>
      <point x="489" y="-154"/>
      <point x="489" y="-158"/>
      <point x="499" y="-158" type="curve" smooth="yes"/>
      <point x="601" y="-162"/>
      <point x="649" y="-190"/>
      <point x="649" y="-252" type="curve" smooth="yes"/>
      <point x="649" y="-306"/>
      <point x="615" y="-336"/>
      <point x="533" y="-336" type="curve" smooth="yes"/>
      <point x="473" y="-336"/>
      <point x="441" y="-318"/>
      <point x="413" y="-292" type="curve"/>
      <point x="391" y="-348" type="line"/>
      <point x="433" y="-378"/>
      <point x="481" y="-394"/>
    </contour>
    <component base="T"/>
  </outline>
</glyph>
<glyph name="Tbar" format="2">
  <advance width="1141"/>
  <unicode hex="0166"/>
  <anchor x="593" y="4" name="bottom"/>
  <anchor x="593" y="1446" name="top"/>
  <outline>
    <contour>
      <point x="214" y="702" type="line"/>
      <point x="928" y="702" type="line"/>
      <point x="928" y="784" type="line"/>
      <point x="214" y="784" type="line"/>
    </contour>
    <component base="T"/>
  </outline>
</glyph>
<glyph name="tbar" format="2">
  <advance width="706"/>
  <unicode hex="0167"/>
  <anchor x="481" y="0" name="bottom"/>
  <anchor x="609" y="1446" name="caron"/>
  <anchor x="423" y="620" name="center"/>
  <outline>
    <contour>
      <point x="582" y="614" type="line"/>
      <point x="135" y="614" type="line"/>
      <point x="135" y="546" type="line"/>
      <point x="582" y="546" type="line"/>
    </contour>
    <component base="t" xOffset="38"/>
  </outline>
</glyph>
<glyph name="Uogonek" format="2">
  <advance width="1354"/>
  <unicode hex="0172"/>
  <anchor x="838" y="18" name="_ogonek"/>
  <anchor x="696" y="4" name="bottom"/>
  <anchor x="1148" y="1212" name="horn"/>
  <anchor x="838" y="18" name="ogonek"/>
  <anchor x="702" y="1446" name="top"/>
  <outline>
    <contour>
      <point x="744" y="-334" type="curve" smooth="yes"/>
      <point x="812" y="-334"/>
      <point x="876" y="-316"/>
      <point x="906" y="-300" type="curve"/>
      <point x="906" y="-238" type="line"/>
      <point x="888" y="-248"/>
      <point x="830" y="-268"/>
      <point x="764" y="-268" type="curve" smooth="yes"/>
      <point x="684" y="-268"/>
      <point x="652" y="-240"/>
      <point x="652" y="-186" type="curve" smooth="yes"/>
      <point x="652" y="-110"/>
      <point x="718" y="-62"/>
      <point x="848" y="-2" type="curve"/>
      <point x="782" y="16" type="line"/>
      <point x="618" y="-32"/>
      <point x="566" y="-96"/>
      <point x="566" y="-182" type="curve" smooth="yes"/>
      <point x="566" y="-270"/>
      <point x="620" y="-334"/>
    </contour>
    <component base="U"/>
  </outline>
</glyph>
<glyph name="Schwa" format="2">
  <advance width="1413"/>
  <unicode hex="018F"/>
  <outline>
    <contour>
      <point x="711" y="-20" type="curve" smooth="yes"/>
      <point x="1076" y="-20"/>
      <point x="1293" y="240"/>
      <point x="1293" y="720" type="curve" smooth="yes"/>
      <point x="1293" y="1185"/>
      <point x="1076" y="1466"/>
      <point x="711" y="1466" type="curve" smooth="yes"/>
      <point x="346" y="1466"/>
      <point x="120" y="1185"/>
      <point x="120" y="972" type="curve"/>
      <point x="216" y="972" type="line"/>
      <point x="216" y="1147"/>
      <point x="386" y="1382"/>
      <point x="711" y="1382" type="curve" smooth="yes"/>
      <point x="1036" y="1382"/>
      <point x="1205" y="1146"/>
      <point x="1205" y="742" type="curve"/>
      <point x="123" y="742" type="line"/>
      <point x="123" y="238"/>
      <point x="346" y="-20"/>
    </contour>
    <contour>
      <point x="711" y="64" type="curve" smooth="yes"/>
      <point x="386" y="64"/>
      <point x="217" y="320"/>
      <point x="217" y="660" type="curve"/>
      <point x="1205" y="660" type="line"/>
      <point x="1199" y="322"/>
      <point x="1036" y="64"/>
    </contour>
  </outline>
</glyph>
<glyph name="florin" format="2">
  <advance width="786"/>
  <unicode hex="0192"/>
  <outline>
    <contour>
      <point x="-220" y="-332" type="line"/>
      <point x="-110" y="-332" type="line" smooth="yes"/>
      <point x="46" y="-332"/>
      <point x="128" y="-240"/>
      <point x="156" y="-80" type="curve" smooth="yes"/>
      <point x="338" y="966" type="line"/>
      <point x="624" y="966" type="line"/>
      <point x="636" y="1034" type="line"/>
      <point x="350" y="1034" type="line"/>
      <point x="382" y="1214" type="line" smooth="yes"/>
      <point x="400" y="1314"/>
      <point x="462" y="1378"/>
      <point x="546" y="1378" type="curve" smooth="yes"/>
      <point x="706" y="1378" type="line"/>
      <point x="716" y="1446" type="line"/>
      <point x="566" y="1446" type="line" smooth="yes"/>
      <point x="420" y="1446"/>
      <point x="330" y="1366"/>
      <point x="302" y="1206" type="curve" smooth="yes"/>
      <point x="272" y="1034" type="line"/>
      <point x="106" y="1034" type="line"/>
      <point x="94" y="966" type="line"/>
      <point x="260" y="966" type="line"/>
      <point x="76" y="-90" type="line" smooth="yes"/>
      <point x="54" y="-214"/>
      <point x="6" y="-262"/>
      <point x="-98" y="-264" type="curve" smooth="yes"/>
      <point x="-210" y="-266" type="line"/>
    </contour>
  </outline>
</glyph>
<glyph name="uhorn" format="2">
  <advance width="1188"/>
  <unicode hex="01B0"/>
  <anchor x="558" y="0" name="bottom"/>
  <anchor x="922" y="856" name="horn"/>
  <anchor x="934" y="22" name="ogonek"/>
  <anchor x="560" y="1034" name="top"/>
  <anchor x="1058" y="936" name="topright"/>
  <outline>
    <contour>
      <point x="560" y="-20" type="curve" smooth="yes"/>
      <point x="731" y="-22"/>
      <point x="837" y="62"/>
      <point x="874" y="190" type="curve"/>
      <point x="880" y="0" type="line"/>
      <point x="952" y="0" type="line"/>
      <point x="952" y="854" type="line"/>
      <point x="1111" y="845"/>
      <point x="1188" y="932"/>
      <point x="1188" y="1114" type="curve"/>
      <point x="1086" y="1114" type="line"/>
      <point x="1082" y="977"/>
      <point x="1049" y="928"/>
      <point x="952" y="924" type="curve"/>
      <point x="952" y="1034" type="line"/>
      <point x="874" y="1034" type="line"/>
      <point x="874" y="362" type="line" smooth="yes"/>
      <point x="874" y="154"/>
      <point x="746" y="56"/>
      <point x="555" y="56" type="curve" smooth="yes"/>
      <point x="339" y="56"/>
      <point x="238" y="172"/>
      <point x="238" y="346" type="curve" smooth="yes"/>
      <point x="238" y="1034" type="line"/>
      <point x="160" y="1034" type="line"/>
      <point x="160" y="346" type="line" smooth="yes"/>
      <point x="160" y="100"/>
      <point x="320" y="-17"/>
    </contour>
  </outline>
</glyph>
<glyph name="Oogonek" format="2">
  <advance width="1414"/>
  <unicode hex="01EA"/>
  <anchor x="848" y="18" name="_ogonek"/>
  <anchor x="712" y="0" name="bottom"/>
  <anchor x="1088" y="1212" name="horn"/>
  <anchor x="848" y="18" name="ogonek"/>
  <anchor x="712" y="1446" name="top"/>
  <outline>
    <contour>
      <point x="754" y="-334" type="curve" smooth="yes"/>
      <point x="822" y="-334"/>
      <point x="886" y="-316"/>
      <point x="916" y="-300" type="curve"/>
      <point x="916" y="-238" type="line"/>
      <point x="898" y="-248"/>
      <point x="840" y="-268"/>
      <point x="774" y="-268" type="curve" smooth="yes"/>
      <point x="694" y="-268"/>
      <point x="662" y="-240"/>
      <point x="662" y="-186" type="curve" smooth="yes"/>
      <point x="662" y="-110"/>
      <point x="728" y="-62"/>
      <point x="858" y="-2" type="curve"/>
      <point x="792" y="16" type="line"/>
      <point x="628" y="-32"/>
      <point x="576" y="-96"/>
      <point x="576" y="-182" type="curve" smooth="yes"/>
      <point x="576" y="-270"/>
      <point x="630" y="-334"/>
    </contour>
    <component base="O"/>
  </outline>
</glyph>
<glyph name="oogonek" format="2">
  <advance width="1110"/>
  <unicode hex="01EB"/>
  <anchor x="711" y="26" name="_ogonek"/>
  <anchor x="560" y="0" name="bottom"/>
  <anchor x="848" y="856" name="horn"/>
  <anchor x="711" y="26" name="ogonek"/>
  <anchor x="556" y="1034" name="top"/>
  <outline>
    <contour>
      <point x="617" y="-326" type="curve" smooth="yes"/>
      <point x="685" y="-326"/>
      <point x="749" y="-308"/>
      <point x="779" y="-292" type="curve"/>
      <point x="779" y="-230" type="line"/>
      <point x="761" y="-240"/>
      <point x="703" y="-260"/>
      <point x="637" y="-260" type="curve" smooth="yes"/>
      <point x="557" y="-260"/>
      <point x="525" y="-232"/>
      <point x="525" y="-178" type="curve" smooth="yes"/>
      <point x="525" y="-102"/>
      <point x="591" y="-54"/>
      <point x="721" y="6" type="curve"/>
      <point x="655" y="24" type="line"/>
      <point x="491" y="-24"/>
      <point x="439" y="-88"/>
      <point x="439" y="-174" type="curve" smooth="yes"/>
      <point x="439" y="-262"/>
      <point x="493" y="-326"/>
    </contour>
    <component base="o"/>
  </outline>
</glyph>
<glyph name="jdotless" format="2">
  <advance width="467"/>
  <unicode hex="0237"/>
  <anchor x="247" y="1034" name="top"/>
  <outline>
    <contour>
      <point x="68" y="-332" type="curve" smooth="yes"/>
      <point x="243" y="-332"/>
      <point x="287" y="-260"/>
      <point x="287" y="-100" type="curve" smooth="yes"/>
      <point x="287" y="1034" type="line"/>
      <point x="209" y="1034" type="line"/>
      <point x="209" y="-90" type="line" smooth="yes"/>
      <point x="209" y="-214"/>
      <point x="167" y="-258"/>
      <point x="66" y="-260" type="curve" smooth="yes"/>
      <point x="-60" y="-262" type="line"/>
      <point x="-60" y="-314" type="line" smooth="yes"/>
      <point x="-60" y="-330"/>
      <point x="-49" y="-332"/>
    </contour>
  </outline>
</glyph>
<glyph name="commaturnedmod" format="2">
  <advance width="366"/>
  <unicode hex="02BB"/>
  <outline>
    <contour>
      <point x="100" y="1068" type="line"/>
      <point x="266" y="1068" type="line"/>
      <point x="266" y="1224" type="line"/>
      <point x="172" y="1224" type="line"/>
      <point x="172" y="1232" type="line"/>
      <point x="172" y="1292"/>
      <point x="210" y="1362"/>
      <point x="256" y="1362" type="curve"/>
      <point x="266" y="1362" type="line"/>
      <point x="266" y="1416" type="line"/>
      <point x="198" y="1432"/>
      <point x="100" y="1338"/>
      <point x="100" y="1206" type="curve"/>
    </contour>
  </outline>
</glyph>
<glyph name="apostrophemod" format="2">
  <advance width="366"/>
  <unicode hex="02BC"/>
  <outline>
    <contour>
      <point x="100" y="1070" type="line"/>
      <point x="168" y="1054"/>
      <point x="266" y="1148"/>
      <point x="266" y="1280" type="curve"/>
      <point x="266" y="1418" type="line"/>
      <point x="100" y="1418" type="line"/>
      <point x="100" y="1262" type="line"/>
      <point x="194" y="1262" type="line"/>
      <point x="194" y="1254" type="line"/>
      <point x="194" y="1194"/>
      <point x="156" y="1124"/>
      <point x="110" y="1124" type="curve"/>
      <point x="100" y="1124" type="line"/>
    </contour>
  </outline>
</glyph>
<glyph name="gravecomb" format="2">
  <unicode hex="0300"/>
  <anchor x="286" y="1034" name="_top"/>
  <outline>
    <contour>
      <point x="261" y="1155" type="line"/>
      <point x="336" y="1155" type="line"/>
      <point x="130" y="1446" type="line"/>
      <point x="10" y="1446" type="line"/>
    </contour>
  </outline>
</glyph>
<glyph name="acutecomb" format="2">
  <unicode hex="0301"/>
  <anchor x="63" y="1034" name="_top"/>
  <outline>
    <contour>
      <point x="10" y="1155" type="line"/>
      <point x="85" y="1155" type="line"/>
      <point x="336" y="1446" type="line"/>
      <point x="216" y="1446" type="line"/>
    </contour>
  </outline>
</glyph>
<glyph name="circumflexcomb" format="2">
  <unicode hex="0302"/>
  <anchor x="270" y="1034" name="_top"/>
  <outline>
    <contour>
      <point x="2" y="1155" type="line"/>
      <point x="114" y="1155" type="line"/>
      <point x="270" y="1275" type="line"/>
      <point x="418" y="1155" type="line"/>
      <point x="538" y="1155" type="line"/>
      <point x="304" y="1345" type="line"/>
      <point x="240" y="1345" type="line"/>
    </contour>
  </outline>
</glyph>
<glyph name="tildecomb" format="2">
  <unicode hex="0303"/>
  <anchor x="272" y="1034" name="_top"/>
  <outline>
    <contour>
      <point x="40" y="1248" type="line"/>
      <point x="70" y="1266"/>
      <point x="100" y="1296"/>
      <point x="164" y="1296" type="curve" smooth="yes"/>
      <point x="244" y="1296"/>
      <point x="284" y="1248"/>
      <point x="386" y="1248" type="curve" smooth="yes"/>
      <point x="464" y="1248"/>
      <point x="502" y="1276"/>
      <point x="530" y="1294" type="curve"/>
      <point x="502" y="1364" type="line"/>
      <point x="464" y="1337"/>
      <point x="438" y="1322"/>
      <point x="388" y="1322" type="curve" smooth="yes"/>
      <point x="302" y="1322"/>
      <point x="242" y="1372"/>
      <point x="156" y="1372" type="curve" smooth="yes"/>
      <point x="94" y="1372"/>
      <point x="56" y="1346"/>
      <point x="16" y="1314" type="curve"/>
    </contour>
  </outline>
</glyph>
<glyph name="macroncomb" format="2">
  <unicode hex="0304"/>
  <anchor x="264" y="1034" name="_top"/>
  <outline>
    <contour>
      <point x="18" y="1265" type="line"/>
      <point x="508" y="1265" type="line"/>
      <point x="508" y="1339" type="line"/>
      <point x="18" y="1339" type="line"/>
    </contour>
  </outline>
</glyph>
<glyph name="dotaccentcomb" format="2">
  <unicode hex="0307"/>
  <anchor x="58" y="1034" name="_top"/>
  <outline>
    <contour>
      <point x="10" y="1326" type="line"/>
      <point x="106" y="1326" type="line"/>
      <point x="106" y="1446" type="line"/>
      <point x="10" y="1446" type="line"/>
    </contour>
  </outline>
</glyph>
<glyph name="dieresiscomb" format="2">
  <unicode hex="0308"/>
  <anchor x="210" y="1034" name="_top"/>
  <outline>
    <contour>
      <point x="322" y="1326" type="line"/>
      <point x="410" y="1326" type="line"/>
      <point x="410" y="1446" type="line"/>
      <point x="322" y="1446" type="line"/>
    </contour>
    <contour>
      <point x="10" y="1326" type="line"/>
      <point x="98" y="1326" type="line"/>
      <point x="98" y="1446" type="line"/>
      <point x="10" y="1446" type="line"/>
    </contour>
  </outline>
</glyph>
<glyph name="hookabovecomb" format="2">
  <unicode hex="0309"/>
  <anchor x="626" y="1060" name="_top"/>
  <anchor x="542" y="1168" name="_topviet"/>
  <outline>
    <contour>
      <point x="662" y="1176" type="line"/>
      <point x="764" y="1240"/>
      <point x="810" y="1332"/>
      <point x="750" y="1420" type="curve" smooth="yes"/>
      <point x="700" y="1494"/>
      <point x="596" y="1506"/>
      <point x="492" y="1440" type="curve"/>
      <point x="532" y="1378" type="line"/>
      <point x="592" y="1418"/>
      <point x="660" y="1426"/>
      <point x="690" y="1378" type="curve" smooth="yes"/>
      <point x="718" y="1334"/>
      <point x="684" y="1276"/>
      <point x="622" y="1236" type="curve"/>
    </contour>
  </outline>
</glyph>
<glyph name="ringcomb" format="2">
  <unicode hex="030A"/>
  <anchor x="212" y="1034" name="_top"/>
  <outline>
    <contour>
      <point x="212" y="1172" type="curve" smooth="yes"/>
      <point x="322" y="1172"/>
      <point x="408" y="1256"/>
      <point x="408" y="1366" type="curve" smooth="yes"/>
      <point x="408" y="1474"/>
      <point x="322" y="1558"/>
      <point x="212" y="1558" type="curve" smooth="yes"/>
      <point x="106" y="1558"/>
      <point x="18" y="1474"/>
      <point x="18" y="1370" type="curve" smooth="yes"/>
      <point x="18" y="1258"/>
      <point x="104" y="1172"/>
    </contour>
    <contour>
      <point x="210" y="1250" type="curve" smooth="yes"/>
      <point x="150" y="1250"/>
      <point x="96" y="1304"/>
      <point x="96" y="1366" type="curve" smooth="yes"/>
      <point x="96" y="1434"/>
      <point x="150" y="1480"/>
      <point x="210" y="1480" type="curve" smooth="yes"/>
      <point x="274" y="1480"/>
      <point x="324" y="1434"/>
      <point x="324" y="1366" type="curve" smooth="yes"/>
      <point x="324" y="1304"/>
      <point x="274" y="1250"/>
    </contour>
  </outline>
</glyph>
<glyph name="caroncomb" format="2">
  <unicode hex="030C"/>
  <anchor x="270" y="1034" name="_top"/>
  <outline>
    <contour>
      <point x="240" y="1155" type="line"/>
      <point x="304" y="1155" type="line"/>
      <point x="538" y="1345" type="line"/>
      <point x="418" y="1345" type="line"/>
      <point x="270" y="1225" type="line"/>
      <point x="114" y="1345" type="line"/>
      <point x="0" y="1345" type="line"/>
    </contour>
  </outline>
</glyph>
<glyph name="dblgravecomb" format="2">
  <unicode hex="030F"/>
  <anchor x="421" y="1034" name="_top"/>
  <outline>
    <contour>
      <point x="281" y="1155" type="line"/>
      <point x="356" y="1155" type="line"/>
      <point x="130" y="1446" type="line"/>
      <point x="10" y="1446" type="line"/>
    </contour>
    <contour>
      <point x="486" y="1155" type="line"/>
      <point x="561" y="1155" type="line"/>
      <point x="370" y="1446" type="line"/>
      <point x="250" y="1446" type="line"/>
    </contour>
  </outline>
</glyph>
<glyph name="commaturnedabovecomb" format="2">
  <unicode hex="0312"/>
  <anchor x="188" y="1034" name="_top"/>
  <outline>
    <contour>
      <point x="130" y="1155" type="line"/>
      <point x="242" y="1155" type="line"/>
      <point x="242" y="1317" type="line"/>
      <point x="196" y="1317" type="line"/>
      <point x="260" y="1455" type="line"/>
      <point x="198" y="1455" type="line"/>
      <point x="130" y="1325" type="line"/>
    </contour>
  </outline>
</glyph>
<glyph name="horncomb" format="2">
  <unicode hex="031B"/>
  <anchor x="0" y="980" name="_horn"/>
  <anchor x="126" y="1060" name="_topright"/>
  <anchor x="126" y="1060" name="topright"/>
  <outline>
    <contour>
      <point x="0" y="980" type="line"/>
      <point x="172" y="962"/>
      <point x="256" y="1048"/>
      <point x="256" y="1238" type="curve"/>
      <point x="154" y="1238" type="line"/>
      <point x="150" y="1092"/>
      <point x="112" y="1060"/>
      <point x="0" y="1062" type="curve"/>
    </contour>
  </outline>
</glyph>
<glyph name="commaaccentcomb" format="2">
  <unicode hex="0326"/>
  <anchor x="80" y="0" name="_bottom"/>
  <outline>
    <contour>
      <point x="-5" y="-320" type="line"/>
      <point x="44" y="-320" type="line"/>
      <point x="148" y="-203" type="line"/>
      <point x="148" y="-100" type="line"/>
      <point x="22" y="-100" type="line"/>
      <point x="22" y="-221" type="line"/>
      <point x="67" y="-221" type="line"/>
    </contour>
  </outline>
</glyph>
<glyph name="cedillacomb" format="2">
  <unicode hex="0327"/>
  <anchor x="218" y="0" name="_bottom"/>
  <outline>
    <contour>
      <point x="166" y="-398" type="curve" smooth="yes"/>
      <point x="272" y="-398"/>
      <point x="360" y="-350"/>
      <point x="360" y="-252" type="curve" smooth="yes"/>
      <point x="360" y="-190"/>
      <point x="326" y="-124"/>
      <point x="204" y="-114" type="curve"/>
      <point x="254" y="10" type="line"/>
      <point x="188" y="10" type="line"/>
      <point x="116" y="-154" type="line" smooth="yes"/>
      <point x="114" y="-158"/>
      <point x="114" y="-162"/>
      <point x="124" y="-162" type="curve" smooth="yes"/>
      <point x="226" y="-166"/>
      <point x="274" y="-194"/>
      <point x="274" y="-256" type="curve" smooth="yes"/>
      <point x="274" y="-310"/>
      <point x="240" y="-340"/>
      <point x="158" y="-340" type="curve" smooth="yes"/>
      <point x="98" y="-340"/>
      <point x="66" y="-322"/>
      <point x="38" y="-296" type="curve"/>
      <point x="16" y="-352" type="line"/>
      <point x="58" y="-382"/>
      <point x="106" y="-398"/>
    </contour>
  </outline>
</glyph>
<glyph name="ogonekcomb" format="2">
  <unicode hex="0328"/>
  <anchor x="290" y="24" name="_ogonek"/>
  <outline>
    <contour>
      <point x="196" y="-328" type="curve" smooth="yes"/>
      <point x="264" y="-328"/>
      <point x="328" y="-310"/>
      <point x="358" y="-294" type="curve"/>
      <point x="358" y="-232" type="line"/>
      <point x="340" y="-242"/>
      <point x="282" y="-262"/>
      <point x="216" y="-262" type="curve" smooth="yes"/>
      <point x="136" y="-262"/>
      <point x="104" y="-234"/>
      <point x="104" y="-180" type="curve" smooth="yes"/>
      <point x="104" y="-104"/>
      <point x="170" y="-56"/>
      <point x="300" y="4" type="curve"/>
      <point x="234" y="22" type="line"/>
      <point x="70" y="-26"/>
      <point x="18" y="-90"/>
      <point x="18" y="-176" type="curve" smooth="yes"/>
      <point x="18" y="-264"/>
      <point x="72" y="-328"/>
    </contour>
  </outline>
</glyph>
<glyph name="pi" format="2">
  <advance width="1286"/>
  <unicode hex="03C0"/>
  <outline>
    <contour>
      <point x="166" y="0" type="curve"/>
      <point x="232" y="0" type="line"/>
      <point x="296" y="190"/>
      <point x="350" y="568"/>
      <point x="350" y="966" type="curve"/>
      <point x="884" y="966" type="line"/>
      <point x="886" y="0" type="line"/>
      <point x="964" y="0" type="line"/>
      <point x="964" y="966" type="line"/>
      <point x="1226" y="966" type="line"/>
      <point x="1226" y="1034" type="line"/>
      <point x="60" y="1034" type="line"/>
      <point x="60" y="966" type="line"/>
      <point x="262" y="966" type="line" smooth="yes"/>
      <point x="272" y="966"/>
      <point x="278" y="958"/>
      <point x="278" y="946" type="curve" smooth="yes"/>
      <point x="278" y="566"/>
      <point x="224" y="220"/>
    </contour>
  </outline>
</glyph>
<glyph name="emdash" format="2">
  <advance width="2170"/>
  <unicode hex="2014"/>
  <outline>
    <contour>
      <point x="381" y="466" type="line"/>
      <point x="1789" y="468" type="line"/>
      <point x="1789" y="546" type="line"/>
      <point x="381" y="544" type="line"/>
    </contour>
  </outline>
</glyph>
<glyph name="quoteleft" format="2">
  <advance width="432"/>
  <unicode hex="2018"/>
  <outline>
    <contour>
      <point x="135" y="1130" type="line"/>
      <point x="301" y="1130" type="line"/>
      <point x="301" y="1288" type="line"/>
      <point x="231" y="1288" type="line"/>
      <point x="337" y="1512" type="line"/>
      <point x="273" y="1512" type="line"/>
      <point x="135" y="1266" type="line"/>
    </contour>
  </outline>
</glyph>
<glyph name="quoteright" format="2">
  <advance width="402"/>
  <unicode hex="2019"/>
  <outline>
    <contour>
      <point x="100" y="1064" type="line"/>
      <point x="164" y="1064" type="line"/>
      <point x="302" y="1310" type="line"/>
      <point x="302" y="1446" type="line"/>
      <point x="136" y="1446" type="line"/>
      <point x="136" y="1288" type="line"/>
      <point x="206" y="1288" type="line"/>
    </contour>
  </outline>
</glyph>
<glyph name="quotesinglbase" format="2">
  <advance width="412"/>
  <unicode hex="201A"/>
  <outline>
    <contour>
      <point x="80" y="-222" type="line"/>
      <point x="144" y="-222" type="line"/>
      <point x="282" y="24" type="line"/>
      <point x="282" y="160" type="line"/>
      <point x="116" y="160" type="line"/>
      <point x="116" y="0" type="line"/>
      <point x="186" y="0" type="line"/>
    </contour>
  </outline>
</glyph>
<glyph name="quotedblleft" format="2">
  <advance width="718"/>
  <unicode hex="201C"/>
  <outline>
    <contour>
      <point x="135" y="1064" type="line"/>
      <point x="301" y="1064" type="line"/>
      <point x="301" y="1224" type="line"/>
      <point x="231" y="1224" type="line"/>
      <point x="339" y="1446" type="line"/>
      <point x="275" y="1446" type="line"/>
      <point x="135" y="1202" type="line"/>
    </contour>
    <contour>
      <point x="421" y="1064" type="line"/>
      <point x="587" y="1064" type="line"/>
      <point x="587" y="1224" type="line"/>
      <point x="515" y="1224" type="line"/>
      <point x="623" y="1446" type="line"/>
      <point x="559" y="1446" type="line"/>
      <point x="421" y="1202" type="line"/>
    </contour>
  </outline>
</glyph>
<glyph name="quotedblright" format="2">
  <advance width="686"/>
  <unicode hex="201D"/>
  <outline>
    <contour>
      <point x="384" y="1064" type="line"/>
      <point x="448" y="1064" type="line"/>
      <point x="586" y="1310" type="line"/>
      <point x="586" y="1446" type="line"/>
      <point x="422" y="1446" type="line"/>
      <point x="422" y="1288" type="line"/>
      <point x="492" y="1288" type="line"/>
    </contour>
    <contour>
      <point x="100" y="1064" type="line"/>
      <point x="164" y="1064" type="line"/>
      <point x="302" y="1310" type="line"/>
      <point x="302" y="1446" type="line"/>
      <point x="136" y="1446" type="line"/>
      <point x="136" y="1288" type="line"/>
      <point x="206" y="1288" type="line"/>
    </contour>
  </outline>
</glyph>
<glyph name="dagger" format="2">
  <advance width="788"/>
  <unicode hex="2020"/>
  <outline>
    <contour>
      <point x="344" y="-322" type="line"/>
      <point x="448" y="-322" type="line"/>
      <point x="428" y="828" type="line"/>
      <point x="788" y="816" type="line"/>
      <point x="788" y="908" type="line"/>
      <point x="434" y="898" type="line"/>
      <point x="448" y="1446" type="line"/>
      <point x="344" y="1446" type="line"/>
      <point x="356" y="898" type="line"/>
      <point x="0" y="908" type="line"/>
      <point x="0" y="816" type="line"/>
      <point x="362" y="828" type="line"/>
    </contour>
  </outline>
</glyph>
<glyph name="daggerdbl" format="2">
  <advance width="788"/>
  <unicode hex="2021"/>
  <outline>
    <contour>
      <point x="344" y="-322" type="line"/>
      <point x="448" y="-322" type="line"/>
      <point x="434" y="226" type="line"/>
      <point x="788" y="216" type="line"/>
      <point x="788" y="310" type="line"/>
      <point x="428" y="296" type="line"/>
      <point x="428" y="828" type="line"/>
      <point x="788" y="816" type="line"/>
      <point x="788" y="908" type="line"/>
      <point x="434" y="898" type="line"/>
      <point x="448" y="1446" type="line"/>
      <point x="344" y="1446" type="line"/>
      <point x="356" y="898" type="line"/>
      <point x="0" y="908" type="line"/>
      <point x="0" y="816" type="line"/>
      <point x="362" y="828" type="line"/>
      <point x="362" y="296" type="line"/>
      <point x="0" y="310" type="line"/>
      <point x="0" y="216" type="line"/>
      <point x="356" y="226" type="line"/>
    </contour>
  </outline>
</glyph>
<glyph name="bullet" format="2">
  <advance width="560"/>
  <unicode hex="2022"/>
  <outline>
    <contour>
      <point x="280" y="594" type="curve" smooth="yes"/>
      <point x="358" y="594"/>
      <point x="420" y="658"/>
      <point x="420" y="736" type="curve" smooth="yes"/>
      <point x="420" y="814"/>
      <point x="358" y="876"/>
      <point x="280" y="876" type="curve" smooth="yes"/>
      <point x="202" y="876"/>
      <point x="140" y="814"/>
      <point x="140" y="736" type="curve" smooth="yes"/>
      <point x="140" y="658"/>
      <point x="202" y="594"/>
    </contour>
  </outline>
</glyph>
<glyph name="perthousand" format="2">
  <advance width="2512"/>
  <unicode hex="2030"/>
  <outline>
    <contour>
      <point x="440" y="1468" type="curve" smooth="yes"/>
      <point x="254" y="1468"/>
      <point x="120" y="1326"/>
      <point x="120" y="1054" type="curve" smooth="yes"/>
      <point x="120" y="780"/>
      <point x="254" y="638"/>
      <point x="440" y="638" type="curve" smooth="yes"/>
      <point x="626" y="638"/>
      <point x="756" y="780"/>
      <point x="756" y="1054" type="curve" smooth="yes"/>
      <point x="756" y="1326"/>
      <point x="626" y="1468"/>
    </contour>
    <contour>
      <point x="438" y="696" type="curve" smooth="yes"/>
      <point x="286" y="696"/>
      <point x="188" y="848"/>
      <point x="188" y="1054" type="curve" smooth="yes"/>
      <point x="188" y="1258"/>
      <point x="286" y="1410"/>
      <point x="438" y="1410" type="curve" smooth="yes"/>
      <point x="590" y="1410"/>
      <point x="688" y="1260"/>
      <point x="688" y="1054" type="curve" smooth="yes"/>
      <point x="688" y="846"/>
      <point x="590" y="696"/>
    </contour>
    <contour>
      <point x="1302" y="812" type="curve" smooth="yes"/>
      <point x="1116" y="812"/>
      <point x="982" y="668"/>
      <point x="982" y="398" type="curve" smooth="yes"/>
      <point x="982" y="122"/>
      <point x="1116" y="-20"/>
      <point x="1302" y="-20" type="curve" smooth="yes"/>
      <point x="1488" y="-20"/>
      <point x="1618" y="122"/>
      <point x="1618" y="398" type="curve" smooth="yes"/>
      <point x="1618" y="668"/>
      <point x="1488" y="812"/>
    </contour>
    <contour>
      <point x="1300" y="40" type="curve" smooth="yes"/>
      <point x="1154" y="40"/>
      <point x="1050" y="196"/>
      <point x="1050" y="396" type="curve" smooth="yes"/>
      <point x="1050" y="594"/>
      <point x="1154" y="752"/>
      <point x="1300" y="752" type="curve" smooth="yes"/>
      <point x="1446" y="752"/>
      <point x="1550" y="596"/>
      <point x="1550" y="396" type="curve" smooth="yes"/>
      <point x="1550" y="196"/>
      <point x="1446" y="40"/>
    </contour>
    <contour>
      <point x="2076" y="812" type="curve" smooth="yes"/>
      <point x="1890" y="812"/>
      <point x="1756" y="668"/>
      <point x="1756" y="398" type="curve" smooth="yes"/>
      <point x="1756" y="122"/>
      <point x="1890" y="-20"/>
      <point x="2076" y="-20" type="curve" smooth="yes"/>
      <point x="2262" y="-20"/>
      <point x="2392" y="122"/>
      <point x="2392" y="398" type="curve" smooth="yes"/>
      <point x="2392" y="668"/>
      <point x="2262" y="812"/>
    </contour>
    <contour>
      <point x="2074" y="40" type="curve" smooth="yes"/>
      <point x="1928" y="40"/>
      <point x="1824" y="196"/>
      <point x="1824" y="396" type="curve" smooth="yes"/>
      <point x="1824" y="594"/>
      <point x="1928" y="752"/>
      <point x="2074" y="752" type="curve" smooth="yes"/>
      <point x="2220" y="752"/>
      <point x="2324" y="596"/>
      <point x="2324" y="396" type="curve" smooth="yes"/>
      <point x="2324" y="196"/>
      <point x="2220" y="40"/>
    </contour>
    <component base="fraction" xOffset="656"/>
  </outline>
</glyph>
<glyph name="guilsinglleft" format="2">
  <advance width="494"/>
  <unicode hex="2039"/>
  <outline>
    <contour>
      <point x="346" y="152" type="line"/>
      <point x="400" y="152" type="line"/>
      <point x="164" y="502" type="line"/>
      <point x="404" y="868" type="line"/>
      <point x="348" y="868" type="line"/>
      <point x="60" y="502" type="line"/>
    </contour>
  </outline>
</glyph>
<glyph name="guilsinglright" format="2">
  <advance width="492"/>
  <unicode hex="203A"/>
  <outline>
    <contour>
      <point x="94" y="152" type="line"/>
      <point x="146" y="152" type="line"/>
      <point x="432" y="502" type="line"/>
      <point x="144" y="868" type="line"/>
      <point x="90" y="868" type="line"/>
      <point x="330" y="502" type="line"/>
    </contour>
  </outline>
</glyph>
<glyph name="fraction" format="2">
  <advance width="454"/>
  <unicode hex="2044"/>
  <outline>
    <contour>
      <point x="-215" y="-8" type="line"/>
      <point x="757" y="1462" type="line"/>
      <point x="684" y="1462" type="line"/>
      <point x="-293" y="-8" type="line"/>
    </contour>
  </outline>
</glyph>
<glyph name="colonsign" format="2">
  <advance width="1318"/>
  <unicode hex="20A1"/>
  <anchor x="700" y="0" name="bottom"/>
  <anchor x="686" y="1446" name="top"/>
  <outline>
    <contour>
      <point x="694" y="-20" type="curve" smooth="yes"/>
      <point x="979" y="-20"/>
      <point x="1173" y="191"/>
      <point x="1198" y="411" type="curve"/>
      <point x="1110" y="411" type="line"/>
      <point x="1072" y="223"/>
      <point x="934" y="62"/>
      <point x="694" y="62" type="curve" smooth="yes"/>
      <point x="369" y="62"/>
      <point x="208" y="276"/>
      <point x="208" y="720" type="curve" smooth="yes"/>
      <point x="208" y="1164"/>
      <point x="369" y="1384"/>
      <point x="694" y="1384" type="curve" smooth="yes"/>
      <point x="934" y="1384"/>
      <point x="1072" y="1222"/>
      <point x="1110" y="1034" type="curve"/>
      <point x="1198" y="1034" type="line"/>
      <point x="1174" y="1256"/>
      <point x="979" y="1466"/>
      <point x="694" y="1466" type="curve" smooth="yes"/>
      <point x="319" y="1466"/>
      <point x="120" y="1208"/>
      <point x="120" y="720" type="curve" smooth="yes"/>
      <point x="120" y="232"/>
      <point x="319" y="-20"/>
    </contour>
    <contour>
      <point x="404" y="-122" type="line"/>
      <point x="478" y="-122" type="line"/>
      <point x="798" y="1560" type="line"/>
      <point x="724" y="1560" type="line"/>
    </contour>
    <contour>
      <point x="608" y="-122" type="line"/>
      <point x="682" y="-122" type="line"/>
      <point x="1002" y="1560" type="line"/>
      <point x="928" y="1560" type="line"/>
    </contour>
  </outline>
</glyph>
<glyph name="franc" format="2">
  <advance width="1184"/>
  <unicode hex="20A3"/>
  <outline>
    <contour>
      <point x="204" y="0" type="line"/>
      <point x="294" y="0" type="line"/>
      <point x="294" y="666" type="line"/>
      <point x="1006" y="666" type="line"/>
      <point x="1006" y="744" type="line"/>
      <point x="294" y="744" type="line"/>
      <point x="294" y="1368" type="line"/>
      <point x="1064" y="1368" type="line"/>
      <point x="1064" y="1446" type="line"/>
      <point x="204" y="1446" type="line"/>
    </contour>
    <contour>
      <point x="10" y="294" type="line"/>
      <point x="648" y="296" type="line"/>
      <point x="648" y="370" type="line"/>
      <point x="10" y="368" type="line"/>
    </contour>
  </outline>
</glyph>
<glyph name="lira" format="2">
  <advance width="1156"/>
  <unicode hex="20A4"/>
  <outline>
    <contour>
      <point x="20" y="0" type="line"/>
      <point x="686" y="0" type="line" smooth="yes"/>
      <point x="860" y="0"/>
      <point x="986" y="70"/>
      <point x="1046" y="214" type="curve"/>
      <point x="974" y="244" type="line"/>
      <point x="926" y="120"/>
      <point x="830" y="78"/>
      <point x="686" y="78" type="curve"/>
      <point x="260" y="78" type="line"/>
      <point x="354" y="186"/>
      <point x="384" y="372"/>
      <point x="370" y="514" type="curve"/>
      <point x="686" y="514" type="line"/>
      <point x="686" y="588" type="line"/>
      <point x="358" y="586" type="line"/>
      <point x="320" y="806" type="line"/>
      <point x="686" y="808" type="line"/>
      <point x="686" y="882" type="line"/>
      <point x="326" y="880" type="line" smooth="yes"/>
      <point x="316" y="880"/>
      <point x="308" y="886"/>
      <point x="306" y="896" type="curve" smooth="yes"/>
      <point x="290" y="988"/>
      <point x="278" y="1066"/>
      <point x="278" y="1106" type="curve" smooth="yes"/>
      <point x="278" y="1282"/>
      <point x="418" y="1382"/>
      <point x="588" y="1382" type="curve" smooth="yes"/>
      <point x="732" y="1382"/>
      <point x="812" y="1330"/>
      <point x="860" y="1240" type="curve"/>
      <point x="934" y="1278" type="line"/>
      <point x="896" y="1370"/>
      <point x="748" y="1466"/>
      <point x="584" y="1466" type="curve" smooth="yes"/>
      <point x="336" y="1466"/>
      <point x="148" y="1332"/>
      <point x="216" y="922" type="curve" smooth="yes"/>
      <point x="224" y="880" type="line"/>
      <point x="54" y="880" type="line"/>
      <point x="54" y="806" type="line"/>
      <point x="238" y="806" type="line"/>
      <point x="276" y="586" type="line"/>
      <point x="54" y="586" type="line"/>
      <point x="54" y="512" type="line"/>
      <point x="272" y="512" type="line" smooth="yes"/>
      <point x="282" y="512"/>
      <point x="286" y="510"/>
      <point x="288" y="502" type="curve" smooth="yes"/>
      <point x="290" y="466"/>
      <point x="292" y="440"/>
      <point x="292" y="418" type="curve" smooth="yes"/>
      <point x="292" y="182"/>
      <point x="204" y="74"/>
      <point x="102" y="76" type="curve" smooth="yes"/>
      <point x="20" y="76" type="line"/>
    </contour>
  </outline>
</glyph>
<glyph name="naira" format="2">
  <advance width="1378"/>
  <unicode hex="20A6"/>
  <anchor x="676" y="0" name="bottom"/>
  <anchor x="724" y="1446" name="top"/>
  <outline>
    <contour>
      <point x="218" y="0" type="line"/>
      <point x="296" y="0" type="line"/>
      <point x="296" y="1286" type="line"/>
      <point x="1162" y="0" type="line"/>
      <point x="1230" y="0" type="line"/>
      <point x="1230" y="1446" type="line"/>
      <point x="1152" y="1446" type="line"/>
      <point x="1152" y="156" type="line"/>
      <point x="282" y="1446" type="line"/>
      <point x="218" y="1446" type="line"/>
    </contour>
    <contour>
      <point x="10" y="554" type="line"/>
      <point x="1368" y="556" type="line"/>
      <point x="1368" y="630" type="line"/>
      <point x="10" y="628" type="line"/>
    </contour>
    <contour>
      <point x="10" y="866" type="line"/>
      <point x="1368" y="868" type="line"/>
      <point x="1368" y="942" type="line"/>
      <point x="10" y="940" type="line"/>
    </contour>
  </outline>
</glyph>
<glyph name="won" format="2">
  <advance width="1878"/>
  <unicode hex="20A9"/>
  <anchor x="930" y="1446" name="top"/>
  <outline>
    <contour>
      <point x="455" y="0" type="line"/>
      <point x="558" y="0" type="line"/>
      <point x="928" y="1296" type="line"/>
      <point x="1291" y="0" type="line"/>
      <point x="1400" y="0" type="line"/>
      <point x="1816" y="1446" type="line"/>
      <point x="1730" y="1446" type="line"/>
      <point x="1346" y="98" type="line"/>
      <point x="969" y="1446" type="line"/>
      <point x="890" y="1446" type="line"/>
      <point x="507" y="98" type="line"/>
      <point x="136" y="1446" type="line"/>
      <point x="49" y="1446" type="line"/>
    </contour>
    <contour>
      <point x="30" y="554" type="line"/>
      <point x="1848" y="556" type="line"/>
      <point x="1848" y="630" type="line"/>
      <point x="30" y="628" type="line"/>
    </contour>
    <contour>
      <point x="30" y="866" type="line"/>
      <point x="1848" y="868" type="line"/>
      <point x="1848" y="942" type="line"/>
      <point x="30" y="940" type="line"/>
    </contour>
  </outline>
</glyph>
<glyph name="dong" format="2">
  <advance width="962"/>
  <unicode hex="20AB"/>
  <outline>
    <contour>
      <point x="458" y="246" type="curve" smooth="yes"/>
      <point x="636" y="246"/>
      <point x="710" y="356"/>
      <point x="738" y="390" type="curve"/>
      <point x="738" y="262" type="line"/>
      <point x="808" y="262" type="line"/>
      <point x="808" y="1444" type="line"/>
      <point x="734" y="1444" type="line"/>
      <point x="734" y="1040" type="line" smooth="yes"/>
      <point x="734" y="1020"/>
      <point x="732" y="1014"/>
      <point x="712" y="1030" type="curve" smooth="yes"/>
      <point x="662" y="1072"/>
      <point x="602" y="1124"/>
      <point x="476" y="1124" type="curve" smooth="yes"/>
      <point x="244" y="1124"/>
      <point x="90" y="940"/>
      <point x="90" y="668" type="curve" smooth="yes"/>
      <point x="90" y="388"/>
      <point x="256" y="246"/>
    </contour>
    <contour>
      <point x="128" y="0" type="line"/>
      <point x="818" y="0" type="line"/>
      <point x="818" y="68" type="line"/>
      <point x="128" y="68" type="line"/>
    </contour>
    <contour>
      <point x="474" y="322" type="curve" smooth="yes"/>
      <point x="318" y="322"/>
      <point x="180" y="432"/>
      <point x="180" y="674" type="curve" smooth="yes"/>
      <point x="180" y="908"/>
      <point x="306" y="1044"/>
      <point x="482" y="1044" type="curve" smooth="yes"/>
      <point x="578" y="1044"/>
      <point x="656" y="1004"/>
      <point x="728" y="932" type="curve"/>
      <point x="728" y="532" type="line" smooth="yes"/>
      <point x="728" y="440"/>
      <point x="624" y="322"/>
    </contour>
    <contour>
      <point x="430" y="1238" type="line"/>
      <point x="932" y="1238" type="line"/>
      <point x="932" y="1306" type="line"/>
      <point x="430" y="1306" type="line"/>
    </contour>
  </outline>
</glyph>
<glyph name="euro" format="2">
  <advance width="1094"/>
  <unicode hex="20AC"/>
  <outline>
    <contour>
      <point x="722" y="-20" type="curve" smooth="yes"/>
      <point x="834" y="-20"/>
      <point x="938" y="14"/>
      <point x="1024" y="70" type="curve"/>
      <point x="976" y="138" type="line"/>
      <point x="908" y="92"/>
      <point x="824" y="64"/>
      <point x="730" y="64" type="curve" smooth="yes"/>
      <point x="392" y="64"/>
      <point x="226" y="298"/>
      <point x="226" y="718" type="curve" smooth="yes"/>
      <point x="226" y="1152"/>
      <point x="396" y="1382"/>
      <point x="714" y="1382" type="curve" smooth="yes"/>
      <point x="808" y="1382"/>
      <point x="888" y="1346"/>
      <point x="958" y="1292" type="curve"/>
      <point x="1014" y="1368" type="line"/>
      <point x="924" y="1430"/>
      <point x="816" y="1466"/>
      <point x="710" y="1466" type="curve" smooth="yes"/>
      <point x="344" y="1466"/>
      <point x="130" y="1190"/>
      <point x="130" y="718" type="curve" smooth="yes"/>
      <point x="130" y="248"/>
      <point x="344" y="-20"/>
    </contour>
    <contour>
      <point x="-40" y="534" type="line"/>
      <point x="696" y="536" type="line"/>
      <point x="696" y="610" type="line"/>
      <point x="-40" y="608" type="line"/>
    </contour>
    <contour>
      <point x="-40" y="846" type="line"/>
      <point x="696" y="848" type="line"/>
      <point x="696" y="922" type="line"/>
      <point x="-40" y="920" type="line"/>
    </contour>
  </outline>
</glyph>
<glyph name="rupeeIndian" format="2">
  <advance width="1052"/>
  <unicode hex="20B9"/>
  <outline>
    <contour>
      <point x="722" y="0" type="line"/>
      <point x="820" y="0" type="line"/>
      <point x="558" y="718" type="line" smooth="yes"/>
      <point x="556" y="724"/>
      <point x="558" y="730"/>
      <point x="566" y="732" type="curve" smooth="yes"/>
      <point x="700" y="772"/>
      <point x="862" y="864"/>
      <point x="862" y="1102" type="curve" smooth="yes"/>
      <point x="862" y="1330"/>
      <point x="698" y="1446"/>
      <point x="418" y="1446" type="curve" smooth="yes"/>
      <point x="0" y="1446" type="line"/>
      <point x="0" y="1368" type="line"/>
      <point x="416" y="1368" type="line" smooth="yes"/>
      <point x="652" y="1368"/>
      <point x="766" y="1278"/>
      <point x="766" y="1100" type="curve" smooth="yes"/>
      <point x="766" y="874"/>
      <point x="628" y="790"/>
      <point x="348" y="790" type="curve" smooth="yes"/>
      <point x="0" y="790" type="line"/>
      <point x="0" y="712" type="line"/>
      <point x="460" y="712" type="line"/>
    </contour>
    <contour>
      <point x="4" y="1060" type="line"/>
      <point x="1022" y="1062" type="line"/>
      <point x="1022" y="1136" type="line"/>
      <point x="4" y="1134" type="line"/>
    </contour>
    <contour>
      <point x="4" y="1372" type="line"/>
      <point x="1022" y="1374" type="line"/>
      <point x="1022" y="1448" type="line"/>
      <point x="4" y="1446" type="line"/>
    </contour>
  </outline>
</glyph>
<glyph name="liraTurkish" format="2">
  <advance width="958"/>
  <unicode hex="20BA"/>
  <outline>
    <contour>
      <point x="202" y="0" type="line"/>
      <point x="416" y="0" type="line" smooth="yes"/>
      <point x="654" y="0"/>
      <point x="850" y="142"/>
      <point x="938" y="424" type="curve"/>
      <point x="854" y="446" type="line"/>
      <point x="756" y="180"/>
      <point x="618" y="78"/>
      <point x="414" y="78" type="curve" smooth="yes"/>
      <point x="292" y="78" type="line"/>
      <point x="292" y="1446" type="line"/>
      <point x="202" y="1446" type="line"/>
    </contour>
    <contour>
      <point x="58" y="400" type="line"/>
      <point x="622" y="604" type="line"/>
      <point x="590" y="688" type="line"/>
      <point x="30" y="484" type="line"/>
    </contour>
    <contour>
      <point x="58" y="726" type="line"/>
      <point x="622" y="930" type="line"/>
      <point x="590" y="1014" type="line"/>
      <point x="30" y="810" type="line"/>
    </contour>
  </outline>
</glyph>
<glyph name="literSign" format="2">
  <advance width="882"/>
  <unicode hex="2113"/>
  <outline>
    <contour>
      <point x="472" y="-12" type="curve"/>
      <point x="597" y="-12"/>
      <point x="684" y="46"/>
      <point x="762" y="193" type="curve"/>
      <point x="712" y="222" type="line"/>
      <point x="629" y="87"/>
      <point x="566" y="58"/>
      <point x="472" y="58" type="curve" smooth="yes"/>
      <point x="348" y="58"/>
      <point x="280" y="158"/>
      <point x="280" y="436" type="curve"/>
      <point x="482" y="630"/>
      <point x="740" y="882"/>
      <point x="740" y="1172" type="curve" smooth="yes"/>
      <point x="740" y="1344"/>
      <point x="652" y="1466"/>
      <point x="498" y="1466" type="curve" smooth="yes"/>
      <point x="340" y="1466"/>
      <point x="202" y="1334"/>
      <point x="202" y="1038" type="curve" smooth="yes"/>
      <point x="202" y="480" type="line"/>
      <point x="50" y="372" type="line"/>
      <point x="92" y="306" type="line"/>
      <point x="199" y="380" type="line"/>
      <point x="209" y="117"/>
      <point x="299" y="-12"/>
    </contour>
    <contour>
      <point x="280" y="538" type="curve"/>
      <point x="280" y="974" type="line" smooth="yes"/>
      <point x="280" y="1282"/>
      <point x="358" y="1384"/>
      <point x="496" y="1384" type="curve" smooth="yes"/>
      <point x="604" y="1384"/>
      <point x="664" y="1318"/>
      <point x="664" y="1194" type="curve" smooth="yes"/>
      <point x="664" y="910"/>
      <point x="422" y="660"/>
    </contour>
  </outline>
</glyph>
<glyph name="published" format="2">
  <advance width="1606"/>
  <unicode hex="2117"/>
  <outline>
    <contour>
      <point x="804" y="-20" type="curve" smooth="yes"/>
      <point x="1212" y="-20"/>
      <point x="1546" y="310"/>
      <point x="1546" y="724" type="curve" smooth="yes"/>
      <point x="1546" y="1132"/>
      <point x="1212" y="1466"/>
      <point x="804" y="1466" type="curve" smooth="yes"/>
      <point x="392" y="1466"/>
      <point x="60" y="1132"/>
      <point x="60" y="724" type="curve" smooth="yes"/>
      <point x="60" y="310"/>
      <point x="392" y="-20"/>
    </contour>
    <contour>
      <point x="804" y="66" type="curve" smooth="yes"/>
      <point x="450" y="66"/>
      <point x="148" y="324"/>
      <point x="148" y="724" type="curve" smooth="yes"/>
      <point x="148" y="1118"/>
      <point x="450" y="1382"/>
      <point x="804" y="1382" type="curve" smooth="yes"/>
      <point x="1148" y="1382"/>
      <point x="1458" y="1118"/>
      <point x="1458" y="724" type="curve" smooth="yes"/>
      <point x="1458" y="324"/>
      <point x="1148" y="66"/>
    </contour>
    <contour>
      <point x="558" y="328" type="line"/>
      <point x="636" y="328" type="line"/>
      <point x="636" y="662" type="line"/>
      <point x="836" y="662" type="line" smooth="yes"/>
      <point x="994" y="662"/>
      <point x="1110" y="742"/>
      <point x="1110" y="908" type="curve" smooth="yes"/>
      <point x="1110" y="1048"/>
      <point x="994" y="1108"/>
      <point x="830" y="1108" type="curve" smooth="yes"/>
      <point x="558" y="1108" type="line"/>
    </contour>
    <contour>
      <point x="636" y="732" type="line"/>
      <point x="636" y="1038" type="line"/>
      <point x="828" y="1038" type="line" smooth="yes"/>
      <point x="942" y="1038"/>
      <point x="1030" y="1006"/>
      <point x="1030" y="888" type="curve" smooth="yes"/>
      <point x="1030" y="780"/>
      <point x="942" y="732"/>
      <point x="836" y="732" type="curve" smooth="yes"/>
    </contour>
  </outline>
</glyph>
<glyph name="servicemark" format="2">
  <advance width="1908"/>
  <unicode hex="2120"/>
  <anchor x="383" y="0" name="bottom"/>
  <anchor x="391" y="904" name="top"/>
  <outline>
    <contour>
      <point x="982" y="0" type="line"/>
      <point x="1035" y="0" type="line"/>
      <point x="1035" y="760" type="line"/>
      <point x="1339" y="0" type="line"/>
      <point x="1412" y="0" type="line"/>
      <point x="1719" y="770" type="line"/>
      <point x="1719" y="0" type="line"/>
      <point x="1773" y="0" type="line"/>
      <point x="1773" y="904" type="line"/>
      <point x="1719" y="904" type="line"/>
      <point x="1375" y="55" type="line"/>
      <point x="1037" y="904" type="line"/>
      <point x="982" y="904" type="line"/>
    </contour>
    <contour>
      <point x="403" y="-13" type="curve" smooth="yes"/>
      <point x="596" y="-13"/>
      <point x="712" y="94"/>
      <point x="712" y="231" type="curve" smooth="yes"/>
      <point x="712" y="321"/>
      <point x="668" y="409"/>
      <point x="523" y="451" type="curve" smooth="yes"/>
      <point x="316" y="511" type="line" smooth="yes"/>
      <point x="215" y="540"/>
      <point x="155" y="585"/>
      <point x="155" y="679" type="curve" smooth="yes"/>
      <point x="155" y="784"/>
      <point x="241" y="866"/>
      <point x="391" y="866" type="curve" smooth="yes"/>
      <point x="510" y="866"/>
      <point x="626" y="817"/>
      <point x="640" y="665" type="curve"/>
      <point x="695" y="665" type="line"/>
      <point x="696" y="786"/>
      <point x="593" y="915"/>
      <point x="393" y="915" type="curve" smooth="yes"/>
      <point x="226" y="915"/>
      <point x="103" y="816"/>
      <point x="103" y="679" type="curve" smooth="yes"/>
      <point x="103" y="548"/>
      <point x="186" y="493"/>
      <point x="296" y="461" type="curve" smooth="yes"/>
      <point x="498" y="403" type="line" smooth="yes"/>
      <point x="616" y="368"/>
      <point x="660" y="313"/>
      <point x="660" y="231" type="curve" smooth="yes"/>
      <point x="660" y="113"/>
      <point x="548" y="36"/>
      <point x="403" y="36" type="curve" smooth="yes"/>
      <point x="273" y="36"/>
      <point x="156" y="99"/>
      <point x="130" y="221" type="curve"/>
      <point x="75" y="221" type="line"/>
      <point x="101" y="70"/>
      <point x="233" y="-13"/>
    </contour>
  </outline>
</glyph>
<glyph name="Ohm" format="2">
  <advance width="1528"/>
  <unicode hex="2126"/>
  <outline>
    <contour>
      <point x="214" y="0" type="line"/>
      <point x="682" y="0" type="line"/>
      <point x="682" y="90" type="line"/>
      <point x="372" y="316"/>
      <point x="238" y="512"/>
      <point x="238" y="806" type="curve" smooth="yes"/>
      <point x="238" y="1106"/>
      <point x="402" y="1418"/>
      <point x="764" y="1418" type="curve"/>
      <point x="1126" y="1418"/>
      <point x="1290" y="1106"/>
      <point x="1290" y="806" type="curve" smooth="yes"/>
      <point x="1290" y="408"/>
      <point x="996" y="196"/>
      <point x="846" y="90" type="curve"/>
      <point x="846" y="0" type="line"/>
      <point x="1314" y="0" type="line"/>
      <point x="1314" y="84" type="line"/>
      <point x="960" y="84" type="line"/>
      <point x="1276" y="344"/>
      <point x="1388" y="508"/>
      <point x="1388" y="818" type="curve" smooth="yes"/>
      <point x="1388" y="1174"/>
      <point x="1168" y="1504"/>
      <point x="764" y="1504" type="curve"/>
      <point x="360" y="1504"/>
      <point x="140" y="1176"/>
      <point x="140" y="816" type="curve" smooth="yes"/>
      <point x="140" y="342"/>
      <point x="518" y="122"/>
      <point x="564" y="84" type="curve"/>
      <point x="214" y="84" type="line"/>
    </contour>
  </outline>
</glyph>
<glyph name="partialdiff" format="2">
  <advance width="1150"/>
  <unicode hex="2202"/>
  <outline>
    <contour>
      <point x="556" y="-20" type="curve" smooth="yes"/>
      <point x="860" y="-20"/>
      <point x="1040" y="250"/>
      <point x="1040" y="734" type="curve" smooth="yes"/>
      <point x="1040" y="1222"/>
      <point x="856" y="1466"/>
      <point x="546" y="1466" type="curve" smooth="yes"/>
      <point x="412" y="1466"/>
      <point x="258" y="1418"/>
      <point x="186" y="1336" type="curve"/>
      <point x="220" y="1278" type="line"/>
      <point x="300" y="1332"/>
      <point x="376" y="1380"/>
      <point x="510" y="1380" type="curve" smooth="yes"/>
      <point x="782" y="1380"/>
      <point x="940" y="1182"/>
      <point x="940" y="752" type="curve" smooth="yes"/>
      <point x="940" y="744"/>
      <point x="936" y="740"/>
      <point x="916" y="750" type="curve" smooth="yes"/>
      <point x="810" y="814"/>
      <point x="740" y="850"/>
      <point x="594" y="850" type="curve" smooth="yes"/>
      <point x="290" y="850"/>
      <point x="110" y="690"/>
      <point x="110" y="434" type="curve" smooth="yes"/>
      <point x="110" y="176"/>
      <point x="296" y="-20"/>
    </contour>
    <contour>
      <point x="538" y="64" type="line" smooth="yes"/>
      <point x="354" y="64"/>
      <point x="204" y="230"/>
      <point x="204" y="428" type="curve" smooth="yes"/>
      <point x="204" y="624"/>
      <point x="354" y="766"/>
      <point x="566" y="766" type="curve" smooth="yes"/>
      <point x="704" y="766"/>
      <point x="862" y="704"/>
      <point x="930" y="626" type="curve" smooth="yes"/>
      <point x="944" y="612"/>
      <point x="946" y="598"/>
      <point x="942" y="556" type="curve" smooth="yes"/>
      <point x="914" y="260"/>
      <point x="744" y="64"/>
      <point x="540" y="64" type="curve" smooth="yes"/>
    </contour>
  </outline>
</glyph>
<glyph name="emptyset" format="2">
  <advance width="1122"/>
  <unicode hex="2205"/>
  <outline>
    <contour>
      <point x="184" y="314" type="line"/>
      <point x="992" y="1058" type="line"/>
      <point x="942" y="1112" type="line"/>
      <point x="130" y="368" type="line"/>
    </contour>
    <contour>
      <point x="562" y="340" type="curve" smooth="yes"/>
      <point x="774" y="340"/>
      <point x="950" y="514"/>
      <point x="950" y="728" type="curve" smooth="yes"/>
      <point x="950" y="940"/>
      <point x="774" y="1114"/>
      <point x="562" y="1114" type="curve" smooth="yes"/>
      <point x="348" y="1114"/>
      <point x="176" y="940"/>
      <point x="176" y="728" type="curve" smooth="yes"/>
      <point x="176" y="514"/>
      <point x="348" y="340"/>
    </contour>
    <contour>
      <point x="562" y="410" type="curve" smooth="yes"/>
      <point x="386" y="410"/>
      <point x="246" y="552"/>
      <point x="246" y="728" type="curve" smooth="yes"/>
      <point x="246" y="900"/>
      <point x="386" y="1044"/>
      <point x="562" y="1044" type="curve" smooth="yes"/>
      <point x="738" y="1044"/>
      <point x="880" y="900"/>
      <point x="880" y="728" type="curve" smooth="yes"/>
      <point x="880" y="552"/>
      <point x="738" y="410"/>
    </contour>
  </outline>
</glyph>
<glyph name="increment" format="2">
  <advance width="1272"/>
  <unicode hex="2206"/>
  <outline>
    <contour>
      <point x="40" y="0" type="line"/>
      <point x="1232" y="0" type="line"/>
      <point x="634" y="1446" type="line"/>
    </contour>
    <contour>
      <point x="162" y="84" type="line"/>
      <point x="634" y="1210" type="line"/>
      <point x="1106" y="84" type="line"/>
    </contour>
  </outline>
</glyph>
<glyph name="product" format="2">
  <advance width="1228"/>
  <unicode hex="220F"/>
  <outline>
    <contour>
      <point x="246" y="0" type="line"/>
      <point x="336" y="0" type="line"/>
      <point x="336" y="1366" type="line"/>
      <point x="892" y="1366" type="line"/>
      <point x="892" y="0" type="line"/>
      <point x="980" y="0" type="line"/>
      <point x="980" y="1366" type="line"/>
      <point x="1198" y="1366" type="line"/>
      <point x="1198" y="1446" type="line"/>
      <point x="30" y="1446" type="line"/>
      <point x="30" y="1366" type="line"/>
      <point x="246" y="1366" type="line"/>
    </contour>
  </outline>
</glyph>
<glyph name="summation" format="2">
  <advance width="970"/>
  <unicode hex="2211"/>
  <outline>
    <contour>
      <point x="50" y="0" type="line"/>
      <point x="930" y="0" type="line"/>
      <point x="930" y="78" type="line"/>
      <point x="162" y="78" type="line"/>
      <point x="594" y="726" type="line"/>
      <point x="192" y="1368" type="line"/>
      <point x="894" y="1368" type="line"/>
      <point x="894" y="1446" type="line"/>
      <point x="80" y="1446" type="line"/>
      <point x="80" y="1376" type="line"/>
      <point x="492" y="724" type="line"/>
      <point x="50" y="66" type="line"/>
    </contour>
  </outline>
</glyph>
